<?xml version="1.0" encoding="UTF-8" standalone="no"?>
<svg
   xmlns:dc="http://purl.org/dc/elements/1.1/"
   xmlns:cc="http://creativecommons.org/ns#"
   xmlns:rdf="http://www.w3.org/1999/02/22-rdf-syntax-ns#"
   xmlns:svg="http://www.w3.org/2000/svg"
   xmlns="http://www.w3.org/2000/svg"
   xmlns:sodipodi="http://sodipodi.sourceforge.net/DTD/sodipodi-0.dtd"
   xmlns:inkscape="http://www.inkscape.org/namespaces/inkscape"
   width="20"
   height="20"
   version="1.1"
   viewBox="0 0 5.2917 5.2917"
   id="svg6"
   sodipodi:docname="〇.svg"
   inkscape:version="0.92.4 (5da689c313, 2019-01-14)">
  <metadata
     id="metadata12">
    <rdf:RDF>
      <cc:Work
         rdf:about="">
        <dc:format>image/svg+xml</dc:format>
        <dc:type
           rdf:resource="http://purl.org/dc/dcmitype/StillImage" />
        <dc:title></dc:title>
      </cc:Work>
    </rdf:RDF>
  </metadata>
  <defs
     id="defs10" />
  <sodipodi:namedview
     pagecolor="#ffffff"
     bordercolor="#666666"
     borderopacity="1"
     objecttolerance="10"
     gridtolerance="10"
     guidetolerance="10"
     inkscape:pageopacity="0"
     inkscape:pageshadow="2"
     inkscape:window-width="1920"
     inkscape:window-height="2035"
     id="namedview8"
     showgrid="false"
     inkscape:zoom="47.2"
     inkscape:cx="7.7754319"
     inkscape:cy="13.742151"
     inkscape:window-x="-13"
     inkscape:window-y="-13"
     inkscape:window-maximized="0"
     inkscape:current-layer="svg6" />
  <path
     style="fill:#000000;stroke-width:0.00225752"
     d="m 2.5404305,5.2096591 c -6.096e-4,-5.588e-4 -0.02224,-0.0017 -0.048077,-0.00254 -0.02584,-8.442e-4 -0.054025,-0.00251 -0.062639,-0.0037 -0.00861,-0.00119 -0.026733,-0.00324 -0.040266,-0.00454 -0.03603,-0.00345 -0.099505,-0.012727 -0.1790946,-0.026142 -0.011144,-0.00187 -0.024866,-0.00341 -0.03049,-0.00341 -0.01758,0 -0.1282611,-0.019811 -0.1662425,-0.029756 -0.00984,-0.00258 -0.022427,-0.00574 -0.027963,-0.00702 -0.00553,-0.00129 -0.016107,-0.00387 -0.02349,-0.00577 -0.019087,-0.00487 -0.154701,-0.049351 -0.180085,-0.059058 -0.011688,-0.00447 -0.031319,-0.011005 -0.043623,-0.014526 -0.028307,-0.00809 -0.095243,-0.031875 -0.1084979,-0.038546 -0.00978,-0.00492 -0.027678,-0.012229 -0.071586,-0.029223 -0.026009,-0.010065 -0.063823,-0.025863 -0.09955,-0.041586 -0.014765,-0.0065 -0.037415,-0.016309 -0.050335,-0.021804 -0.049314,-0.020975 -0.086676,-0.037276 -0.10103,-0.04408 -0.0082,-0.00388 -0.016456,-0.00706 -0.018354,-0.00706 -0.00624,0 -0.085631,-0.040319 -0.1033066,-0.052467 -0.00953,-0.00654 -0.022447,-0.013742 -0.028735,-0.016006 -0.018753,-0.00676 -0.082226,-0.042749 -0.099232,-0.056276 -0.00462,-0.00367 -0.013971,-0.010277 -0.020788,-0.014674 -0.00682,-0.00441 -0.01524,-0.010678 -0.018718,-0.013961 -0.00348,-0.00328 -0.01619,-0.012047 -0.0282492,-0.019474 C 0.9780194,4.6906101 0.9567454,4.6757431 0.9428028,4.6650001 0.8903962,4.6246181 0.8740308,4.6117341 0.8480057,4.5903711 0.8322892,4.5774701 0.8182943,4.5677731 0.8140708,4.5668581 0.8088058,4.5657081 0.7997797,4.5578781 0.7803255,4.5375551 0.7422417,4.4977691 0.7206572,4.4738741 0.7017129,4.4505321 0.6925819,4.4392811 0.6805109,4.4249131 0.6748876,4.4186011 0.6521661,4.3931041 0.6459585,4.3854971 0.6229032,4.3549001 0.586009,4.3059361 0.5827746,4.3017851 0.5695879,4.2864531 0.5628199,4.2785931 0.5533805,4.2664611 0.5486099,4.2595111 0.5438399,4.2525511 0.5355035,4.2415861 0.5300863,4.2351231 0.5246693,4.2286631 0.5173046,4.2173541 0.5137208,4.2099981 0.5101368,4.2026381 0.5042108,4.1927671 0.5005527,4.1880531 0.4934947,4.1789531 0.4740832,4.1452811 0.4627841,4.1225281 0.4590501,4.1150081 0.4544361,4.1057831 0.4525299,4.1020241 0.4490609,4.0951841 0.441416,4.0774161 0.4226347,4.0325411 0.4148367,4.0139091 0.3997442,3.9709371 0.3995951,3.9669441 c -1.691e-5,-3.726e-4 0.001263,-3.726e-4 0.002838,0 0.001575,3.724e-4 0.003084,-1.001e-4 0.003356,-0.00105 0.001375,-0.00475 6.764e-5,-0.00668 -0.003842,-0.00564 -0.003221,8.567e-4 -0.00519,-6.83e-4 -0.007657,-0.006 -0.005039,-0.010854 -0.006793,-0.019683 -0.00391,-0.019683 0.00466,0 0.002485,-0.00478 -0.005605,-0.012331 -0.006525,-0.00608 -0.009778,-0.012548 -0.0168613,-0.033487 -0.004825,-0.014269 -0.0108231,-0.03312 -0.0133251,-0.04189 -0.002502,-0.00876 -0.00597,-0.019142 -0.00771,-0.023046 -0.001738,-0.0039 -0.004765,-0.014147 -0.006728,-0.022762 -0.001963,-0.00861 -0.006667,-0.025323 -0.0104553,-0.037132 -0.005688,-0.017727 -0.006474,-0.022589 -0.004504,-0.027898 0.00269,-0.00725 -0.001977,-0.023107 -0.008864,-0.030092 -0.002105,-0.00212 -0.004397,-0.00769 -0.00509,-0.012352 -0.001254,-0.00841 -0.0121338,-0.047473 -0.0183618,-0.065932 -0.001785,-0.00529 -0.00521,-0.019132 -0.007611,-0.030755 -0.007626,-0.036925 -0.008589,-0.041063 -0.0163114,-0.07011 -0.004164,-0.015662 -0.009741,-0.03719 -0.0123934,-0.047841 -0.002652,-0.010649 -0.00643,-0.025003 -0.008396,-0.031894 -0.001965,-0.0069 -0.00495,-0.018503 -0.006633,-0.025806 -0.001683,-0.00731 -0.006021,-0.022678 -0.009639,-0.034171 -0.003619,-0.011494 -0.008227,-0.027561 -0.0102399,-0.035706 -0.002013,-0.00814 -0.00549,-0.017883 -0.007727,-0.021642 -0.002236,-0.00376 -0.00723,-0.021192 -0.0110985,-0.038734 -0.003865,-0.017555 -0.0104234,-0.04626 -0.014571,-0.063802 -0.0135342,-0.057242 -0.0168716,-0.072812 -0.0168685,-0.078699 1.6e-6,-0.00319 -0.002433,-0.015492 -0.005411,-0.027338 -0.002977,-0.011846 -0.006474,-0.028715 -0.007771,-0.037487 -0.001296,-0.00876 -0.004523,-0.024149 -0.007169,-0.034171 -0.002647,-0.010023 -0.005811,-0.02335 -0.007031,-0.029615 -0.00122,-0.00627 -0.004577,-0.023693 -0.00746,-0.03873 -0.002882,-0.015035 -0.007295,-0.033877 -0.009806,-0.041873 -0.002511,-0.00799 -0.004565,-0.01744 -0.004565,-0.020993 0,-0.00355 -0.001385,-0.010851 -0.003078,-0.016219 -0.002952,-0.00936 -0.004785,-0.016708 -0.0103885,-0.041651 -0.01198974,-0.053367 -0.01549351,-0.1543983 -0.0094472,-0.272408 0.0011186,-0.021834 0.0019712,-0.046874 0.0018946,-0.055645 -7.61e-5,-0.00877 0.001578,-0.061054 0.003678,-0.1161852 0.0021,-0.055131 0.004243,-0.1135654 0.004764,-0.1298541 0.001643,-0.051409 0.00571,-0.079654 0.0195167,-0.1355494 0.009877,-0.039983 0.0363057,-0.1210683 0.0446157,-0.1368809 0.001303,-0.00248 0.005421,-0.012934 0.009151,-0.023232 0.007666,-0.021165 0.023238,-0.063404 0.0319641,-0.086704 0.003209,-0.00857 0.013038,-0.032151 0.0218395,-0.052397 0.0160225,-0.036857 0.0277902,-0.066525 0.0398691,-0.1005162 0.006783,-0.019087 0.006053,-0.025549 -0.002573,-0.022763 -0.002989,9.686e-4 -0.004158,2.11e-4 -0.004158,-0.00271 0,-0.00374 0.0270411,-0.060104 0.0317177,-0.06611 0.001135,-0.00146 0.009936,-0.018372 0.0195596,-0.037588 0.009623,-0.019217 0.0191254,-0.038015 0.0211164,-0.041774 0.001991,-0.00375 0.007317,-0.014524 0.0118346,-0.023921 0.004518,-0.0094 0.0126126,-0.026176 0.0179876,-0.037288 0.005743,-0.011871 0.009246,-0.021891 0.008494,-0.024303 -8.2058e-4,-0.00264 0.001158,-0.00694 0.005526,-0.011993 0.003743,-0.00435 0.006805,-0.00982 0.006805,-0.012188 0,-0.00235 0.002517,-0.00806 0.005593,-0.012678 0.003075,-0.00462 0.005603,-0.00972 0.005614,-0.01135 1.69e-5,-0.00254 0.008613,-0.019808 0.0269749,-0.054227 0.006954,-0.013034 0.0158224,-0.036889 0.017629,-0.047417 0.001234,-0.00719 0.004371,-0.012692 0.0116928,-0.020504 0.0121714,-0.012983 0.017504,-0.021473 0.017504,-0.027864 0,-0.00266 0.003524,-0.011969 0.007829,-0.020709 0.004305,-0.00873 0.007829,-0.017362 0.007829,-0.019162 0,-0.0048 0.019677,-0.043658 0.0283232,-0.055914 0.0041,-0.00582 0.008998,-0.015021 0.0108843,-0.020465 0.001886,-0.00544 0.006923,-0.014464 0.011193,-0.020046 0.004271,-0.00558 0.007764,-0.012482 0.007764,-0.015335 0,-0.00285 9.779e-4,-0.00581 0.002174,-0.00656 0.001195,-7.525e-4 0.00406,-0.00569 0.006365,-0.010956 0.002306,-0.00527 0.006889,-0.013614 0.0101871,-0.018533 0.003297,-0.00491 0.006609,-0.011431 0.007357,-0.014468 0.001562,-0.00633 0.0143887,-0.028639 0.0205021,-0.035648 0.002267,-0.0026 0.005853,-0.00951 0.007969,-0.015368 0.002116,-0.00585 0.005304,-0.011873 0.007085,-0.013378 0.00178,-0.0015 0.003237,-0.00395 0.003237,-0.00543 0,-0.00148 0.00537,-0.00933 0.0119339,-0.017429 0.006563,-0.008104 0.0126482,-0.0176323 0.0135213,-0.0211751 8.7302e-4,-0.003544 0.003459,-0.009158 0.005742,-0.0124779 0.002285,-0.003321 0.007793,-0.0116749 0.0122405,-0.0185662 0.0172313,-0.026704 0.0292988,-0.042818 0.0477218,-0.0637233 0.005229,-0.005934 0.009508,-0.0124348 0.009508,-0.0144471 0,-0.002011 0.002381,-0.006007 0.005292,-0.008876 0.002909,-0.002871 0.0100598,-0.0113691 0.0158878,-0.0188869 0.005829,-0.007518 0.0117929,-0.014694 0.0132553,-0.0159469 0.001462,-0.001252 0.005556,-0.006379 0.009095,-0.0113908 0.009093,-0.0128741 0.0598204,-0.0657498 0.10053672,-0.104794 0.014373,-0.0137827 0.0324392,-0.0312106 0.0401471,-0.0387285 0.007709,-0.007518 0.0215089,-0.0201012 0.0306688,-0.0279626 0.0198543,-0.0170402 0.0188387,-0.0160979 0.030077,-0.0279014 0.004922,-0.005168 0.0119683,-0.0115326 0.0156596,-0.0141407 0.00369,-0.002608 0.010738,-0.008528 0.0156596,-0.0131534 0.004922,-0.004627 0.0139817,-0.0118628 0.0201337,-0.0160818 0.00615,-0.004218 0.014709,-0.0109887 0.019015,-0.0150443 0.00431,-0.004055 0.011353,-0.008877 0.01566,-0.0107154 0.00431,-0.001837 0.01085,-0.006598 0.01454,-0.0105754 0.00369,-0.00398 0.011241,-0.009734 0.016779,-0.01279 0.00553,-0.003057 0.014597,-0.008602 0.020134,-0.0123261 0.00553,-0.003723 0.012962,-0.00856 0.016501,-0.0107477 0.00353,-0.002189 0.00914,-0.00621 0.012435,-0.00894 0.0033,-0.002729 0.011603,-0.007485 0.018446,-0.0105668 0.00685,-0.003082 0.013162,-0.006786 0.014038,-0.00823 8.766e-4,-0.001444 0.00551,-0.005144 0.010298,-0.008221 0.014347,-0.009222 0.078292,-0.0421113 0.092706,-0.0476805 0.01263,-0.00488 0.024795,-0.0103898 0.059207,-0.0268161 0.00796,-0.003798 0.020035,-0.007593 0.026845,-0.008435 0.00681,-8.4184e-4 0.019113,-0.004826 0.027341,-0.008855 0.00823,-0.004028 0.022825,-0.009933 0.032436,-0.0131225 0.00961,-0.00319 0.029054,-0.0107495 0.043202,-0.0168007 0.039154,-0.0167443 0.1725455,-0.0624734 0.23512,-0.0806026 0.05347,-0.0154913 0.1171015,-0.0280788 0.2201242,-0.043544 0.013533,-0.002031 0.034334,-0.005738 0.046223,-0.008239 0.011888,-0.002499 0.025479,-0.005036 0.0302,-0.005637 0.00471,-5.9972e-4 0.017647,-0.003043 0.028719,-0.005429 0.030821,-0.006642 0.083133,-0.0138688 0.1398169,-0.0193121 0.019071,-0.001831 0.040211,-0.003862 0.046979,-0.004514 0.00677,-6.5177e-4 0.014317,-0.001625 0.016779,-0.002162 0.020492,-0.004475 0.1806896,-0.0113711 0.2325521,-0.0100108 0.046212,0.001212 0.05076,2.1692e-4 0.107483,-0.0235283 0.040289,-0.0168661 0.046384,-0.0184661 0.095075,-0.0249576 0.010457,-0.001394 0.024552,-0.00396 0.031319,-0.0057 0.00677,-0.001741 0.021868,-0.004313 0.033555,-0.005716 0.036029,-0.004325 0.047676,-0.006012 0.059281,-0.008589 0.012319,-0.0027345 0.070331,-0.0073396 0.092133,-0.0073136 0.00761,8.61e-6 0.016635,-0.0010671 0.020057,-0.0023917 0.00341,-0.0013245 0.018838,-0.0028539 0.034261,-0.0033988 0.015425,-5.4228e-4 0.031566,-0.0014754 0.035873,-0.0020713 0.025328,-0.003505 0.048157,-0.004199 0.1297505,-0.0039448 0.1262061,3.9811e-4 0.1429291,0.0011952 0.203573,0.0097098 0.00924,0.0012957 0.025229,0.0033285 0.035559,0.0045176 0.01033,0.001189 0.022409,0.0031387 0.026845,0.0043327 0.00444,0.001194 0.018634,0.004313 0.031554,0.00693 0.029912,0.006061 0.08238,0.0205677 0.13758,0.0380387 0.00984,0.003116 0.027139,0.008139 0.038431,0.0111639 0.011294,0.003025 0.029189,0.0101086 0.039762,0.0157421 0.010576,0.005634 0.021467,0.0102426 0.024202,0.0102426 0.00274,0 0.015547,0.003479 0.028468,0.00773 0.038343,0.0126143 0.06919,0.0221203 0.090606,0.0279216 0.027499,0.00745 0.061027,0.0206771 0.070351,0.0277572 0.00425,0.003221 0.010107,0.005655 0.013033,0.005407 0.00861,-7.2637e-4 0.02672,0.008508 0.032921,0.0167885 0.0039,0.005206 0.00876,0.008439 0.015184,0.0101002 0.018624,0.004814 0.03485,0.0118629 0.03989,0.0173285 0.00739,0.008011 0.037149,0.0249547 0.057342,0.0326477 0.00956,0.003636 0.024568,0.0102777 0.033383,0.0147574 0.00882,0.00448 0.018152,0.008145 0.020748,0.008145 0.00295,0 0.0055,0.002088 0.00679,0.005539 0.00162,0.004347 0.00427,0.005873 0.012263,0.007096 0.00624,9.5236e-4 0.013449,0.004201 0.018569,0.008363 0.0046,0.003744 0.014415,0.009892 0.021796,0.0136638 0.00739,0.003771 0.014933,0.008098 0.016779,0.009613 0.00184,0.001514 0.0099,0.005635 0.017897,0.009152 0.00799,0.003519 0.016051,0.007721 0.017897,0.009342 0.00184,0.00162 0.00605,0.003627 0.00935,0.004467 0.00329,8.3689e-4 0.00772,0.00348 0.00985,0.005872 0.00211,0.002393 0.00526,0.004352 0.00697,0.004352 0.00526,0 0.021472,0.009296 0.031296,0.0179512 0.019861,0.0175007 0.044424,0.0321681 0.05387,0.0321681 0.00757,0 0.035986,0.0165959 0.048148,0.0281229 0.00926,0.008773 0.012778,0.0137522 0.012778,0.0180672 0,0.004496 0.003,0.008364 0.01219,0.015764 0.016634,0.0133837 0.025514,0.0193893 0.034997,0.0236733 0.00554,0.002501 0.010382,0.007569 0.015576,0.0162945 0.00609,0.0102451 0.00971,0.0136409 0.018899,0.0177807 0.00912,0.004105 0.025107,0.0190185 0.080866,0.075409 0.038227,0.0386606 0.080272,0.0831064 0.093432,0.0987686 0.013162,0.0156625 0.028402,0.033273 0.033867,0.0391351 0.00546,0.005862 0.00994,0.0125808 0.00994,0.0149305 0,0.00235 0.00365,0.007805 0.00811,0.012123 0.00447,0.004318 0.011539,0.0132329 0.015728,0.0198111 0.0042,0.006578 0.0085,0.0119603 0.00959,0.0119603 0.00109,0 0.00677,0.006921 0.012625,0.0153775 0.00586,0.008458 0.014002,0.0192247 0.018093,0.0239269 0.0041,0.004702 0.00744,0.009793 0.00744,0.0113106 0,0.001517 0.002,0.004847 0.00447,0.007396 0.00678,0.007044 0.016275,0.0193602 0.021265,0.0275774 0.00246,0.004051 0.00875,0.0130621 0.013982,0.020023 0.00523,0.006961 0.00952,0.0133721 0.00952,0.014247 0,8.7537e-4 0.0023,0.004764 0.00512,0.00864 0.011317,0.0155538 0.034762,0.0561707 0.044173,0.0765247 0.00376,0.00814 0.00924,0.017366 0.012143,0.020503 0.00537,0.0058 0.031349,0.053368 0.038029,0.069677 0.002,0.0049 0.00652,0.012003 0.010023,0.015762 0.0035,0.00375 0.00704,0.010117 0.00787,0.014128 8.292e-4,0.00401 0.00569,0.013751 0.010801,0.021642 0.00511,0.0079 0.014104,0.023832 0.019979,0.035422 0.00587,0.011589 0.015818,0.031067 0.022092,0.043286 0.00628,0.012217 0.013242,0.0258 0.015485,0.030186 0.00477,0.00936 0.025956,0.054485 0.034644,0.073836 0.021826,0.048615 0.067823,0.1915219 0.078161,0.2428263 0.00213,0.01065 0.00532,0.023499 0.00704,0.028552 0.00173,0.00504 0.00314,0.012354 0.00314,0.016219 0,0.00386 0.00206,0.013571 0.00459,0.021566 0.00253,0.00799 0.00707,0.024787 0.010118,0.037316 0.00676,0.027907 0.011748,0.046132 0.014545,0.053137 0.00116,0.00291 0.00155,0.00622 8.778e-4,0.00734 -6.828e-4,0.00113 0.00176,0.011041 0.00542,0.022042 0.00922,0.027653 0.016372,0.055006 0.015258,0.058273 -5.122e-4,0.00151 4.876e-4,0.00684 0.0022,0.011844 0.00173,0.00501 0.00456,0.017344 0.00631,0.027406 0.00174,0.01006 0.0047,0.022749 0.00659,0.028193 0.00188,0.00544 0.00342,0.014046 0.00342,0.019111 0,0.00505 0.00247,0.02006 0.00549,0.033315 0.00303,0.013258 0.00807,0.044096 0.011233,0.068529 0.00316,0.024433 0.00716,0.054676 0.00889,0.067205 0.00624,0.045139 0.01023,0.075679 0.013541,0.1036553 0.00537,0.045474 0.00806,0.059769 0.013037,0.069483 0.00303,0.0059 0.00478,0.01393 0.00501,0.022782 1.83e-4,0.00753 0.00305,0.022563 0.00634,0.033433 0.00367,0.012121 0.00543,0.02199 0.00457,0.025519 -7.804e-4,0.00318 1.828e-4,0.010653 0.00213,0.016686 0.00195,0.00601 0.004,0.016568 0.0045,0.023461 5.121e-4,0.0069 0.00162,0.015305 0.00246,0.018698 8.413e-4,0.00339 0.00185,0.013645 0.00225,0.022782 4.024e-4,0.00914 0.00196,0.032291 0.00346,0.051451 0.00213,0.027415 0.00213,0.035945 0,0.040034 -0.00179,0.00341 -0.00209,0.00769 -8.9e-4,0.012455 0.00365,0.014339 -0.00329,0.1032984 -0.012024,0.1541567 -0.00302,0.017542 -0.00632,0.038558 -0.00733,0.046703 -0.00298,0.023747 -0.011355,0.052397 -0.015324,0.052397 -0.0019,0 -0.00774,0.020316 -0.010478,0.036449 -7.437e-4,0.00439 -0.00276,0.014124 -0.00448,0.021642 -0.00172,0.00753 -0.00423,0.022114 -0.00558,0.032438 -0.00136,0.010322 -0.00383,0.022136 -0.00552,0.026253 -0.00308,0.00748 -0.00877,0.044825 -0.012425,0.081415 -0.00107,0.010649 -0.00296,0.022952 -0.0042,0.027338 -0.00125,0.00439 -0.00379,0.021301 -0.00568,0.037589 -0.00187,0.016289 -0.0055,0.043455 -0.00807,0.06037 -0.00257,0.016915 -0.00556,0.036906 -0.00666,0.044423 -0.013813,0.094908 -0.029183,0.160609 -0.037568,0.160609 -9.269e-4,0 -0.0013,0.00415 -8.171e-4,0.00921 6.463e-4,0.00685 -8.656e-4,0.012826 -0.00588,0.02335 -0.00371,0.00777 -0.00957,0.021325 -0.013014,0.030096 -0.010778,0.027396 -0.039013,0.081945 -0.062938,0.1215851 -0.00179,0.00298 -0.00522,0.00592 -0.00762,0.00656 -0.00412,0.0011 -0.00822,0.00664 -0.029803,0.040253 -0.00489,0.00763 -0.011213,0.015743 -0.014045,0.018055 -0.00283,0.0023 -0.00728,0.00847 -0.00986,0.013669 -0.00259,0.0052 -0.00785,0.013204 -0.011683,0.01777 -0.00383,0.00458 -0.00926,0.011744 -0.012046,0.015946 -0.00279,0.00422 -0.00858,0.012769 -0.012878,0.019034 -0.00431,0.00627 -0.00902,0.013953 -0.010491,0.017087 -0.00686,0.014544 -0.021214,0.037441 -0.030182,0.048142 -0.00543,0.00648 -0.012231,0.016499 -0.015105,0.02226 -0.00288,0.00577 -0.014895,0.027329 -0.02671,0.047928 -0.011816,0.020599 -0.021483,0.038443 -0.021483,0.039653 0,0.0012 -0.00245,0.00546 -0.00544,0.00947 -0.003,0.00399 -0.00852,0.013745 -0.01229,0.021662 -0.00376,0.00792 -0.00825,0.016022 -0.00997,0.018009 -0.00172,0.00198 -0.00616,0.00977 -0.00988,0.017281 -0.00372,0.00753 -0.010416,0.017769 -0.014888,0.022781 -0.00448,0.00501 -0.011735,0.016802 -0.016144,0.0262 -0.00442,0.0094 -0.01191,0.021834 -0.016669,0.027638 -0.00916,0.011164 -0.021179,0.037606 -0.024479,0.053839 -0.00109,0.00534 -0.00316,0.012006 -0.00459,0.014808 -0.00328,0.00638 -0.032293,0.047347 -0.04958,0.07002 -0.00717,0.0094 -0.018531,0.024774 -0.025259,0.034171 -0.00673,0.0094 -0.018693,0.025288 -0.026587,0.035311 -0.0079,0.010023 -0.019127,0.025402 -0.024963,0.034171 -0.00583,0.00876 -0.013557,0.01944 -0.017161,0.023711 -0.00588,0.00698 -0.00641,0.00885 -0.00514,0.018519 l 0.00141,0.010756 -0.016107,0.017931 c -0.030309,0.033744 -0.05222,0.05597 -0.081289,0.08246 -0.015995,0.014576 -0.037147,0.034212 -0.047005,0.043636 -0.043233,0.041332 -0.086289,0.080648 -0.095647,0.087339 -0.00559,0.00399 -0.022471,0.018018 -0.037539,0.031172 -0.02482,0.021671 -0.065433,0.055662 -0.080227,0.067147 -0.00319,0.00248 -0.015257,0.012213 -0.026823,0.021642 -0.022435,0.018292 -0.039724,0.031299 -0.068454,0.051493 -0.00984,0.00693 -0.023936,0.017179 -0.031319,0.022801 -0.024016,0.018284 -0.1073602,0.073881 -0.1331059,0.08879 -0.010459,0.00605 -0.023042,0.013958 -0.027963,0.017561 -0.018067,0.013223 -0.052012,0.034564 -0.072704,0.045712 -0.074897,0.040346 -0.1080861,0.058686 -0.1141188,0.063053 -0.00723,0.00523 -0.087949,0.046323 -0.118537,0.06034 -0.040015,0.018338 -0.061202,0.027747 -0.069349,0.030796 -0.00432,0.00161 -0.012864,0.00578 -0.019015,0.00926 -0.00615,0.00346 -0.021252,0.00988 -0.033556,0.014242 -0.012303,0.00437 -0.034955,0.012747 -0.050335,0.018639 -0.082425,0.031583 -0.180763,0.062766 -0.2158776,0.068452 -0.00984,0.00159 -0.020626,0.00397 -0.023962,0.00528 -0.015542,0.00609 -0.082301,0.018757 -0.1582931,0.030005 -0.016574,0.00246 -0.031738,0.00497 -0.033697,0.00561 -0.00396,0.00128 -0.029,0.00392 -0.086051,0.00909 -0.020917,0.00189 -0.040546,0.00391 -0.043623,0.0045 -0.00309,5.835e-4 -0.010123,0.00162 -0.01566,0.0023 -0.00553,6.953e-4 -0.013591,0.00175 -0.017897,0.00234 -0.014028,0.00196 -0.1056824,0.00994 -0.1286315,0.011203 -0.035705,0.00197 -0.122972,0.004 -0.1241765,0.00289 z m 0.080552,-0.20191 c 0.021532,-0.00122 0.060289,-0.00382 0.086127,-0.00579 0.025839,-0.00196 0.060065,-0.00399 0.07606,-0.00451 0.046248,-0.00149 0.1604934,-0.016388 0.2192331,-0.02859 0.038781,-0.00805 0.1173849,-0.026579 0.1245003,-0.029335 0.00326,-0.00127 0.011821,-0.00339 0.019015,-0.00472 0.0072,-0.00134 0.039254,-0.011762 0.071244,-0.023171 0.031989,-0.011411 0.069238,-0.024671 0.082771,-0.029472 0.013533,-0.00479 0.032662,-0.011978 0.042506,-0.015953 0.00984,-0.00397 0.025081,-0.00946 0.033862,-0.012173 0.00878,-0.00273 0.017338,-0.00607 0.019016,-0.00745 0.00491,-0.00403 0.023328,-0.012971 0.0553,-0.026847 0.040498,-0.017578 0.1412069,-0.06779 0.1714569,-0.08549 0.013534,-0.00792 0.030145,-0.017647 0.036911,-0.021619 0.011515,-0.00676 0.04649,-0.028341 0.1152093,-0.071097 0.015995,-0.00995 0.036631,-0.023052 0.04586,-0.029112 0.00924,-0.00605 0.020805,-0.013587 0.025727,-0.016727 0.00492,-0.00314 0.015894,-0.010938 0.024386,-0.017328 0.00848,-0.00639 0.020216,-0.014694 0.026058,-0.018453 0.00584,-0.00375 0.020935,-0.015035 0.033541,-0.02506 0.012606,-0.010023 0.033598,-0.026458 0.046646,-0.036518 0.013049,-0.010059 0.030028,-0.023388 0.03773,-0.029614 0.0077,-0.00623 0.022429,-0.017987 0.032729,-0.026133 0.07696,-0.060859 0.099833,-0.079171 0.1078482,-0.086339 0.00504,-0.00452 0.014103,-0.012137 0.020134,-0.016946 0.039994,-0.031896 0.1816121,-0.1705897 0.2002693,-0.1961336 0.0036,-0.00492 0.016837,-0.020386 0.02942,-0.034355 0.048779,-0.054149 0.092571,-0.1093621 0.1271246,-0.1602817 0.00541,-0.00797 0.012601,-0.018232 0.015971,-0.022782 0.00649,-0.00876 0.021378,-0.030746 0.025169,-0.03716 0.00125,-0.0021 0.00726,-0.011331 0.01336,-0.020504 0.01238,-0.018602 0.033768,-0.053975 0.051405,-0.085023 0.0064,-0.011279 0.016214,-0.028192 0.021792,-0.037589 0.00559,-0.0094 0.015925,-0.027174 0.02299,-0.039503 0.011463,-0.020007 0.022112,-0.037564 0.055296,-0.09117 0.00532,-0.00859 0.017848,-0.028125 0.027841,-0.043399 0.00999,-0.015275 0.019938,-0.03131 0.022102,-0.035631 0.00215,-0.00434 0.0092,-0.016059 0.015612,-0.026082 0.012213,-0.019059 0.020156,-0.032529 0.028211,-0.047841 0.00264,-0.00501 0.00604,-0.010651 0.00759,-0.01253 0.00153,-0.00187 0.010891,-0.019307 0.020795,-0.038729 0.028988,-0.056838 0.049305,-0.1244667 0.060914,-0.2027546 0.0014,-0.0094 0.00454,-0.026826 0.00699,-0.038729 0.00611,-0.029708 0.013205,-0.074527 0.015633,-0.098798 0.00112,-0.01111 0.00395,-0.028026 0.00632,-0.037589 0.00236,-0.00957 0.00495,-0.022513 0.00577,-0.028779 8.048e-4,-0.00627 0.00331,-0.022155 0.00555,-0.035311 0.00224,-0.013156 0.00532,-0.033147 0.00683,-0.044424 0.00151,-0.011278 0.00413,-0.027679 0.00582,-0.03645 0.0017,-0.00876 0.00502,-0.027735 0.00737,-0.042146 0.00235,-0.014409 0.00581,-0.033487 0.00769,-0.042396 0.00187,-0.00892 0.00552,-0.033 0.0081,-0.053537 0.00258,-0.020538 0.0052,-0.03948 0.00584,-0.042095 0.00196,-0.00812 0.00513,-0.047378 0.00896,-0.1114296 0.00373,-0.06226 0.0032,-0.081662 -0.00357,-0.1332712 -0.00108,-0.00814 -0.00249,-0.026085 -0.00316,-0.039867 -6.706e-4,-0.013782 -0.00234,-0.033773 -0.00373,-0.044424 -0.00139,-0.01065 -0.00281,-0.026029 -0.00317,-0.034172 -3.536e-4,-0.00814 -0.00233,-0.029673 -0.0044,-0.047841 -0.00352,-0.031103 -0.00678,-0.065685 -0.00912,-0.096821 -0.00167,-0.022218 -0.00568,-0.058297 -0.00796,-0.071763 -0.00191,-0.011285 -0.00474,-0.033323 -0.011243,-0.087668 -0.0012,-0.010002 -0.00356,-0.024355 -0.00526,-0.031894 -0.0017,-0.00755 -0.00377,-0.019861 -0.0046,-0.027378 -0.00409,-0.036637 -0.017506,-0.107694 -0.038088,-0.2016155 -0.00179,-0.00814 -0.00469,-0.021471 -0.00646,-0.029614 -0.00177,-0.00814 -0.00573,-0.026085 -0.0088,-0.039869 -0.00308,-0.013782 -0.00772,-0.035311 -0.010338,-0.047841 -0.012314,-0.058972 -0.017209,-0.075407 -0.028998,-0.097373 -0.0052,-0.00971 -0.012654,-0.020272 -0.016551,-0.023493 -0.00662,-0.00546 -0.00681,-0.00603 -0.00298,-0.00856 0.011908,-0.00785 0.011748,-0.00568 0.00251,-0.033673 -0.00471,-0.014293 -0.00988,-0.028096 -0.011486,-0.030675 -0.0016,-0.00258 -0.00686,-0.014369 -0.011684,-0.026199 -0.016849,-0.041337 -0.024944,-0.05969 -0.028944,-0.065638 -0.00629,-0.00934 -0.021882,-0.041456 -0.02504,-0.051556 -0.00329,-0.010537 -0.00759,-0.01813 -0.014846,-0.026284 -0.00283,-0.00318 -0.00777,-0.012407 -0.010987,-0.020504 -0.00321,-0.00809 -0.00812,-0.017802 -0.010918,-0.021567 -0.00279,-0.00376 -0.00863,-0.014018 -0.01299,-0.022783 -0.00817,-0.016463 -0.034868,-0.062011 -0.054305,-0.092665 -0.0061,-0.00963 -0.017137,-0.027281 -0.024518,-0.039239 -0.038452,-0.062286 -0.06872,-0.10689506 -0.090166,-0.13288819 -0.00775,-0.009404 -0.01996,-0.0259433 -0.027115,-0.0367561 -0.011902,-0.0179858 -0.022934,-0.0300718 -0.04531,-0.0496325 -0.00453,-0.003954 -0.010801,-0.0113436 -0.013946,-0.0164185 -0.00315,-0.005075 -0.00763,-0.0102746 -0.00999,-0.0115551 -0.00234,-0.001281 -0.00537,-0.005571 -0.00674,-0.009535 -0.00288,-0.008399 -0.045192,-0.0531767 -0.055049,-0.0582508 -0.00986,-0.005077 -0.038947,-0.034816 -0.042595,-0.0435538 -0.00402,-0.009595 -0.026658,-0.0337952 -0.046888,-0.0500911 -0.00861,-0.006939 -0.020693,-0.0176018 -0.026845,-0.0236972 -0.017436,-0.0172748 -0.035344,-0.0339191 -0.04844,-0.0450235 -0.0066,-0.005591 -0.015507,-0.0145379 -0.019806,-0.0198821 -0.00431,-0.005344 -0.015868,-0.0155475 -0.025713,-0.0226738 -0.00984,-0.007126 -0.023742,-0.0184262 -0.030886,-0.0251112 -0.00714,-0.006684 -0.014191,-0.0121589 -0.01566,-0.0121643 -0.00147,-4.48e-6 -0.00786,-0.004021 -0.014213,-0.008923 -0.015885,-0.0122649 -0.019986,-0.014233 -0.033037,-0.0158553 -0.01037,-0.001289 -0.011698,-0.002147 -0.015463,-0.009996 -0.00494,-0.0103059 -0.012168,-0.0161619 -0.037278,-0.0302196 -0.010453,-0.005852 -0.021031,-0.0125365 -0.023508,-0.0148547 -0.00248,-0.002318 -0.00851,-0.005891 -0.013423,-0.007941 -0.0049,-0.002049 -0.012943,-0.007662 -0.017866,-0.0124763 -0.0052,-0.005086 -0.021598,-0.0151831 -0.039149,-0.0241087 -0.016611,-0.008447 -0.032214,-0.0171614 -0.034675,-0.0193657 -0.00246,-0.002204 -0.014541,-0.008244 -0.026845,-0.0134238 -0.022627,-0.009524 -0.025123,-0.0107552 -0.049216,-0.0242757 -0.00739,-0.004143 -0.014757,-0.007556 -0.016388,-0.007584 -0.00163,-2.582e-5 -0.013075,-0.005177 -0.025431,-0.0114424 -0.012357,-0.006265 -0.024108,-0.0114343 -0.026115,-0.0114874 -0.002,-5.166e-5 -0.010697,-0.002682 -0.01931,-0.005843 -0.00861,-0.003162 -0.0215,-0.007718 -0.02864,-0.0101289 -0.00713,-0.002411 -0.017205,-0.006893 -0.022371,-0.00996 -0.00516,-0.003068 -0.016796,-0.007656 -0.025847,-0.0101996 -0.00905,-0.002543 -0.017608,-0.005569 -0.019016,-0.006728 -0.00351,-0.00289 -0.043882,-0.0158485 -0.055018,-0.0176618 -0.00498,-8.1081e-4 -0.00906,-0.00228 -0.00906,-0.003263 0,-9.8372e-4 -0.00731,-0.00458 -0.016219,-0.007994 -0.00893,-0.003413 -0.018233,-0.008018 -0.020693,-0.0102314 -0.00432,-0.003877 -0.034413,-0.0151751 -0.054393,-0.0204133 -0.00981,-0.002573 -0.028839,-0.005324 -0.063055,-0.009117 -0.010458,-0.001159 -0.024552,-0.004082 -0.031319,-0.006493 -0.00677,-0.002412 -0.021363,-0.005071 -0.032436,-0.005911 -0.011073,-8.3937e-4 -0.024664,-0.002938 -0.0302,-0.004662 -0.00913,-0.002844 -0.040155,-0.006277 -0.057045,-0.00631 -0.00369,-6.81e-6 -0.016881,-9.1946e-4 -0.029314,-0.002028 -0.012431,-0.001108 -0.039879,-0.002138 -0.060996,-0.00229 -0.032755,-2.3593e-4 -0.038991,2.7465e-4 -0.042462,0.003473 -0.00345,0.003191 -0.0052,0.003337 -0.011709,9.8469e-4 -0.010997,-0.00398 -0.1425033,-0.003043 -0.202265,0.001442 -0.00739,5.5364e-4 -0.019966,0.001445 -0.027963,0.001979 -0.022846,0.001526 -0.058945,0.005575 -0.062637,0.007026 -0.00184,7.239e-4 -0.015623,0.002301 -0.030617,0.003505 -0.014993,0.001203 -0.031101,0.003239 -0.035792,0.004525 -0.00469,0.001286 -0.021115,0.005427 -0.036497,0.009204 -0.025047,0.006149 -0.040284,0.009352 -0.077179,0.0162218 -0.012694,0.002364 -0.039862,0.0117138 -0.044136,0.0151902 -0.00686,0.005573 -0.017806,0.009714 -0.02566,0.009699 -0.00978,-1.722e-5 -0.04303,0.0154229 -0.043119,0.0200202 -6.78e-5,0.003734 -0.00168,0.004269 -0.025152,0.008361 -0.010727,0.00187 -0.021297,0.004316 -0.02349,0.005436 -0.00218,0.001121 -0.00701,0.003086 -0.010699,0.004369 -0.00369,0.001283 -0.022819,0.009196 -0.042506,0.0175853 -0.019686,0.00839 -0.042337,0.0176268 -0.050335,0.020527 -0.016094,0.005835 -0.024425,0.009291 -0.049216,0.0204085 -0.00924,0.004139 -0.024832,0.0109169 -0.034675,0.0150634 -0.00984,0.004147 -0.020742,0.009915 -0.02422,0.012819 -0.00347,0.002905 -0.00781,0.00528 -0.00963,0.00528 -0.00182,0 -0.015587,0.005502 -0.030588,0.0122258 -0.015,0.006725 -0.031302,0.0135017 -0.036223,0.0150607 -0.00492,0.00156 -0.013154,0.005284 -0.018295,0.008277 -0.00513,0.002994 -0.010508,0.005442 -0.01193,0.005442 -0.00143,0 -0.00947,0.003073 -0.017869,0.006833 -0.0084,0.003757 -0.021663,0.00844 -0.029456,0.0104057 -0.00779,0.001966 -0.026755,0.007516 -0.042134,0.0123335 -0.01538,0.004818 -0.031487,0.009365 -0.035793,0.0101037 -0.00432,7.3879e-4 -0.01538,0.004483 -0.024607,0.00832 -0.00924,0.003838 -0.022314,0.008399 -0.029081,0.0101384 -0.041049,0.0105483 -0.094415,0.0255002 -0.1185649,0.0332193 -0.027816,0.00889 -0.045315,0.0111923 -0.048256,0.006346 -0.00148,-0.002438 -0.012267,-0.001955 -0.038459,0.001725 -0.00798,0.001121 -0.00932,7.686e-4 -0.00822,-0.002162 7.316e-4,-0.001927 0.00546,-0.00519 0.010526,-0.007255 0.00505,-0.002063 0.011849,-0.005668 0.015079,-0.00801 0.00706,-0.005122 0.02567,-0.0116578 0.05143,-0.018065 0.031571,-0.007853 0.1053748,-0.0320915 0.1286316,-0.0422463 0.012199,-0.005327 0.028505,-0.0131869 0.07777,-0.0374908 0.023086,-0.0113893 0.048492,-0.0232058 0.056458,-0.026259 0.017821,-0.006831 0.031509,-0.0148649 0.040386,-0.0237026 0.00669,-0.006663 0.019954,-0.014939 0.043342,-0.0270456 0.00668,-0.003458 0.015991,-0.009972 0.020693,-0.014477 0.00748,-0.007156 0.00854,-0.009495 0.00854,-0.0185289 0,-0.007979 -9.023e-4,-0.0105796 -0.00398,-0.0113944 -0.00618,-0.001644 -0.1233433,0.0123923 -0.1280308,0.0153382 -6.218e-4,3.8864e-4 -0.026793,0.004967 -0.058164,0.0101728 -0.03137,0.005206 -0.077675,0.0134678 -0.1028974,0.0183601 -0.025223,0.004892 -0.050893,0.009334 -0.057045,0.009868 -0.00615,5.3516e-4 -0.019239,0.003138 -0.029082,0.005788 -0.010037,0.0027 -0.028021,0.005284 -0.04095,0.005883 -0.01268,5.8854e-4 -0.023937,0.001625 -0.025018,0.002304 -0.00234,0.001478 -0.018647,0.004997 -0.036347,0.007847 -0.00706,0.001135 -0.01577,0.004196 -0.01936,0.0068 -0.00359,0.002604 -0.00781,0.004734 -0.00939,0.004734 -0.00157,0 -0.00696,0.001946 -0.011959,0.004325 -0.00832,0.003959 -0.064809,0.0233639 -0.080682,0.0277177 -0.00369,0.001012 -0.015219,0.004982 -0.025618,0.00882 -0.010399,0.003839 -0.020988,0.006979 -0.023529,0.006979 -0.00254,0 -0.00814,0.002437 -0.012451,0.005418 -0.00432,0.002978 -0.021881,0.0102236 -0.039058,0.016097 -0.017174,0.005873 -0.032287,0.0115741 -0.033581,0.0126682 -0.0013,0.001093 -0.011385,0.005304 -0.022422,0.009355 -0.011039,0.004051 -0.024838,0.0106897 -0.030668,0.014752 -0.00583,0.004062 -0.017149,0.009606 -0.025157,0.0123201 -0.008,0.002713 -0.023312,0.0100633 -0.034011,0.0163328 -0.0107,0.006269 -0.026558,0.0150322 -0.035243,0.0194728 -0.00867,0.004441 -0.019315,0.0108664 -0.023621,0.0142792 -0.00432,0.003413 -0.010491,0.007639 -0.013746,0.009392 -0.00325,0.001752 -0.01936,0.0131109 -0.035792,0.0252422 -0.016433,0.0121311 -0.035225,0.025971 -0.041762,0.030755 -0.027842,0.020378 -0.08406,0.0689408 -0.130063,0.11235364 -0.019251,0.0181682 -0.040491,0.0381834 -0.047196,0.0444786 -0.032318,0.0303381 -0.077891,0.0856207 -0.11733498,0.14233348 -0.006153,0.008845 -0.013702,0.0195891 -0.016778,0.0238752 -0.003075,0.004286 -0.0124235,0.0188632 -0.0207724,0.0323936 -0.008349,0.0135305 -0.0234493,0.0377211 -0.0335561,0.0537569 -0.0356398,0.056547 -0.0419057,0.066685 -0.0513473,0.083083 -0.005244,0.00911 -0.0161529,0.027559 -0.0242435,0.041006 -0.00809,0.013447 -0.0177578,0.030088 -0.0214832,0.03698 -0.003725,0.0069 -0.00904,0.016118 -0.0118102,0.020504 -0.005606,0.00887 -0.0386471,0.067492 -0.046548,0.082585 -0.002788,0.00532 -0.008451,0.015319 -0.0125858,0.022209 -0.004135,0.0069 -0.0104888,0.01868 -0.0141205,0.026199 -0.005947,0.012312 -0.0250005,0.047379 -0.0476539,0.087708 -0.0114235,0.020337 -0.0124208,0.02205 -0.050015,0.085907 -0.0428273,0.072746 -0.0458557,0.078011 -0.0573751,0.099762 -0.005309,0.010023 -0.0116315,0.021132 -0.0140505,0.024684 -0.008027,0.011786 -0.0707567,0.1366032 -0.0811159,0.1614001 -0.002974,0.00712 -0.012873,0.028648 -0.021997,0.047841 -0.0227197,0.047792 -0.0357224,0.077631 -0.0463214,0.1062989 -0.004938,0.013354 -0.0112915,0.029405 -0.0141214,0.03567 -0.014532,0.032173 -0.0320028,0.1295442 -0.0371967,0.2073108 -0.001171,0.017541 -0.003103,0.044196 -0.004291,0.059232 -0.001188,0.015035 -0.003221,0.046815 -0.004517,0.070622 -0.001296,0.023806 -0.002756,0.049437 -0.003244,0.056952 -4.8771e-4,0.00753 -0.001534,0.028021 -0.002323,0.045562 -7.8886e-4,0.017541 -0.00299,0.052909 -0.004891,0.078596 -0.004218,0.056993 -0.002604,0.1267467 0.003663,0.1583311 0.002238,0.011277 0.005271,0.028703 0.006739,0.038729 0.001469,0.010023 0.004567,0.028989 0.006885,0.042146 0.002319,0.013155 0.006245,0.039811 0.008728,0.059232 0.002484,0.019421 0.005494,0.039411 0.00669,0.044424 0.001198,0.00501 0.002201,0.013506 0.002231,0.018878 2.537e-5,0.00536 0.002036,0.018184 0.00446,0.028477 0.002423,0.010292 0.006511,0.029476 0.009082,0.042633 0.018404,0.094143 0.0333675,0.1644159 0.0434157,0.2038937 0.004465,0.017541 0.008978,0.037533 0.0100291,0.044424 0.001863,0.01221 0.005019,0.026611 0.0134808,0.06151 0.008202,0.033823 0.0135301,0.058545 0.018168,0.08429 0.002595,0.014409 0.007609,0.0385 0.0111387,0.053537 0.003529,0.015035 0.008483,0.038615 0.0110057,0.052397 0.005215,0.028499 0.009537,0.048816 0.0210755,0.099099 0.0108425,0.04725 0.0116796,0.050506 0.0322121,0.1252977 0.0326931,0.1190882 0.0356863,0.1284634 0.0621891,0.1947812 0.0133487,0.033403 0.047478,0.1097372 0.0524562,0.1173243 0.001233,0.00187 0.005696,0.010455 0.009915,0.019055 0.00422,0.0086 0.00912,0.017316 0.010889,0.019365 0.001769,0.00204 0.005745,0.00884 0.008838,0.015117 0.003092,0.00627 0.009737,0.018056 0.0147672,0.0262 0.00503,0.00814 0.0107743,0.017883 0.0127658,0.021642 0.001991,0.00375 0.0111234,0.018624 0.0202934,0.033032 0.009171,0.01441 0.0241756,0.038501 0.0333465,0.053537 0.0174871,0.02867 0.022944,0.036831 0.049966,0.074727 0.0161241,0.022612 0.035202,0.046463 0.0650247,0.081296 0.0177589,0.020741 0.10755253,0.1142589 0.11907672,0.1240149 0.004556,0.00385 0.0146214,0.012492 0.0223708,0.019196 0.007749,0.00669 0.0220189,0.019004 0.0317101,0.027338 0.00969,0.00832 0.02236,0.019254 0.028154,0.024264 0.028024,0.024245 0.0728,0.059823 0.08314,0.066066 0.015164,0.00916 0.018923,0.011564 0.028799,0.018454 0.010735,0.00749 0.032867,0.020787 0.054808,0.032932 0.00739,0.0041 0.017631,0.010344 0.022774,0.013903 0.00514,0.00356 0.010524,0.00647 0.011959,0.00647 0.00145,0 0.020191,0.00874 0.041681,0.019443 0.021491,0.010694 0.046582,0.022482 0.05576,0.026195 0.00918,0.00372 0.023842,0.010419 0.032591,0.014906 0.00875,0.00449 0.024809,0.012091 0.035692,0.016896 0.010883,0.0048 0.02258,0.010743 0.025993,0.013191 0.011354,0.00814 0.1101086,0.04967 0.1527339,0.064224 0.00677,0.0023 0.02539,0.00897 0.041386,0.014786 0.015995,0.00583 0.037639,0.013236 0.048096,0.016478 0.010459,0.00325 0.027068,0.00898 0.036912,0.012742 0.020309,0.00776 0.045835,0.016286 0.06334,0.021129 0.00654,0.0018 0.018619,0.00621 0.026845,0.00976 0.00823,0.00356 0.020492,0.00773 0.027261,0.00929 0.00677,0.00156 0.024888,0.00678 0.040267,0.011613 0.047678,0.014994 0.065389,0.020103 0.082771,0.023881 0.00924,0.002 0.025335,0.0056 0.035792,0.008 0.010459,0.00239 0.030089,0.00651 0.043623,0.00914 0.013534,0.00263 0.035177,0.00723 0.048096,0.010244 0.012918,0.00302 0.030535,0.00653 0.039149,0.00782 0.00861,0.0013 0.024719,0.00438 0.035792,0.00684 0.011075,0.00247 0.032717,0.00655 0.048096,0.00909 0.01538,0.00253 0.036521,0.00605 0.046979,0.00783 0.010457,0.00178 0.032604,0.00491 0.049215,0.00697 0.016611,0.00205 0.03624,0.00467 0.043623,0.00583 0.00739,0.00114 0.028021,0.00326 0.04586,0.00471 0.01784,0.00146 0.032926,0.0031 0.033528,0.00369 0.00165,0.0016 0.13885,-0.00113 0.1834682,-0.00365 z"
     id="path17"
     inkscape:connector-curvature="0"
     sodipodi:nodetypes="cccccsccccccccccsccccccccccccccccccccccscccscccccccccccccccccccccccccscsccccsccccccccscccccccscccccssscscscccccccscccccscccccccccccccccccccccccccccccccccccccccccccccccccccccssccccccccscccccccccscscscccccccsscsccscccscccccccccccccsccccccccsscccccccccccccccccscccccccccscccccccccccccccsccccccccccccccccccccccccccccccccccccccccccccccccccccscccscccccccscccccccccccccccccccccccccccscccscccccccccccccccccccccccccccccccccccccccccccccccccccccccccccccccccsccccscccccccccccccccccccccccccscccscccccccccccccccccccsccccccccccscccsccccccccccccccccccccccccccccccccccccccccsccccsccccccccscccccccccccccccccccscccccccccccccccscccccccsccc" />
</svg>
