<?xml version="1.0" encoding="UTF-8" standalone="no"?>
<svg
   xmlns:dc="http://purl.org/dc/elements/1.1/"
   xmlns:cc="http://creativecommons.org/ns#"
   xmlns:rdf="http://www.w3.org/1999/02/22-rdf-syntax-ns#"
   xmlns:svg="http://www.w3.org/2000/svg"
   xmlns="http://www.w3.org/2000/svg"
   xmlns:sodipodi="http://sodipodi.sourceforge.net/DTD/sodipodi-0.dtd"
   xmlns:inkscape="http://www.inkscape.org/namespaces/inkscape"
   width="20"
   height="20"
   version="1.1"
   viewBox="0 0 5.2917 5.2917"
   id="svg6"
   sodipodi:docname="上.svg"
   inkscape:version="0.92.4 (5da689c313, 2019-01-14)">
  <metadata
     id="metadata12">
    <rdf:RDF>
      <cc:Work
         rdf:about="">
        <dc:format>image/svg+xml</dc:format>
        <dc:type
           rdf:resource="http://purl.org/dc/dcmitype/StillImage" />
        <dc:title></dc:title>
      </cc:Work>
    </rdf:RDF>
  </metadata>
  <defs
     id="defs10" />
  <sodipodi:namedview
     pagecolor="#ffffff"
     bordercolor="#666666"
     borderopacity="1"
     objecttolerance="10"
     gridtolerance="10"
     guidetolerance="10"
     inkscape:pageopacity="0"
     inkscape:pageshadow="2"
     inkscape:window-width="1916"
     inkscape:window-height="2020"
     id="namedview8"
     showgrid="false"
     inkscape:zoom="47.2"
     inkscape:cx="11.706096"
     inkscape:cy="8.3891638"
     inkscape:window-x="-11"
     inkscape:window-y="0"
     inkscape:window-maximized="0"
     inkscape:current-layer="svg6" />
  <path
     style="fill:#000000;stroke-width:0.00292619"
     d="m 1.0917847,5.0464605 c -5.675e-4,-6.133e-4 -0.00857,-9.643e-4 -0.017845,-7.881e-4 -0.014788,3.883e-4 -0.017441,-4.822e-4 -0.022319,-0.0072 -0.00309,-0.00424 -0.0075,-0.00759 -0.00987,-0.00759 -0.00238,0 -0.00976,-0.00617 -0.016477,-0.013642 -0.00952,-0.010667 -0.014217,-0.013654 -0.021331,-0.013693 -0.004997,-3.48e-5 -0.009161,-0.00155 -0.009161,-0.00321 0,-0.00218 -0.001666,-0.00218 -0.005473,0 -0.004283,0.00245 -0.007138,0.00155 -0.0137767,-0.00449 -0.005711,-0.00514 -0.011778,-0.00759 -0.0189757,-0.00759 -0.00583,0 -0.009756,-8.756e-4 -0.008804,-0.00192 0.001014,-0.00109 -0.001547,-0.00386 -0.005592,-0.00617 -0.006067,-0.00334 -0.007971,-0.00347 -0.009874,-3.112e-4 -0.001904,0.00309 -0.003212,0.00283 -0.005948,-0.00114 -0.002022,-0.00271 -0.006662,-0.00553 -0.0104694,-0.00604 -0.003807,-5.259e-4 -0.0069,-0.00245 -0.007019,-0.00412 -7.257e-5,-0.00669 -0.005116,-0.011057 -0.0107073,-0.00951 -0.003331,9.207e-4 -0.008923,8.756e-4 -0.0125394,-7.71e-5 -0.005949,-0.00167 -0.006424,-0.00296 -0.004759,-0.013577 0.00119,-0.00771 7.6974e-4,-0.011829 -0.00119,-0.011829 -0.001666,0 -0.003093,0.00141 -0.003093,0.00309 0,0.00167 -0.001054,0.00309 -0.00226,0.00309 -0.003569,0 -0.011778,-0.020521 -0.011778,-0.029225 0,-0.010026 -0.006186,-0.016483 -0.0137053,-0.014349 -0.004283,0.00118 -0.005948,3.111e-4 -0.005948,-0.00309 0,-0.00617 -0.0101124,-0.012472 -0.0127298,-0.00797 -0.002141,0.00386 -0.0121349,8.32e-4 -0.0178098,-0.00528 -0.003331,-0.0036 -0.004521,-0.00373 -0.006662,-3.884e-4 -0.002022,0.00321 -0.002974,0.00321 -0.004045,2.327e-4 -7.7092e-4,-0.00205 -0.002617,-0.00386 -0.004164,-0.00386 -0.001547,0 -0.002022,0.00128 -0.001175,0.00271 8.5064e-4,0.00155 -0.003212,3.112e-4 -0.008923,-0.00257 -0.0116591,-0.00592 -0.0332283,-0.00785 -0.035917,-0.00321 -0.002974,0.00514 -0.007019,0.00334 -0.007019,-0.00309 0,-0.00334 -0.00119,-0.00604 -0.002736,-0.00604 -0.001547,0 -0.002022,0.00192 -0.00119,0.00424 8.1018e-4,0.00231 1.4395e-4,0.00514 -0.001547,0.0063 -0.001666,0.00109 -0.002974,5.247e-4 -0.002974,-0.00122 0,-0.00181 -0.001904,-0.00321 -0.004164,-0.00321 -0.00226,0 -0.004164,0.00205 -0.004164,0.00463 0,0.00617 -0.014086,0.00257 -0.0189281,-0.00476 -0.001904,-0.00283 -0.006662,-0.00617 -0.0107073,-0.0072 -0.003926,-0.00105 -0.006424,-0.00334 -0.005473,-0.00488 9.3153e-4,-0.00167 3.5929e-4,-0.00296 -0.001309,-0.00296 -0.001666,0 -0.002974,-0.00271 -0.002974,-0.00604 0,-0.00412 -0.001309,-0.0054 -0.004283,-0.00424 -0.0271251,0.00951 -0.0308489,-0.016741 -0.0380941,-0.017165 -0.006067,0 -0.009756,-0.00502 -0.004997,-0.00681 0.002141,-7.882e-4 0.001175,-0.0036 -0.002736,-0.00785 -0.00345,-0.00373 -0.006186,-0.009 -0.006186,-0.0117 0,-0.00707 -0.008209,-0.016137 -0.0127893,-0.01422 -0.00464,0.00192 -0.0209982,-0.00811 -0.0209982,-0.01291 0,-0.00205 -0.006186,-0.00412 -0.0146571,-0.00502 -0.00809,-8.319e-4 -0.0150854,-0.00296 -0.0156207,-0.00463 -4.8658e-4,-0.00167 -0.003331,-0.00245 -0.006186,-0.00167 -0.002855,7.882e-4 -0.006067,-3.47e-5 -0.007019,-0.00181 -0.001054,-0.00181 -0.00464,-0.00334 -0.00809,-0.00334 -0.004402,-3.47e-5 -0.005116,-7.895e-4 -0.002379,-0.00257 0.002974,-0.00205 0.002736,-0.00296 -9.7318e-4,-0.00449 -0.002617,-0.00105 -0.005948,-0.00118 -0.007376,-2.328e-4 -0.001428,9.644e-4 -0.00226,-5.78e-5 -0.001904,-0.00231 4.8658e-4,-0.00271 -0.001904,-0.00386 -0.007614,-0.00334 -0.005473,4.821e-4 -0.007138,-2.329e-4 -0.00464,-0.00192 0.002736,-0.00181 7.139e-5,-0.00476 -0.009518,-0.010548 -0.0151806,-0.00913 -0.0281245,-0.010284 -0.0355363,-0.00309 -0.008566,0.00835 -0.0210933,0.00771 -0.0268039,-0.00155 -0.002736,-0.00437 -0.00464,-0.00913 -0.004283,-0.010418 3.5929e-4,-0.00141 -0.001547,-0.00205 -0.004283,-0.00155 -0.003331,6.132e-4 -0.004878,-0.00109 -0.004997,-0.00514 -3.212e-5,-0.00334 -0.001666,-0.00578 -0.003569,-0.00528 -0.001904,3.884e-4 -0.003569,-0.00128 -0.003569,-0.00386 0,-0.00245 -0.001904,-0.00476 -0.004164,-0.00502 -0.00226,-2.328e-4 -0.00583,-6.134e-4 -0.007733,-7.883e-4 -0.001904,-1.555e-4 -0.006067,-0.00334 -0.00928,-0.0072 -0.003212,-0.00373 -0.007614,-0.00681 -0.009874,-0.00681 -0.00226,0 -0.007971,-0.00449 -0.012587,-0.0099 -0.005116,-0.00604 -0.0104693,-0.00951 -0.013622,-0.00887 -0.004164,8.756e-4 -0.004759,-1.556e-4 -0.003212,-0.00565 0.001428,-0.00488 9.7198e-4,-0.0063 -0.001785,-0.0054 -0.003569,0.00128 -0.008447,-0.00502 -0.0124561,-0.015854 -0.002855,-0.00785 -0.0416037,-0.039549 -0.0483255,-0.039549 -0.003569,0 -0.006424,-0.00114 -0.006424,-0.00245 0,-0.0036 -0.0155137,-0.021845 -0.0185831,-0.021845 -0.001428,0 -0.005711,-0.00412 -0.009518,-0.00913 -0.005116,-0.00669 -0.008447,-0.00861 -0.0126108,-0.0072 -0.004997,0.00167 -0.005235,0.00129 -0.001904,-0.00309 0.003331,-0.00424 0.002855,-0.0054 -0.003688,-0.00811 -0.004164,-0.00167 -0.006781,-0.00449 -0.00583,-0.00617 9.7317e-4,-0.00167 -6.4838e-4,-0.00309 -0.00345,-0.00309 -0.002855,0 -0.006781,-0.00167 -0.008685,-0.00373 -0.002736,-0.00296 -0.003926,-0.00296 -0.00583,2.326e-4 -0.001785,0.00309 -0.002617,0.00257 -0.003688,-0.00181 -0.001428,-0.00592 -0.0114211,-0.00951 -0.0271489,-0.010026 -0.004045,-1.555e-4 -0.005592,-0.00101 -0.00345,-0.00192 0.002498,-0.00109 8.9227e-4,-0.00309 -0.004878,-0.00565 -0.00583,-0.00257 -0.008804,-0.00617 -0.008804,-0.010284 0,-0.00553 -0.002974,-0.00771 -0.009161,-0.00656 -0.001175,2.34e-4 -0.00345,-0.00334 -0.005116,-0.00785 -0.002379,-0.00669 -0.00345,-0.00745 -0.005473,-0.00386 -0.002498,0.00424 -0.004402,-0.018104 -0.003093,-0.035615 2.8791e-4,-0.0036 -8.5063e-4,-0.00759 -0.002498,-0.00861 -0.002141,-0.00141 -0.002022,-0.00334 2.8791e-4,-0.00643 0.003093,-0.00399 0.003926,-0.00811 0.004997,-0.0229 2.1534e-4,-0.00271 0.002855,-0.00565 0.005948,-0.00656 0.00464,-0.00129 0.005473,-0.00386 0.004878,-0.014156 -4.8659e-4,-0.01016 -0.001904,-0.01291 -0.007019,-0.014323 -0.004283,-0.00118 -0.006305,-0.00399 -0.006305,-0.00887 0,-0.00424 -0.004878,-0.012897 -0.0119684,-0.021125 -0.0115401,-0.013423 -0.0184403,-0.033031 -0.0129439,-0.036708 0.001309,-8.757e-4 0.002379,-0.00488 0.002379,-0.00887 0,-0.00399 0.001309,-0.00811 0.002974,-0.00926 0.001903,-0.00126 0.002022,-0.00321 2.8671e-4,-0.00553 -0.003331,-0.00424 -7.2928e-4,-0.032426 0.002974,-0.032426 0.001428,0 0.001785,0.00271 8.5182e-4,0.00604 -9.7317e-4,0.00334 -4.4613e-4,0.00849 0.001134,0.011443 0.002617,0.00488 0.002974,0.00476 0.002974,-0.00141 4.283e-5,-0.00373 0.001309,-0.00681 0.002974,-0.00681 0.005235,0 0.002855,-0.010667 -0.003212,-0.014761 -0.004997,-0.00334 -0.006424,-0.00334 -0.008685,3.47e-5 -0.002022,0.00296 -0.00226,0.00257 -0.001012,-0.00155 9.3154e-4,-0.00309 0.001666,-0.010284 0.001666,-0.015969 0,-0.00681 0.001309,-0.010418 0.003926,-0.010418 0.002142,0 0.004521,-0.00271 0.005354,-0.00604 8.1018e-4,-0.00334 3.5929e-4,-0.00528 -0.001054,-0.00437 -0.001428,9.206e-4 -0.001785,-3.099e-4 -9.3153e-4,-0.00283 0.002141,-0.00617 0.0172982,-0.011829 0.0189162,-0.00694 6.4839e-4,0.00192 0.003331,-0.00192 0.00583,-0.00861 0.006662,-0.017589 0.0111832,-0.01971 0.0319077,-0.015095 0.0307894,0.00681 0.0547618,0.009 0.10211181,0.009 0.0478735,4.63e-5 0.0995302,-0.00271 0.10696578,-0.00565 0.00226,-9.206e-4 0.0181548,-0.00309 0.0351794,-0.00476 0.0476593,-0.00476 0.13156517,-0.015507 0.13411707,-0.017203 0.001309,-8.32e-4 0.0115401,-0.00271 0.022747,-0.00424 0.0113021,-0.00155 0.0325026,-0.00488 0.0472072,-0.00759 0.11055867,-0.020302 0.15097867,-0.028338 0.18155273,-0.036091 0.00928,-0.00231 0.0301826,-0.00733 0.0464458,-0.010928 0.0162513,-0.0036 0.0384273,-0.00926 0.0492535,-0.012472 0.0323003,-0.00951 0.12946058,-0.035667 0.15313678,-0.041273 0.00369,-8.756e-4 0.0088,-0.00271 0.011302,-0.00412 0.0025,-0.00141 0.011421,-0.00412 0.019975,-0.00617 0.00857,-0.00205 0.02308,-0.00617 0.032372,-0.00913 0.00928,-0.00296 0.027018,-0.00849 0.039403,-0.012086 0.012385,-0.00373 0.032657,-0.010284 0.045042,-0.014581 0.012385,-0.00437 0.025055,-0.00823 0.028148,-0.00861 0.00309,-3.896e-4 0.018928,-0.00476 0.035191,-0.00977 0.032574,-0.010026 0.074023,-0.020778 0.091476,-0.023594 0.011183,-0.00181 0.018107,-0.00334 0.057046,-0.012086 0.011302,-0.00257 0.030885,-0.00592 0.043626,-0.00745 0.012742,-0.00155 0.035203,-0.00502 0.049908,-0.00759 0.014705,-0.00257 0.033704,-0.0054 0.042222,-0.00617 0.062816,-0.00604 0.084541,-0.00849 0.094838,-0.010928 0.0065,-0.00155 0.019157,-0.00283 0.028146,-0.00283 0.00899,0 0.027112,-0.00129 0.040271,-0.00296 0.034687,-0.00424 0.061512,-0.0063 0.1013313,-0.00771 0.019352,-7.008e-4 0.047218,-0.00257 0.061925,-0.00424 0.014707,-0.00167 0.04194,-0.00373 0.060518,-0.00476 0.052173,-0.00283 0.1034419,-0.0072 0.2505137,-0.02142 0.067047,-0.00643 0.071073,-0.00939 0.056054,-0.041479 -0.00546,-0.0117 -0.00684,-0.018078 -0.00551,-0.025741 0.00138,-0.00785 3.41e-5,-0.013514 -0.00587,-0.024686 -0.0042,-0.00797 -0.00916,-0.016523 -0.011029,-0.019029 -0.00187,-0.00245 -0.00489,-0.00964 -0.00672,-0.015776 -0.00182,-0.00617 -0.00564,-0.014387 -0.00846,-0.018271 -0.00777,-0.010667 -0.01707,-0.02947 -0.01707,-0.034497 0,-0.00245 -0.00187,-0.00449 -0.00419,-0.00449 -0.00453,0 -0.016385,-0.018527 -0.019027,-0.02974 -0.00109,-0.00476 4.863e-4,-0.00964 0.00516,-0.015648 0.00506,-0.00656 0.00679,-0.012343 0.00679,-0.022912 0,-0.00875 -0.00109,-0.013461 -0.00283,-0.012343 -0.00153,0.00105 -0.00283,-2.328e-4 -0.00283,-0.00283 0,-0.00643 -0.01467,-0.028866 -0.019,-0.029007 -0.00446,-1.555e-4 -0.00457,-0.00514 -1.439e-4,-0.00811 0.00182,-0.00122 0.00385,-5.258e-4 0.0045,0.00155 0.00133,0.00437 0.00904,-0.00118 0.00904,-0.00643 0,-0.00167 0.00697,-0.011957 0.015482,-0.022681 0.00886,-0.011186 0.015413,-0.022424 0.015315,-0.026204 -7.23e-5,-0.0036 -0.00369,-0.019608 -0.00797,-0.035499 -0.00429,-0.015892 -0.00725,-0.031295 -0.00654,-0.034227 0.00138,-0.00565 0.00905,-0.00745 0.00905,-0.00205 0,0.00502 0.00572,-4.64e-5 0.0083,-0.00733 0.00133,-0.00386 2.156e-4,-0.030819 -0.0028,-0.064351 -0.0028,-0.031826 -0.00584,-0.081764 -0.00672,-0.1110415 -8.915e-4,-0.029276 -0.00231,-0.07582 -0.0032,-0.1034256 -8.512e-4,-0.027605 -0.00207,-0.066615 -0.00263,-0.086698 -5.673e-4,-0.020083 -0.0017,-0.041298 -0.00247,-0.047148 -0.00162,-0.012343 -0.00459,-0.106268 -0.00632,-0.200773 -0.00283,-0.1536541 -0.00385,-0.1941194 -0.00531,-0.2102016 -8.511e-4,-0.00938 -3.595e-4,-0.020495 0.00113,-0.024712 0.00174,-0.00502 0.0017,-0.00875 -1.439e-4,-0.010667 -0.0032,-0.00347 -0.00419,-0.020803 -0.0065,-0.1117964 -8.917e-4,-0.03514 -0.00236,-0.08099 -0.00325,-0.1019078 -8.916e-4,-0.020919 -0.00211,-0.1653338 -0.00271,-0.3209332 -5.673e-4,-0.1556007 -0.0017,-0.3041271 -0.00247,-0.3300595 -0.00523,-0.1784948 -0.00707,-0.3700503 -0.0036,-0.3738149 0.00199,-0.00218 0.00199,-0.00438 3.08e-5,-0.00707 -0.00158,-0.00218 -0.00291,-0.00604 -0.003,-0.00849 -2.874e-4,-0.011315 -0.00325,-0.056573 -0.00595,-0.091263 -0.00162,-0.020918 -0.00357,-0.053089 -0.00433,-0.071488 -7.7e-4,-0.0184 -0.0028,-0.062206 -0.00453,-0.097344 -0.00187,-0.037904 -0.00231,-0.0830602 -0.00105,-0.11103775 0.00296,-0.0658052 0.00349,-0.0914299 0.0036,-0.17491652 1.439e-4,-0.0872384 -0.0032,-0.12790681 -0.01129,-0.13725552 -0.00397,-0.004629 -0.00503,-0.008744 -0.00372,-0.0143232 0.00138,-0.005914 2.156e-4,-0.009515 -0.00488,-0.0148504 -0.00745,-0.007714 -0.014922,-0.0191063 -0.02342,-0.0355769 -0.0044,-0.008486 -0.0078,-0.0113146 -0.015481,-0.0124719 -0.00732,-0.001139 -0.010053,-0.003214 -0.010684,-0.007971 -9.727e-4,-0.007457 -0.012848,-0.0136805 -0.039963,-0.0208164 -0.019672,-0.005143 -0.044253,-0.0139633 -0.049961,-0.0178463 -0.00628,-0.004243 -0.00377,-0.0107998 0.00978,-0.0255865 0.00732,-0.007971 0.012981,-0.0160719 0.012592,-0.0180391 -3.594e-4,-0.001929 5.674e-4,-0.0045 0.00219,-0.005529 0.00158,-0.00105 0.00288,-3.0986e-4 0.00288,0.001672 0,0.001929 0.00243,3.0986e-4 0.00539,-0.003599 0.0036,-0.004757 0.00449,-0.008357 0.00268,-0.0106712 -0.00174,-0.002314 -0.00174,-0.004243 1.42e-5,-0.0054 0.0015,-0.001007 0.00491,-0.012729 0.00758,-0.0261265 0.00312,-0.0156218 0.00621,-0.0243136 0.00863,-0.0243136 0.00207,0 0.00636,-0.005143 0.00955,-0.0114432 0.0064,-0.0126003 0.014796,-0.0255094 0.027068,-0.0416713 0.00689,-0.009129 0.010922,-0.0111861 0.027765,-0.0147733 0.011278,-0.002314 0.032644,-0.003858 0.049977,-0.003342 0.02319,6.133e-4 0.031209,-2.3272e-4 0.034278,-0.003599 0.00219,-0.002314 0.00539,-0.004372 0.00708,-0.004372 0.0017,0 0.00452,-0.003471 0.00628,-0.007586 0.00397,-0.009386 0.00459,-0.009386 0.016364,-1.157e-5 0.00874,0.006943 0.00999,0.0072 0.015323,0.002957 0.0032,-0.002571 0.01245,-0.007971 0.020576,-0.0120861 0.010017,-0.005015 0.014776,-0.009258 0.014776,-0.0131018 0,-0.003085 0.00316,-0.0072 0.00703,-0.009129 0.00385,-0.001929 0.00703,-0.004757 0.00703,-0.006429 0,-0.001672 0.0019,-0.002185 0.00422,-0.00127 0.00231,9.6303e-4 0.00422,1.5557e-4 0.00422,-0.001801 0,-0.001929 0.00178,-0.005529 0.00397,-0.007843 0.00219,-0.002315 0.00451,-0.006043 0.00516,-0.0081 0.0019,-0.006171 0.027647,-0.003858 0.041357,0.003599 0.014687,0.0081 0.040522,0.0305237 0.050268,0.0436514 0.014508,0.0195305 0.044774,0.0514173 0.066717,0.0702793 0.012385,0.0106724 0.02601,0.0236193 0.030281,0.0288137 0.0086,0.010415 0.00489,0.009901 0.07246,0.0109288 0.019352,3.1116e-4 0.039619,-6.1202e-4 0.045036,-0.001929 0.00927,-0.002314 0.010529,-0.001672 0.021354,0.0113147 0.010481,0.0126003 0.012174,0.0135261 0.018991,0.0106712 0.00412,-0.001672 0.014776,-0.003858 0.02368,-0.004757 0.00891,-8.7561e-4 0.026327,-0.003214 0.038712,-0.005143 0.012385,-0.001929 0.025686,-0.003214 0.029556,-0.002957 0.00385,3.1116e-4 0.016794,9.1932e-4 0.028725,0.00127 0.021273,6.1331e-4 0.021953,9.1931e-4 0.035591,0.0139633 l 0.013905,0.0132947 -0.0015,0.0177819 c -0.00187,0.0220378 0.00291,0.0315395 0.017309,0.0344582 0.011552,0.002314 0.013045,0.004243 0.01429,0.0188235 0.00118,0.0136419 0.00182,0.0142334 0.016235,0.0151976 0.017836,0.001181 0.024348,0.0027 0.02804,0.006686 0.00182,0.001929 0.00509,0.003599 0.00722,0.003599 0.0078,0 0.00146,0.007071 -0.010767,0.0118289 -0.010874,0.004372 -0.0129,0.006557 -0.015234,0.016702 -0.00247,0.0107999 -0.00207,0.0123432 0.00508,0.0189392 0.00427,0.003986 0.010909,0.0072 0.014744,0.0072 0.00908,0 0.011421,0.0072 0.00552,0.0169334 -0.00259,0.004243 -0.00431,0.0114432 -0.00385,0.0159434 7.7e-4,0.0072 0.00222,0.008357 0.01262,0.009129 0.013304,0.00105 0.021561,0.008357 0.014816,0.0130119 -0.00222,0.001544 -0.00974,0.0027 -0.016709,0.0027 -0.02597,-2.3273e-4 -0.042221,0.005657 -0.042221,0.0154934 0,0.004886 0.040458,0.0158276 0.059178,0.0159819 0.011695,7.844e-5 0.019773,0.001544 0.01998,0.003471 2.156e-4,0.001801 4.863e-4,0.008744 7.294e-4,0.015339 2.874e-4,0.009901 0.0017,0.0128575 0.00794,0.0160462 0.00657,0.003471 0.013102,0.0145162 0.010279,0.0174091 -0.00259,0.0027 -0.049267,0.003729 -0.055253,0.001269 -0.00544,-0.002185 -0.00654,-0.001929 -0.00535,0.001415 0.00105,0.002957 -0.0013,0.004886 -0.0074,0.006173 -0.025138,0.0054 -0.034704,0.0177433 -0.030197,0.0388555 0.00153,0.0072 0.00283,0.0176919 0.00288,0.023285 3.69e-5,0.005657 0.00263,0.0136805 0.00575,0.0179749 0.00312,0.004243 0.00498,0.0101582 0.00415,0.0130119 -0.00199,0.006686 0.00259,0.0195435 0.00995,0.0280808 0.00316,0.003729 0.00653,0.0101581 0.00744,0.0143747 9.32e-4,0.004247 0.00451,0.0110571 0.00801,0.0152751 0.0066,0.007975 0.0083,0.0173708 0.012065,0.0672187 0.00109,0.0143879 0.0034,0.0280808 0.00516,0.0304207 0.0032,0.004247 8.51e-4,0.0504533 -0.00337,0.0657155 -0.00101,0.00373 -1.438e-4,0.02353 0.00199,0.044114 0.00211,0.020571 0.00345,0.05179 0.00303,0.069353 -4.458e-4,0.017564 0.00101,0.048254 0.0032,0.068197 0.00243,0.022153 0.00303,0.039755 0.00158,0.045234 -0.0013,0.00488 -0.00227,0.013269 -0.00211,0.018502 1.438e-4,0.00528 -0.00263,0.016226 -0.00623,0.024417 l -0.00653,0.014903 0.00579,0.00502 c 0.00506,0.00437 0.00563,0.00759 0.00446,0.024636 -7.295e-4,0.010796 -0.00231,0.021627 -0.00352,0.024146 -0.00118,0.00245 -0.0019,0.013192 -0.00158,0.023723 2.878e-4,0.010548 -5.674e-4,0.019891 -0.00195,0.020816 -0.00138,9.193e-4 -0.0017,0.00565 -7.294e-4,0.010667 0.00101,0.00488 6.484e-4,0.010667 -8.511e-4,0.0126 -0.00259,0.0036 -0.00219,0.025022 0.00109,0.060752 8.916e-4,0.00964 2.874e-4,0.021742 -0.00142,0.026924 -0.00195,0.00604 -0.00207,0.011315 -3.595e-4,0.014774 0.0017,0.00347 0.00162,0.014118 -2.156e-4,0.029354 -0.00158,0.013178 -0.00296,0.026024 -0.003,0.02853 -2.156e-4,0.00913 0.00369,0.044461 0.00633,0.057795 0.0015,0.00759 0.00325,0.016779 0.00389,0.020545 6.485e-4,0.00373 0.00182,0.00797 0.00259,0.00939 0.00182,0.00321 -0.00603,0.054246 -0.010065,0.065355 -0.00259,0.00707 -0.00202,0.011058 0.00328,0.023285 0.00615,0.014194 0.00625,0.015493 0.00227,0.034599 l -0.00412,0.019852 0.00728,0.00578 c 0.017378,0.013668 0.03373,0.019762 0.047149,0.017589 0.0071,-0.00114 0.037767,-0.00271 0.068151,-0.00347 0.067544,-0.00167 0.081542,-0.00373 0.1029422,-0.014798 0.011136,-0.00578 0.023846,-0.00951 0.037998,-0.010929 0.011695,-0.00128 0.028863,-0.00386 0.038152,-0.00578 0.00929,-0.00192 0.022654,-0.00334 0.029706,-0.00321 0.00705,2.341e-4 0.015777,-8.319e-4 0.019392,-0.00231 0.00393,-0.00155 0.011005,-0.00141 0.017548,5.259e-4 0.00717,0.00205 0.012644,0.00218 0.015793,2.326e-4 0.00263,-0.00167 0.018752,-0.00245 0.035781,-0.00192 0.06458,0.00205 0.084763,-9.631e-4 0.1057214,-0.015944 0.00922,-0.00656 0.014274,-0.00785 0.032806,-0.00811 0.012053,-1.556e-4 0.024032,6.134e-4 0.026618,0.00167 0.00259,0.00109 0.00702,7.008e-4 0.00985,-8.755e-4 0.00283,-0.00167 0.029434,-0.00386 0.059122,-0.00488 0.035611,-0.00128 0.05716,-0.00334 0.063332,-0.00617 0.010529,-0.00476 0.077742,-0.011186 0.1081019,-0.010418 0.010957,3.112e-4 0.021236,-3.883e-4 0.022833,-0.00141 0.00709,-0.00476 0.1162692,-0.00926 0.1162692,-0.00488 0,0.0036 0.043385,0.00334 0.057703,-3.112e-4 0.00982,-0.00257 0.015413,-0.00141 0.043629,0.009 0.058418,0.021549 0.086786,0.030512 0.096603,0.030512 0.00532,0 0.014217,0.00205 0.019773,0.00449 0.00556,0.00245 0.014773,0.00449 0.020478,0.00449 0.010089,0 0.040845,0.015801 0.052652,0.027039 0.00283,0.00271 0.011695,0.00835 0.019704,0.012472 0.00896,0.00463 0.015955,0.010796 0.018193,0.015892 0.00263,0.00592 0.00697,0.00926 0.015481,0.011572 0.00651,0.00181 0.016912,0.00617 0.023104,0.00977 0.013601,0.00785 0.054888,0.041299 0.054888,0.044449 0,0.00122 0.00412,0.00476 0.00915,0.00785 0.013427,0.00835 0.021224,0.016599 0.031947,0.033995 0.0056,0.00913 0.00958,0.019338 0.00958,0.024725 0,0.00502 0.00182,0.010796 0.00408,0.012857 0.00222,0.00205 0.00629,0.010026 0.00899,0.017872 0.00664,0.019157 0.012969,0.031206 0.021783,0.041492 0.0066,0.00771 0.00877,0.013565 0.00766,0.020752 -2.156e-4,0.00129 9.726e-4,0.00514 0.00259,0.00835 0.00219,0.00438 0.00174,0.01016 -0.00167,0.021934 -0.011136,0.038328 -0.012498,0.043614 -0.012486,0.048563 0,0.00476 -0.0032,0.012086 -0.0145,0.032851 -0.00469,0.00861 -0.023936,0.028133 -0.030468,0.030859 -0.00268,0.00109 -0.011492,0.016625 -0.019628,0.034497 -0.012081,0.026537 -0.016275,0.033031 -0.022939,0.035551 -0.00449,0.00167 -0.00815,0.00502 -0.00815,0.00745 0,0.00565 -0.00829,0.019363 -0.011671,0.019363 -0.00142,0 -0.00979,0.00835 -0.018606,0.018566 l -0.016021,0.018566 -0.01555,-0.00141 c -0.014448,-0.00129 -0.016336,-7.008e-4 -0.026614,0.00887 -0.00608,0.00565 -0.014062,0.01016 -0.01773,0.01016 -0.00365,0 -0.010446,0.00205 -0.015056,0.00463 -0.00462,0.00257 -0.00953,0.00399 -0.010921,0.00296 -0.00138,-9.193e-4 -0.00332,-3.098e-4 -0.00431,0.00141 -9.727e-4,0.00167 -0.0047,0.00309 -0.00829,0.00309 -0.0036,0 -0.00797,0.00192 -0.00976,0.00424 -0.00178,0.00231 -0.007,0.00502 -0.0116,0.00604 -0.00698,0.00155 -0.00838,0.00334 -0.00838,0.010667 0,0.011058 -0.00385,0.014517 -0.022683,0.020559 -0.020372,0.00656 -0.03076,0.018747 -0.030342,0.035654 3.595e-4,0.014118 -0.00707,0.035384 -0.012454,0.035705 -0.013495,7.883e-4 -0.02415,0.00373 -0.032321,0.009 -0.00522,0.00334 -0.011112,0.00604 -0.013107,0.00604 -0.00199,0 -0.00603,0.00283 -0.00898,0.00643 -0.00454,0.0054 -0.00728,0.00604 -0.018026,0.00438 -0.00697,-0.00114 -0.017969,-0.00192 -0.024441,-0.00167 -0.00647,1.555e-4 -0.020406,-0.00257 -0.030963,-0.00604 -0.010553,-0.0036 -0.031858,-0.010548 -0.047341,-0.015673 -0.015481,-0.00514 -0.03448,-0.0117 -0.042222,-0.014824 -0.01358,-0.0054 -0.034387,-0.010418 -0.038671,-0.00939 -0.00981,0.00231 -0.094086,0.00271 -0.098073,3.884e-4 -0.00328,-0.00192 -0.00567,-0.00192 -0.00681,1.556e-4 -0.00215,0.00373 -0.036154,0.00347 -0.047933,-3.111e-4 -0.00469,-0.00155 -0.014817,-0.00334 -0.022516,-0.00412 -0.0077,-7.88e-4 -0.017491,-0.00231 -0.021755,-0.00334 -0.00464,-0.00122 -0.0094,-5.246e-4 -0.011849,0.00167 -0.00251,0.00218 -0.00742,0.00283 -0.012636,0.00167 -0.0047,-0.00114 -0.024069,-0.00321 -0.043041,-0.00449 -0.018971,-0.00141 -0.037661,-0.00334 -0.04153,-0.00424 -0.00385,-0.00101 -0.012105,-0.00167 -0.018298,-0.00155 -0.017536,4.821e-4 -0.037188,1.92e-5 -0.064661,-0.00141 -0.021812,-0.00114 -0.025791,-0.00218 -0.029195,-0.00771 -0.00215,-0.0036 -0.00632,-0.00643 -0.00923,-0.00643 -0.00337,0 -0.00528,-0.00218 -0.00528,-0.00592 0,-0.00514 -0.00138,-0.00565 -0.010553,-0.00399 -0.016097,0.00283 -0.021139,0.00257 -0.022371,-0.00118 -6.484e-4,-0.00192 0.00276,-0.00528 0.00746,-0.00759 0.011967,-0.00578 0.010695,-0.009 -0.0034,-0.00875 -0.00658,1.556e-4 -0.018298,-6.132e-4 -0.026039,-0.00167 -0.018136,-0.00245 -0.027639,-0.00245 -0.061925,3.099e-4 -0.038399,0.00309 -0.040312,0.00283 -0.047988,-0.00488 -0.00577,-0.00592 -0.00739,-0.0063 -0.01129,-0.00271 -0.00573,0.00514 -0.042985,0.00438 -0.055696,-0.00114 -0.00547,-0.00231 -0.013698,-0.00309 -0.021467,-0.00192 -0.00694,0.00105 -0.014756,0.00141 -0.017395,6.132e-4 -0.00263,-7.881e-4 -0.00867,0.00114 -0.01341,0.00412 -0.00754,0.00476 -0.010208,0.00502 -0.021415,0.00181 -0.015558,-0.00449 -0.034436,-0.00181 -0.036231,0.00514 -7.296e-4,0.00271 -0.00219,0.011058 -0.00325,0.018592 -0.00109,0.00745 -0.00482,0.017769 -0.00829,0.022809 -0.00349,0.00502 -0.00721,0.013283 -0.0083,0.018296 -0.00219,0.010026 -0.00259,0.07541 -6.484e-4,0.1024096 0.00109,0.015236 5.674e-4,0.01741 -0.00433,0.01881 -0.00352,0.00101 -0.00479,0.00296 -0.00345,0.00528 0.0042,0.00733 0.00377,0.04625 -5.674e-4,0.055377 -0.00231,0.00488 -0.00349,0.010796 -0.00263,0.01323 8.51e-4,0.00245 -3.595e-4,0.00759 -0.00271,0.011443 -0.00385,0.00643 -0.00381,0.00797 6.485e-4,0.016342 0.00447,0.00849 0.00453,0.00977 5.674e-4,0.01485 -0.0034,0.00438 -0.00421,0.011957 -0.00365,0.034458 0.00283,0.1122205 0.0042,0.1553781 0.00532,0.16731 0.0061,0.065175 0.00633,0.090979 8.106e-4,0.094825 -0.00259,0.00181 -0.00271,0.00321 -4.863e-4,0.00476 0.00523,0.00386 0.00691,0.013989 0.00821,0.049978 0.00303,0.08414 0.00385,0.1076567 0.0055,0.1589615 9.727e-4,0.03001 0.00236,0.055596 0.00308,0.056856 7.294e-4,0.00128 0.0019,0.037235 0.00259,0.079923 7.295e-4,0.044192 0.00268,0.083702 0.00457,0.091752 0.00207,0.00875 0.00268,0.024649 0.00162,0.041954 -9.322e-4,0.015313 -4.458e-4,0.040836 0.00109,0.056728 0.00153,0.015892 0.00328,0.044641 0.00393,0.063876 0.00187,0.055725 0.00449,0.088447 0.00802,0.1001608 0.0028,0.00913 0.00482,0.011058 0.013139,0.012343 0.00822,0.00128 0.00999,0.00283 0.010731,0.0099 5.674e-4,0.00578 0.00283,0.00875 0.00704,0.00964 0.018343,0.00399 0.029374,0.00488 0.072005,0.0063 0.025702,8.319e-4 0.056337,0.00231 0.068076,0.00321 0.011742,9.194e-4 0.042773,0.00218 0.068962,0.00296 0.135391,0.0036 0.22585,0.00681 0.262947,0.00926 0.051127,0.00347 0.085119,0.00245 0.096405,-0.00271 0.00581,-0.00271 0.010553,-0.0063 0.010553,-0.00797 0,-0.00167 0.00665,-0.00785 0.014776,-0.01359 0.022338,-0.01584 0.050456,-0.045606 0.048445,-0.051276 -9.321e-4,-0.00257 -3.59e-4,-0.00565 0.00133,-0.00669 0.00167,-0.00109 0.003,-0.00463 0.003,-0.00785 0,-0.00617 0.018099,-0.019273 0.031566,-0.02286 0.00421,-0.00114 0.00991,-0.00578 0.012669,-0.010418 0.00553,-0.00926 0.031688,-0.035409 0.04353,-0.043484 0.00414,-0.00283 0.012745,-0.00604 0.019101,-0.0072 0.011576,-0.00205 0.018095,-0.009 0.015801,-0.016933 -6.483e-4,-0.00218 -0.00195,-0.00785 -0.00288,-0.012343 -0.00162,-0.00797 -0.00126,-0.00835 0.00943,-0.00835 0.017001,0 0.025568,-0.00449 0.025568,-0.013616 0,-0.00656 0.0013,-0.00771 0.00852,-0.00771 0.00469,0 0.017033,0.00463 0.027445,0.010284 0.020924,0.011315 0.037223,0.016368 0.037223,0.011443 0,-0.00167 -0.0013,-0.00399 -0.00288,-0.00502 -0.00468,-0.00309 -1.435e-4,-0.00759 0.00766,-0.00759 0.00415,0 0.012417,0.00449 0.019202,0.010549 0.00719,0.00643 0.01645,0.011315 0.023343,0.012472 0.0074,0.00126 0.013889,0.00502 0.01842,0.010418 0.00648,0.00785 0.029183,0.017537 0.04597,0.019582 0.01658,0.00205 0.03463,0.014092 0.03463,0.023157 0,0.00309 0.00541,0.00913 0.012287,0.013977 0.00676,0.00476 0.014298,0.012343 0.016758,0.016972 0.00268,0.00502 0.00689,0.00835 0.010446,0.00835 0.00512,0 0.027733,0.010928 0.053392,0.025843 0.00998,0.00578 0.095692,0.052291 0.1218171,0.066076 0.015413,0.00811 0.022691,0.013822 0.024587,0.019209 0.0015,0.00424 0.00439,0.00835 0.00646,0.00926 0.00259,0.00109 0.00393,0.00835 0.00426,0.023504 8.51e-4,0.038906 0.00575,0.048229 0.021804,0.041633 0.00744,-0.00309 0.00748,-0.00321 0.00239,-0.00926 -0.00754,-0.009 -9.321e-4,-0.012729 0.018517,-0.010284 0.00852,0.00105 0.021815,0.00231 0.029556,0.00271 0.00827,4.822e-4 0.018724,0.0036 0.025333,0.00771 0.00619,0.00386 0.019493,0.011572 0.029556,0.017345 0.04506,0.025702 0.060322,0.039203 0.052379,0.046326 -0.00211,0.00192 -0.00564,0.00271 -0.00786,0.00181 -0.00222,-9.205e-4 -0.0064,0.00114 -0.00928,0.00449 -0.00512,0.00604 -0.00509,0.00643 0.00113,0.0126 0.00429,0.00438 0.00595,0.00875 0.00508,0.013706 -9.322e-4,0.0054 8.915e-4,0.00926 0.007,0.014824 0.00456,0.00412 0.00945,0.00759 0.010874,0.00759 0.00142,0 0.00734,0.00449 0.013154,0.01016 0.011504,0.011058 0.013439,0.011957 0.057007,0.026448 0.016255,0.0054 0.034623,0.011957 0.040815,0.01458 0.021208,0.00887 0.036592,0.015995 0.040814,0.018965 0.00231,0.00167 0.013439,0.00785 0.0247,0.013861 0.012977,0.00694 0.02368,0.01521 0.02922,0.022654 0.00481,0.00643 0.013637,0.015416 0.019623,0.019904 0.00598,0.00449 0.01463,0.014734 0.019217,0.022797 0.00659,0.011572 0.010755,0.015428 0.019882,0.018386 0.00634,0.00205 0.017159,0.00913 0.024028,0.015609 0.00686,0.00656 0.021836,0.018476 0.03326,0.026537 0.020041,0.014144 0.024749,0.018001 0.046608,0.03829 0.00553,0.00514 0.014485,0.0126 0.019902,0.016689 0.00541,0.00399 0.012904,0.011315 0.01664,0.016034 0.00482,0.00617 0.00866,0.00823 0.013264,0.00733 0.00896,-0.00181 0.0176,0.00887 0.020162,0.025149 0.00174,0.011057 0.00369,0.01404 0.012595,0.01903 0.00835,0.00463 0.010517,0.00771 0.010517,0.014426 0,0.00565 0.00328,0.012086 0.00985,0.01917 0.00541,0.00592 0.00985,0.0126 0.00985,0.014979 0,0.00231 0.00552,0.00733 0.012267,0.010928 0.011802,0.00643 0.024498,0.023105 0.036393,0.047959 0.00247,0.00514 0.00897,0.015159 0.014452,0.022257 0.00548,0.00707 0.011183,0.017936 0.012656,0.024082 0.00349,0.014503 0.00992,0.056109 0.00917,0.059234 -0.00207,0.00861 0.036134,0.056894 0.045,0.056894 0.00146,0 0.00666,0.00399 0.011552,0.009 0.00652,0.00656 0.00898,0.011829 0.00922,0.019775 2.157e-4,0.00592 -8.51e-4,0.010796 -0.00231,0.010796 -0.00146,0 -0.00187,0.00205 -9.726e-4,0.00476 9.726e-4,0.00271 4.864e-4,0.00399 -0.00109,0.00283 -0.00332,-0.00218 -0.00337,0.00939 -5.3e-5,0.030433 0.00182,0.011572 0.00142,0.016856 -0.0017,0.022153 -0.00227,0.00386 -0.00513,0.0063 -0.00639,0.0054 -0.00126,-8.319e-4 -0.00195,0.00192 -0.0015,0.00617 4.458e-4,0.00449 -8.916e-4,0.00835 -0.0032,0.00939 -0.00247,0.00101 -0.00401,0.00604 -0.00401,0.013012 0,0.00913 -0.00138,0.012086 -0.00703,0.014824 -0.00481,0.00231 -0.00704,0.00592 -0.00704,0.011186 0,0.00449 -0.00162,0.00771 -0.00393,0.00771 -0.00995,0 -0.00641,0.023915 0.00587,0.039678 0.0074,0.00951 0.00986,0.027567 0.00406,0.029662 -0.00352,0.00128 0.00325,0.026551 0.00896,0.033623 0.010231,0.0126 0.013905,0.025728 0.01245,0.044384 -0.00195,0.024905 -0.00243,0.026487 -0.010505,0.03487 -0.037058,0.038418 -0.048916,0.048987 -0.054931,0.048987 -0.00365,0 -0.00732,0.00114 -0.00811,0.00257 -8.104e-4,0.00141 -0.0123,0.00424 -0.025564,0.00643 -0.022225,0.0036 -0.029913,0.00334 -0.049319,-0.00167 -0.00385,-0.00101 -0.012312,-0.00283 -0.018756,-0.00399 -0.013447,-0.00257 -0.020859,-0.00733 -0.034724,-0.022063 -0.012575,-0.013411 -0.02083,-0.016741 -0.036592,-0.014761 -0.011873,0.00155 -0.012721,0.00218 -0.013548,0.011443 -8.104e-4,0.009 -0.00162,0.00977 -0.00985,0.00913 -0.00839,-7.008e-4 -0.00892,-1.555e-4 -0.00823,0.00835 8.106e-4,0.01016 -0.00841,0.028903 -0.014229,0.028903 -0.00202,0 -0.00801,-0.00347 -0.013257,-0.00759 -0.00997,-0.00797 -0.018159,-0.00977 -0.02111,-0.00449 -0.003,0.00528 -0.011918,0.00334 -0.020433,-0.00437 -0.00684,-0.00617 -0.01041,-0.0072 -0.021512,-0.00604 -0.00873,8.756e-4 -0.016239,-3.111e-4 -0.021824,-0.00347 -0.00967,-0.0054 -0.017167,-0.00386 -0.014695,0.00321 0.00105,0.00309 5.31e-5,0.00463 -0.00288,0.00463 -0.00308,0 -0.00452,0.00271 -0.00452,0.00849 0,0.029277 -0.028028,0.016162 -0.057232,-0.026769 -0.017759,-0.026114 -0.047432,-0.060843 -0.051984,-0.060843 -0.00508,0 -0.022395,-0.011057 -0.030512,-0.019594 -0.00863,-0.009 -0.029158,-0.020971 -0.029158,-0.016985 0,0.00231 -0.00109,0.00245 -0.00352,2.328e-4 -0.031027,-0.027541 -0.059375,-0.049078 -0.062752,-0.047676 -0.00644,0.00271 -0.01613,-0.00257 -0.028429,-0.015326 -0.00654,-0.00681 -0.013358,-0.011315 -0.01628,-0.010667 -0.00276,5.259e-4 -0.00901,-0.00296 -0.013872,-0.00785 -0.00487,-0.00488 -0.016134,-0.012729 -0.025034,-0.017512 -0.0089,-0.00476 -0.016186,-0.00977 -0.016186,-0.011185 0,-0.00141 -0.0017,-0.00257 -0.00381,-0.00257 -0.00211,0 -0.013175,-0.00669 -0.024628,-0.014992 -0.015729,-0.011315 -0.023923,-0.015236 -0.033491,-0.015969 -0.00901,-7.007e-4 -0.012462,7.71e-5 -0.011964,0.00283 8.915e-4,0.00476 -0.0028,0.00488 -0.00717,1.541e-4 -0.00199,-0.00218 -0.012422,-0.00386 -0.025192,-0.00399 -0.013548,-2.34e-4 -0.024288,-0.00205 -0.028324,-0.00476 -0.00583,-0.00386 -0.00691,-0.00373 -0.010362,0.00128 -0.0041,0.00604 -0.00708,0.00514 -0.017395,-0.00488 -0.00533,-0.00514 -0.00739,-0.00553 -0.01596,-0.00245 -0.00657,0.00231 -0.019266,0.00283 -0.038213,0.00141 -0.021876,-0.00167 -0.028373,-0.00122 -0.028373,0.00167 0,0.00271 -0.00227,0.00309 -0.00774,0.00155 -0.00426,-0.00126 -0.014075,-0.00257 -0.021816,-0.00283 -0.00774,-3.112e-4 -0.021369,-0.00218 -0.03029,-0.00424 -0.00892,-0.00205 -0.017373,-0.00296 -0.018796,-0.00192 -0.00531,0.0036 -0.09354,0.00155 -0.119746,-0.00271 -0.00462,-7.881e-4 -0.0092,6.94e-5 -0.010196,0.00181 -0.00126,0.00218 -0.00352,0.00218 -0.00734,-3.61e-5 -0.00357,-0.00205 -0.011469,-0.00231 -0.022172,-7.007e-4 -0.00916,0.00141 -0.020766,0.00181 -0.025795,0.00101 -0.00625,-0.00101 -0.00915,-2.326e-4 -0.00915,0.00231 0,0.00257 -0.00178,0.00218 -0.00546,-0.00155 -0.00419,-0.00412 -0.00804,-0.00488 -0.0166,-0.00334 -0.00695,0.00128 -0.011849,7.881e-4 -0.013025,-0.00128 -0.0013,-0.00231 -0.0036,-0.00192 -0.00748,9.644e-4 -0.00429,0.00321 -0.00803,0.0036 -0.016,0.00118 -0.01465,-0.00424 -0.026063,-0.00386 -0.028907,0.00105 -0.00202,0.00347 -0.00345,0.0036 -0.00836,2.34e-4 -0.00437,-0.00296 -0.00694,-0.00309 -0.00967,-6.134e-4 -0.00251,0.00218 -0.014918,0.00271 -0.037779,0.00167 -0.02451,-0.00122 -0.034047,-7.882e-4 -0.034047,0.00181 0,0.00205 -0.00288,0.00283 -0.00703,0.00205 -0.00389,-7.882e-4 -0.00704,-3.47e-5 -0.00704,0.00181 0,0.00181 -0.00158,0.00101 -0.00352,-0.00167 -0.00444,-0.00617 -0.027445,-0.010667 -0.027445,-0.0054 0,0.00231 -0.00345,0.00321 -0.00985,0.00245 -0.00636,-7.881e-4 -0.00985,3.35e-5 -0.00985,0.00231 0,0.00257 -0.00839,0.00334 -0.031145,0.00245 -0.022412,-8.77e-4 -0.030601,-2.328e-4 -0.029207,0.00218 0.00105,0.00192 -0.00126,0.00114 -0.00519,-0.00167 -0.00479,-0.00347 -0.00773,-0.00399 -0.00899,-0.00181 -0.00101,0.00181 -0.00842,0.00296 -0.016445,0.00271 -0.00802,-3.111e-4 -0.02263,2.329e-4 -0.03247,0.00128 -0.011647,0.00122 -0.019724,6.133e-4 -0.023153,-0.00167 -0.00429,-0.00283 -0.00596,-0.00245 -0.00908,0.00205 -0.0032,0.00476 -0.00479,0.00502 -0.010136,0.00192 -0.00715,-0.00412 -0.018306,-0.00167 -0.011873,0.00257 0.00296,0.00192 -0.04069,0.00205 -0.058752,1.556e-4 -0.00231,-2.328e-4 -0.00676,-3.1e-4 -0.00985,-1.556e-4 -0.00308,1.556e-4 -0.00753,1.556e-4 -0.00985,-3.47e-5 -0.013707,-0.00105 -0.075032,0.00412 -0.077265,0.00656 -0.00357,0.00386 -0.012807,0.00373 -0.012807,-1.555e-4 0,-0.00167 -0.00316,-0.00309 -0.00703,-0.00309 -0.00385,0 -0.00704,0.00141 -0.00704,0.00321 0,0.00205 -0.0017,0.00218 -0.00516,1.555e-4 -0.00283,-0.00167 -0.012725,-0.00283 -0.021974,-0.00271 -0.00924,1.556e-4 -0.019424,-0.00126 -0.022619,-0.00309 -0.0032,-0.00181 -0.00671,-0.00231 -0.00782,-0.00118 -0.00109,0.00118 -0.00539,0.00245 -0.00952,0.00271 -0.00413,3.111e-4 -0.012819,0.00181 -0.019311,0.00334 -0.00675,0.00167 -0.012863,0.00167 -0.014269,2.329e-4 -0.00133,-0.00141 -0.016118,-0.00271 -0.032802,-0.00283 -0.021758,-7.71e-5 -0.033009,-0.00155 -0.039764,-0.00502 -0.0091,-0.00463 -0.00974,-0.00463 -0.01889,0.00296 -0.00841,0.00694 -0.011611,0.00771 -0.028567,0.00681 -0.010505,-5.245e-4 -0.019781,-0.00181 -0.020608,-0.00257 -8.105e-4,-8.768e-4 -0.00397,-2.34e-4 -0.00695,0.00155 -0.00357,0.00205 -0.00659,0.00205 -0.00878,1.555e-4 -0.00182,-0.00167 -0.00808,-0.00399 -0.013864,-0.00514 -0.00839,-0.00167 -0.010886,-0.00109 -0.012307,0.00283 -9.727e-4,0.00271 -0.00397,0.00463 -0.00664,0.00412 -0.00268,-4.823e-4 -0.00676,8.318e-4 -0.00908,0.00283 -0.0034,0.00309 -0.00585,0.00296 -0.012482,-6.133e-4 -0.00961,-0.00514 -0.021179,-0.00296 -0.020085,0.00373 4.458e-4,0.00257 -8.511e-4,0.00528 -0.00276,0.00592 -0.00195,7.008e-4 -0.00352,-1.542e-4 -0.00352,-0.00192 0,-0.00181 -0.00227,-0.00334 -0.00507,-0.00334 -0.0028,0 -0.00664,-0.00167 -0.00855,-0.00373 -0.0028,-0.00309 -0.00397,-0.00296 -0.00582,3.099e-4 -0.00178,0.00321 -0.011147,0.00386 -0.0414,0.00309 -0.021495,-5.26e-4 -0.040664,-0.00218 -0.042599,-0.00373 -0.00345,-0.00271 -0.00389,-0.00231 -0.00457,0.00437 -3.595e-4,0.00321 -0.025487,0.00617 -0.060167,0.00694 -0.00813,1.555e-4 -0.01478,0.00101 -0.014784,0.00181 -2.1e-6,8.318e-4 -0.016073,0.00167 -0.035716,0.00167 -0.024795,1.555e-4 -0.036049,0.00129 -0.036819,0.00386 -0.00146,0.00476 -0.014983,0.00109 -0.019643,-0.00528 -0.0032,-0.00438 -0.00381,-0.00438 -0.00647,4.821e-4 -0.00167,0.00309 -0.00633,0.00528 -0.010695,0.00528 -0.00426,0 -0.00935,0.00167 -0.011314,0.00386 -0.00288,0.00309 -0.0034,0.00283 -0.00268,-7.894e-4 5.674e-4,-0.00283 -7.295e-4,-0.00412 -0.00332,-0.00347 -0.00231,6.133e-4 -0.00978,0.00141 -0.016568,0.00167 -0.00889,3.883e-4 -0.013742,0.00245 -0.017337,0.0072 -0.00503,0.00669 -0.016758,0.00926 -0.016758,0.0036 0,-0.00167 -0.00389,-0.00309 -0.00861,-0.00309 -0.00502,0 -0.00789,-0.00126 -0.00688,-0.00309 9.726e-4,-0.00167 -9.321e-4,-0.00309 -0.00422,-0.00309 -0.00328,0 -0.00518,0.00141 -0.00422,0.00309 0.00101,0.00181 -0.0019,0.00309 -0.00703,0.00309 -0.00598,0 -0.00813,-0.00114 -0.00675,-0.0036 0.00142,-0.00245 4.458e-4,-0.00283 -0.00337,-0.00114 -0.00296,0.00141 -0.00855,0.00309 -0.012425,0.00386 -0.00385,8.318e-4 -0.00867,0.00373 -0.010672,0.00643 -0.0032,0.00437 -0.00397,0.00437 -0.00629,3.883e-4 -0.00195,-0.00334 -0.00268,-0.00347 -0.00271,-5.258e-4 -2.51e-5,0.00245 -0.00199,0.00334 -0.005,0.00231 -0.0099,-0.00347 -0.024702,-0.00412 -0.02935,-0.00141 -0.003,0.00181 -0.00544,0.00155 -0.0066,-4.809e-4 -0.00121,-0.00218 -0.00296,-0.00167 -0.0051,0.00128 -0.00259,0.0036 -0.00615,0.00399 -0.017321,0.00192 -0.021755,-0.00399 -0.023651,-0.00373 -0.025605,0.00476 -0.0013,0.00565 -0.00312,0.0072 -0.00685,0.00592 -0.0028,-9.63e-4 -0.00588,-3.099e-4 -0.00688,0.00141 -0.00101,0.00181 -0.00487,0.00321 -0.00859,0.00321 -0.00523,0 -0.00639,-0.00118 -0.00504,-0.00528 0.00138,-0.00424 4.457e-4,-0.00386 -0.00426,0.00129 -0.00485,0.0054 -0.00838,0.00643 -0.018516,0.0054 -0.010112,-0.00101 -0.01277,-2.328e-4 -0.013799,0.00399 -0.00118,0.00488 -0.0013,0.00488 -0.00162,-6.95e-5 -1.44e-4,-0.00296 -0.00219,-0.00528 -0.00446,-0.00528 -0.00271,0 -0.00352,0.00181 -0.00231,0.00514 0.00138,0.00386 6.484e-4,0.00463 -0.00291,0.00321 -0.00259,-0.00105 -0.00471,-6.133e-4 -0.00471,0.00101 0,0.00449 -0.00472,0.00347 -0.010017,-0.00218 -0.00451,-0.00488 -0.00516,-0.00463 -0.011326,0.00309 -0.0036,0.00449 -0.00839,0.00823 -0.01066,0.00823 -0.00227,0 -0.00476,0.00167 -0.00554,0.00386 -0.00113,0.00309 -0.00146,0.00309 -0.00162,0 -2.873e-4,-0.00449 -0.00867,-0.00528 -0.00867,-7.882e-4 0,0.00167 -0.00385,0.00309 -0.00853,0.00309 -0.00498,0 -0.00921,0.00192 -0.010148,0.00449 -0.0017,0.00476 -0.00946,0.00643 -0.00946,0.00205 0,-0.00141 -0.0019,-0.00257 -0.00422,-0.00257 -0.00231,0 -0.00422,0.00101 -0.00422,0.00218 0,0.00122 -0.00377,0.00192 -0.00835,0.00167 -0.00491,-3.884e-4 -0.00896,0.00109 -0.00983,0.0036 -8.105e-4,0.00231 -0.00276,0.00334 -0.00433,0.00218 -0.00158,-0.00105 -0.0036,2.34e-4 -0.00453,0.00283 -0.00113,0.00321 -0.00308,0.00386 -0.00588,0.00218 -0.0052,-0.00321 -0.017735,-8.319e-4 -0.017735,0.00334 0,0.00167 -0.00449,0.00245 -0.010041,0.00181 -0.00753,-9.631e-4 -0.010707,7.84e-5 -0.01271,0.00412 -0.00146,0.00296 -0.00434,0.00463 -0.0064,0.00386 -0.00207,-8.756e-4 -0.00537,6.134e-4 -0.00736,0.00321 -0.00259,0.00334 -0.00465,0.00386 -0.00716,0.00155 -0.00251,-0.00218 -0.00397,-0.00192 -0.00507,0.00118 -0.00109,0.00309 -0.00573,0.00424 -0.015813,0.00386 -0.00784,-2.34e-4 -0.014266,2.328e-4 -0.014266,0.00118 2.9e-6,0.00218 -0.034367,0.012086 -0.041742,0.012086 -0.00308,0 -0.00627,0.00167 -0.00705,0.00386 -0.00105,0.00283 -0.0015,0.00271 -0.00162,-3.883e-4 -1.438e-4,-0.00334 -0.00105,-0.00347 -0.0044,-3.884e-4 -0.00231,0.00205 -0.0062,0.00296 -0.00865,0.00192 -0.00243,-0.00101 -0.00709,-3.111e-4 -0.010315,0.00155 -0.00893,0.00514 -0.042534,0.009 -0.044762,0.00514 -0.00113,-0.00192 -0.00308,-7.007e-4 -0.00502,0.00321 -0.00199,0.00399 -0.00479,0.00565 -0.00758,0.00449 -0.00357,-0.00155 -0.00369,-0.00231 -6.484e-4,-0.00437 0.00291,-0.00205 0.00271,-0.00257 -9.322e-4,-0.00257 -0.00259,-3.47e-5 -0.00516,0.00155 -0.00573,0.00334 -5.674e-4,0.00181 -0.00923,0.00399 -0.01923,0.00476 -0.010112,7.882e-4 -0.020162,0.00334 -0.022634,0.00578 -0.00243,0.00245 -0.00741,0.00437 -0.01104,0.00437 -0.00365,0 -0.00873,0.00205 -0.01135,0.00463 -0.00365,0.0036 -0.00648,0.00399 -0.012085,0.00167 -0.00491,-0.00205 -0.00792,-0.00192 -0.0091,7.73e-5 -9.725e-4,0.00167 -0.00533,0.00231 -0.00968,0.00122 -0.00587,-0.00141 -0.00929,-3.111e-4 -0.013252,0.00424 -0.00523,0.00604 -0.00876,0.00669 -0.039469,0.00694 -0.00654,5.78e-5 -0.011338,0.00109 -0.010636,0.00231 7.295e-4,0.00122 -0.00219,0.00167 -0.00639,9.643e-4 -0.013407,-0.00218 -0.034557,0.00101 -0.037406,0.00565 -8.916e-4,0.00141 -0.00658,0.00321 -0.012664,0.00399 -0.00609,7.883e-4 -0.019303,0.00257 -0.029365,0.00412 -0.010065,0.00155 -0.019246,0.00218 -0.020406,0.00141 -0.00118,-7.008e-4 -0.00211,3.112e-4 -0.00211,0.00218 0,0.00192 -0.00195,0.00271 -0.00433,0.00181 -0.00251,-0.00105 -0.00503,1.556e-4 -0.006,0.00283 -9.321e-4,0.00257 -0.00345,0.00399 -0.00567,0.00296 -0.00219,-9.194e-4 -0.0034,-6.133e-4 -0.00263,7.007e-4 7.295e-4,0.00129 -0.00393,0.00257 -0.010362,0.00283 -0.00752,3.112e-4 -0.013107,0.00245 -0.015607,0.00592 -0.00276,0.00386 -0.00427,0.00437 -0.00521,0.00167 -0.00182,-0.00514 -0.00958,-0.00476 -0.01711,9.193e-4 -0.00413,0.00309 -0.00626,0.0036 -0.00626,0.00118 0,-0.00192 -0.00174,-0.00283 -0.00389,-0.00192 -0.00215,8.756e-4 -0.00534,3.48e-5 -0.00714,-0.00192 -0.0025,-0.00271 -0.00369,-0.00181 -0.00488,0.00334 -0.00113,0.00476 -0.00393,0.00694 -0.00904,0.0072 -0.00404,2.328e-4 -0.010588,0.00101 -0.014443,0.00181 -0.00381,7.881e-4 -0.010826,0.00167 -0.015478,0.00192 -0.00464,3.099e-4 -0.00999,0.00167 -0.011945,0.00296 -0.0019,0.00129 -0.010707,0.00167 -0.019464,7.881e-4 -0.012932,-0.00128 -0.016656,-6.133e-4 -0.019666,0.0036 -0.00321,0.00463 -0.00404,0.00463 -0.00666,7.008e-4 -0.0025,-0.00399 -0.00345,-0.00386 -0.00702,0.00118 -0.00345,0.00488 -0.00631,0.0054 -0.018357,0.00373 -0.011897,-0.00167 -0.015526,-0.00101 -0.021403,0.00399 -0.00393,0.00334 -0.00904,0.00528 -0.011659,0.00412 -0.00297,-0.00122 -0.00381,-7.007e-4 -0.0025,0.00167 0.00238,0.00424 -0.0044,0.00488 -0.00833,7.894e-4 -0.00143,-0.00155 -0.00916,-0.00347 -0.017132,-0.00438 -0.011897,-0.00141 -0.015335,-6.12e-4 -0.019321,0.00412 -0.00369,0.00437 -0.00702,0.00528 -0.013681,0.00399 -0.00488,-0.00101 -0.00964,-0.00321 -0.010588,-0.00488 -9.72e-4,-0.00167 -0.00333,0 -0.00512,0.0036 -0.00274,0.00553 -0.00488,0.0063 -0.01267,0.00463 -0.00654,-0.00129 -0.011659,-3.111e-4 -0.016632,0.00321 -0.0044,0.00309 -0.015073,0.00565 -0.027197,0.00643 -0.010945,7.008e-4 -0.026733,0.00321 -0.034989,0.00553 -0.00928,0.00257 -0.018666,0.00334 -0.024472,0.00192 -0.00523,-0.00128 -0.013039,-0.00122 -0.017417,5.79e-5 -0.0044,0.00127 -0.00964,0.00167 -0.011659,8.318e-4 -0.00202,-8.318e-4 -0.010231,7.881e-4 -0.018226,0.0036 -0.010945,0.00386 -0.016132,0.00437 -0.020748,0.00192 -0.0094,-0.00488 -0.023937,-0.00694 -0.024995,-0.00347 -4.866e-4,0.00167 -0.00512,0.0036 -0.01035,0.00438 -0.00892,0.00122 -0.00928,9.193e-4 -0.0075,-0.00694 0.00178,-0.00797 0.00155,-0.00785 -0.00821,0.00321 l -0.00999,0.011443 -0.036821,7.882e-4 c -0.020249,3.883e-4 -0.037297,2.34e-4 -0.037892,-3.883e-4 z M 0.78772748,4.8669654 c 8.5064e-4,-0.00155 -9.7317e-4,-0.00347 -0.004045,-0.00424 -0.005711,-0.00167 -0.009756,0.00155 -0.006424,0.00502 0.002617,0.00283 0.008685,0.00231 0.0104693,-7.881e-4 z M 0.1714923,4.4194432 c 9.7198e-4,-0.00167 4.4494e-4,-0.00309 -0.001309,-0.00309 -0.001666,0 -0.002974,0.00141 -0.002974,0.00309 0,0.00167 5.6749e-4,0.00309 0.001309,0.00309 7.2929e-4,0 0.002022,-0.00141 0.002974,-0.00309 z M 0.16019016,4.2460478 c 9.7199e-4,-0.00167 4.4495e-4,-0.00309 -0.001309,-0.00309 -0.001666,0 -0.002974,0.00141 -0.002974,0.00309 0,0.00167 5.6749e-4,0.00309 0.001309,0.00309 7.2928e-4,0 0.002022,-0.00141 0.002974,-0.00309 z M 2.9960639,3.7456309 c 0,-0.00245 -4.863e-4,-0.00449 -0.00109,-0.00449 -5.674e-4,0 -0.00182,0.00205 -0.00271,0.00449 -8.915e-4,0.00245 -3.594e-4,0.00449 0.00109,0.00449 0.0015,0 0.00271,-0.00205 0.00271,-0.00449 z M 2.8966527,3.4318427 c -0.00101,-0.00109 3.594e-4,-0.00373 0.00303,-0.00604 0.00452,-0.00373 0.00453,-0.00399 1.44e-4,-0.00412 -0.00263,-5.15e-5 -0.00554,0.00128 -0.0065,0.00296 -0.00182,0.00321 4.458e-4,0.00913 0.00345,0.00913 9.321e-4,0 8.915e-4,-8.769e-4 -1.439e-4,-0.00192 z M 2.6372255,3.2178392 c 9.727e-4,-0.00167 4.458e-4,-0.00309 -0.00126,-0.00309 -0.00162,0 -0.003,0.00141 -0.003,0.00309 0,0.00167 5.674e-4,0.00309 0.00126,0.00309 6.485e-4,0 0.00202,-0.00141 0.003,-0.00309 z m 0.135109,-0.4806393 c 9.727e-4,-0.00167 4.459e-4,-0.00309 -0.00126,-0.00309 -0.00162,0 -0.003,0.00141 -0.003,0.00309 0,0.00167 5.674e-4,0.00309 0.00126,0.00309 7.294e-4,0 0.00202,-0.00141 0.003,-0.00309 z M 3.8883886,2.1896346 c 0,-0.00167 -0.00126,-0.00309 -0.00283,-0.00309 -0.00153,0 -0.00283,0.00141 -0.00283,0.00309 0,0.00167 0.00126,0.00309 0.00283,0.00309 0.00153,0 0.00283,-0.00141 0.00283,-0.00309 z M 3.6585954,1.9599617 c -8.917e-4,-0.00245 -0.00276,-0.00449 -0.00413,-0.00449 -0.00138,0 -0.00251,0.00205 -0.00251,0.00449 0,0.00245 0.00187,0.00449 0.00413,0.00449 0.00251,0 0.00349,-0.00181 0.00251,-0.00449 z M 2.9172943,1.1948916 c 0,-0.00167 -0.00126,-0.00309 -0.00283,-0.00309 -0.00153,0 -0.00283,0.00141 -0.00283,0.00309 0,0.00167 0.00126,0.00309 0.00283,0.00309 0.00153,0 0.00283,-0.00141 0.00283,-0.00309 z M 2.853241,0.76394543 c -0.00195,-8.3189e-4 -0.00271,-0.002957 -0.0017,-0.004757 0.00101,-0.001801 1.438e-4,-0.002571 -0.0019,-0.001801 -0.00671,0.002442 -0.00627,0.008614 5.674e-4,0.008357 0.0036,-1.5557e-4 0.00497,-9.1931e-4 0.00303,-0.001801 z M 1.3911651,5.0166413 c 0.00202,-8.756e-4 0.0044,-7.881e-4 0.00535,2.328e-4 9.327e-4,0.00101 -7.293e-4,0.00181 -0.00369,0.00167 -0.00333,-1.555e-4 -0.00393,-8.77e-4 -0.00167,-0.00181 z M 0.1616416,4.3950989 c 0,-0.00167 0.001309,-0.00309 0.002855,-0.00309 0.001547,0 0.002855,0.00141 0.002855,0.00309 0,0.00167 -0.001309,0.00309 -0.002855,0.00309 -0.001547,0 -0.002855,-0.00141 -0.002855,-0.00309 z m -0.002855,-0.012215 c 0,-0.00167 0.002022,-0.00309 0.004402,-0.00309 0.002379,0 0.003569,0.00141 0.002617,0.00309 -9.7198e-4,0.00167 -0.002974,0.00309 -0.004402,0.00309 -0.001428,0 -0.002617,-0.00141 -0.002617,-0.00309 z m 4.8761326,-0.044088 c -0.00535,-0.00424 -0.00349,-0.012857 0.00337,-0.015699 0.00437,-0.00181 0.013958,0.009 0.013958,0.015685 0,0.00438 -0.011802,0.00438 -0.017334,3.35e-5 z"
     id="path17"
     inkscape:connector-curvature="0"
     sodipodi:nodetypes="cccsccsccscccccccccsssscsccccscccssccsssccsssccccscsccccccccccccccccccscccscccccssscccccsccccccsccccccccccsccsccscccscccsscccccccccccccccccsccccccccccccccscscsccccssccscsccssccccscccsccscccscsscccssscccccccccccccsccccscscccsscccscscsccccscccscccsccccscccscccscccccsccccccccccccccccccccccccccccccccccccccscccccccscccccccsccccscccsssscssccccsscscccccccccccssccssscccsccsccscsccscccccccsccccccccsssccccsccccccscccccsccccccccccccccccccccccccsccsccssccccccssscscsccccsccscccccccccccccccccscsccccsccccccccccscscccccsccscccscccscsscccccscccccccccsccccccsscscsccccccssccccccccccscccccccccsccccccsccscscscscccccccccccsccssscccccccccccccccccccccssccccccccsccscccccsscscsccccccccccscccscccccsccsccsccsscsssccsccsccccccccscccccccccccccsccccccccccccsccccccccscccccccccccccccccccccccccccccccccccccccccccsssccssscsscsscccsscccssscsssssssssscssscsssssccccccccccssssssscssccscc" />
</svg>
