<?xml version="1.0" encoding="UTF-8" standalone="no"?>
<svg
   xmlns:dc="http://purl.org/dc/elements/1.1/"
   xmlns:cc="http://creativecommons.org/ns#"
   xmlns:rdf="http://www.w3.org/1999/02/22-rdf-syntax-ns#"
   xmlns:svg="http://www.w3.org/2000/svg"
   xmlns="http://www.w3.org/2000/svg"
   xmlns:sodipodi="http://sodipodi.sourceforge.net/DTD/sodipodi-0.dtd"
   xmlns:inkscape="http://www.inkscape.org/namespaces/inkscape"
   width="20"
   height="20"
   version="1.1"
   viewBox="0 0 5.2917 5.2917"
   id="svg6"
   sodipodi:docname="打音.svg"
   inkscape:version="0.92.4 (5da689c313, 2019-01-14)">
  <metadata
     id="metadata12">
    <rdf:RDF>
      <cc:Work
         rdf:about="">
        <dc:format>image/svg+xml</dc:format>
        <dc:type
           rdf:resource="http://purl.org/dc/dcmitype/StillImage" />
        <dc:title></dc:title>
      </cc:Work>
    </rdf:RDF>
  </metadata>
  <defs
     id="defs10" />
  <sodipodi:namedview
     pagecolor="#ffffff"
     bordercolor="#666666"
     borderopacity="1"
     objecttolerance="10"
     gridtolerance="10"
     guidetolerance="10"
     inkscape:pageopacity="0"
     inkscape:pageshadow="2"
     inkscape:window-width="1920"
     inkscape:window-height="2035"
     id="namedview8"
     showgrid="false"
     inkscape:zoom="33.37544"
     inkscape:cx="6.940719"
     inkscape:cy="9.1790693"
     inkscape:window-x="-13"
     inkscape:window-y="-13"
     inkscape:window-maximized="0"
     inkscape:current-layer="svg6" />
  <path
     style="fill:#000000;stroke-width:0.00123106"
     d="m 4.8613464,1.1997611 c -0.00177,-0.00186 -0.00357,-0.00535 -0.00401,-0.00775 -7.033e-4,-0.00383 -0.00128,-0.0044 -0.00471,-0.00463 -0.00858,-5.878e-4 -0.014376,-0.00581 -0.014376,-0.01294 0,-0.00505 -0.00443,-0.017733 -0.00755,-0.021646 -0.0016,-0.002 -0.00457,-0.00571 -0.0066,-0.00824 -0.00203,-0.00253 -0.00465,-0.00617 -0.00583,-0.00809 -0.00168,-0.00275 -0.00304,-0.00349 -0.00639,-0.00349 -0.00234,0 -0.00462,5.919e-4 -0.00507,0.00132 -4.469e-4,7.21e-4 -0.00163,9.993e-4 -0.00263,6.16e-4 -0.00127,-4.885e-4 -0.0024,7.78e-4 -0.00374,0.00419 -0.00106,0.00269 -0.0024,0.0046 -0.00298,0.00424 -9.101e-4,-5.623e-4 -0.00165,0.00311 -0.0012,0.00595 8e-5,5.073e-4 -0.00145,9.234e-4 -0.0034,9.234e-4 -0.00195,0 -0.00423,8.286e-4 -0.00507,0.00185 -8.431e-4,0.00102 -0.00227,0.00185 -0.00317,0.00185 -9.006e-4,0 -0.0031,6.641e-4 -0.00489,0.00148 -0.00293,0.00134 -0.00302,0.00157 -9.81e-4,0.00244 0.00128,5.355e-4 2.443e-4,6.325e-4 -0.00237,2.242e-4 -0.00259,-4.067e-4 -0.00623,-6.89e-5 -0.00824,7.653e-4 -0.00564,0.00234 -0.011168,-9.68e-5 -0.015396,-0.00679 l -0.0035,-0.00554 -0.00826,1.704e-4 c -0.00455,9.35e-5 -0.00928,-3.972e-4 -0.010517,-0.00109 -0.00132,-7.4e-4 -0.00337,-8.348e-4 -0.00494,-2.402e-4 -0.0021,7.969e-4 -0.00265,5.825e-4 -0.00253,-0.00101 1.007e-4,-0.0013 -0.00116,-0.00231 -0.00354,-0.00285 -0.00203,-4.509e-4 -0.0029,-8.854e-4 -0.00192,-9.677e-4 0.00129,-1.06e-4 0.00103,-8.285e-4 -9.196e-4,-0.00265 -0.00237,-0.0022 -0.014344,-0.02569 -0.018612,-0.036491 -8.5e-4,-0.00215 -0.00227,-0.00419 -0.00316,-0.00454 -0.00388,-0.00149 -0.017542,-0.020665 -0.022752,-0.031941 l -0.00551,-0.011933 h -0.00503 c -0.00396,0 -0.00598,-8.538e-4 -0.00943,-0.004 -0.00242,-0.0022 -0.0048,-0.00539 -0.00529,-0.00708 -0.00164,-0.00567 -0.00948,-0.017581 -0.010488,-0.015947 -9.986e-4,0.00162 -0.00619,-0.00552 -0.00787,-0.010829 -4.831e-4,-0.00152 -0.00141,-0.00277 -0.00206,-0.00277 -6.52e-4,0 -0.00322,-0.00221 -0.00571,-0.00493 -0.00249,-0.00271 -0.0052,-0.00493 -0.00602,-0.00493 -8.228e-4,0 -0.00314,-0.00152 -0.00514,-0.00338 -0.00201,-0.00186 -0.00535,-0.00472 -0.00743,-0.00636 -0.00208,-0.00164 -0.00349,-0.00343 -0.00314,-0.004 3.49e-4,-5.65e-4 2.84e-5,-0.00102 -7.128e-4,-0.00102 -0.00207,0 -0.00558,-0.00946 -0.0073,-0.019697 -0.00173,-0.010276 -0.00376,-0.016004 -0.00568,-0.016004 -0.00154,0 -0.00798,-0.00968 -0.00798,-0.011994 0,-9.107e-4 -0.00213,-0.00453 -0.00474,-0.00806 -0.00261,-0.00352 -0.00511,-0.00724 -0.00556,-0.00826 -4.482e-4,-0.00102 -0.00265,-0.00474 -0.00489,-0.00828 -0.00327,-0.00517 -0.00439,-0.00613 -0.00567,-0.00493 -0.0013,0.00123 -0.00135,0.00102 -2.549e-4,-0.00111 0.00104,-0.00202 8.241e-4,-0.00397 -9.513e-4,-0.00862 -0.00126,-0.0033 -0.0033,-0.00933 -0.00453,-0.013389 -0.00123,-0.00406 -0.00281,-0.00779 -0.00352,-0.00829 -7.033e-4,-4.979e-4 -8.323e-4,-9.107e-4 -2.858e-4,-9.234e-4 5.462e-4,-9.3e-6 1.731e-4,-0.00119 -8.305e-4,-0.00263 -10e-4,-0.00143 -0.00153,-0.00336 -0.00117,-0.0043 3.583e-4,-9.297e-4 -2.375e-4,-0.00204 -0.00132,-0.00245 -0.00109,-4.174e-4 -0.00197,-0.00146 -0.00197,-0.00232 0,-0.00176 -0.016634,-0.017868 -0.018457,-0.017868 -0.00274,0 -0.0046,-0.00687 -0.00407,-0.014994 l 5.395e-4,-0.00822 -0.00617,-0.0047 c -0.0066,-0.00503 -0.00755,-0.00722 -0.0042,-0.00967 0.00194,-0.00142 0.0018,-0.00201 -0.00182,-0.00752 -0.00529,-0.00805 -0.0091,-0.016267 -0.00963,-0.020754 -2.389e-4,-0.00203 -7.526e-4,-0.00549 -0.00114,-0.00769 -5.543e-4,-0.00315 -8.44e-5,-0.00462 0.00221,-0.00692 0.00276,-0.00276 0.00283,-0.0032 0.00131,-0.00831 -8.842e-4,-0.00297 -0.00218,-0.00842 -0.00287,-0.012111 -0.00105,-0.00561 -9.531e-4,-0.00689 5.932e-4,-0.00775 0.00102,-5.704e-4 0.00185,-0.00154 0.00185,-0.00215 0,-6.133e-4 0.00138,-0.00316 0.00308,-0.00565 0.00169,-0.00249 0.00308,-0.00615 0.00308,-0.00813 0,-0.00198 5.154e-4,-0.00328 0.00115,-0.00289 0.00169,0.00104 0.00295,-0.00166 0.00159,-0.00339 -6.445e-4,-8.171e-4 -0.00148,-0.00571 -0.00185,-0.010883 -6.495e-4,-0.00905 -5.811e-4,-0.00937 0.00187,-0.00873 0.00173,4.523e-4 0.00227,2.094e-4 0.00167,-7.583e-4 -4.845e-4,-7.837e-4 -0.00168,-0.00143 -0.00265,-0.00143 -9.759e-4,0 -0.00182,-4.161e-4 -0.00187,-9.234e-4 -9.53e-5,-9.342e-4 -3.637e-4,-0.00245 -0.00177,-0.010028 -4.268e-4,-0.0023 -0.00163,-0.00549 -0.00267,-0.00708 -0.00104,-0.00159 -0.00157,-0.0029 -0.00117,-0.0029 4e-4,0 1.369e-4,-0.00152 -5.824e-4,-0.00339 -7.204e-4,-0.00186 -0.0015,-0.00478 -0.00172,-0.00648 -5.114e-4,-0.00385 -0.00886,-0.019749 -0.011456,-0.02183 -0.00106,-8.456e-4 -0.0021,-0.00278 -0.00233,-0.00431 -2.242e-4,-0.00152 -0.00115,-0.00333 -0.00206,-0.00402 -9.114e-4,-6.844e-4 -0.00455,-0.00678 -0.00808,-0.013542 -0.00353,-0.00676 -0.00715,-0.013128 -0.00804,-0.014144 -0.00157,-0.00179 -0.010252,-0.017699 -0.015677,-0.028713 -6.08e-4,-0.00123 -0.00216,-0.00428 -0.00346,-0.00677 -0.00129,-0.00249 -0.00374,-0.00836 -0.00544,-0.013053 -0.00171,-0.00471 -0.00479,-0.010286 -0.0069,-0.012455 -0.0032,-0.0033 -0.00349,-0.00405 -0.0018,-0.0047 0.0011,-4.241e-4 0.00168,-0.00131 0.00127,-0.00196 -4.027e-4,-6.521e-4 -0.00152,-8.842e-4 -0.00248,-5.167e-4 -0.00114,4.375e-4 -0.00235,-7.691e-4 -0.00348,-0.00349 -9.557e-4,-0.00229 -0.00269,-0.00511 -0.00384,-0.00626 -0.00151,-0.00151 -0.00165,-0.00212 -4.792e-4,-0.00214 0.00102,-2.38e-5 8.279e-4,-5.02e-4 -5.274e-4,-0.00129 -0.00119,-6.901e-4 -0.00215,-0.00183 -0.00215,-0.00252 0,-6.996e-4 -0.00202,-0.00469 -0.00448,-0.00886 -0.00407,-0.0069 -0.00635,-0.010896 -0.012872,-0.022556 -0.0012,-0.00214 -0.00198,-0.00408 -0.00175,-0.00431 2.349e-4,-2.349e-4 -0.00113,-0.00264 -0.00304,-0.00535 -0.00413,-0.00586 -0.018491,-0.029779 -0.018491,-0.030786 0,-9.152e-4 -0.00439,-0.00717 -0.00994,-0.014146 -0.00242,-0.00305 -0.00618,-0.00815 -0.00834,-0.011349 -0.00217,-0.00319 -0.00677,-0.00873 -0.010231,-0.012311 -0.00346,-0.00357 -0.00904,-0.00996 -0.01239,-0.014195 -0.00335,-0.00423 -0.0066,-0.00769 -0.00722,-0.00769 -6.16e-4,0 -0.00112,-8.305e-4 -0.00112,-0.00185 0,-0.00102 -8.442e-4,-0.00185 -0.00188,-0.00185 -0.00103,0 -0.00239,-0.00135 -0.00302,-0.00301 -6.281e-4,-0.00165 -0.00596,-0.00678 -0.011856,-0.011387 -0.00589,-0.00461 -0.014055,-0.011566 -0.018139,-0.01546 -0.00408,-0.00389 -0.00794,-0.00708 -0.00858,-0.00708 -6.334e-4,0 -5.344e-4,-7.432e-4 2.197e-4,-0.00165 7.541e-4,-9.089e-4 0.00101,-0.00202 5.611e-4,-0.00246 -4.456e-4,-4.456e-4 1.133e-4,-8.102e-4 0.00124,-8.102e-4 0.00187,0 0.00263,-0.00143 0.00217,-0.00409 -9.69e-5,-5.582e-4 3.272e-4,-7.04e-4 9.424e-4,-3.235e-4 6.153e-4,3.802e-4 0.00183,-0.00103 0.0027,-0.00313 0.00169,-0.00409 3.182e-4,-0.00817 -0.00253,-0.00749 -8.035e-4,1.905e-4 -0.00126,-2.613e-4 -0.00101,-0.001 2.436e-4,-7.45e-4 -0.00411,-0.00605 -0.00968,-0.01178 -0.0064,-0.0066 -0.00987,-0.011088 -0.00944,-0.012223 3.788e-4,-9.873e-4 0.00115,-0.00151 0.00171,-0.00116 5.638e-4,3.484e-4 7.719e-4,-7.627e-4 4.625e-4,-0.00247 -4.306e-4,-0.00237 -4.29e-5,-0.0031 0.00165,-0.0031 0.00285,0 0.00793,-0.00354 0.00707,-0.00492 -3.608e-4,-5.839e-4 -7.4e-6,-0.00146 7.852e-4,-0.00195 8.659e-4,-5.352e-4 0.00111,-3.588e-4 6.178e-4,4.418e-4 -0.00154,0.00249 0.00417,0.00309 0.0068,7.141e-4 0.00235,-0.00213 0.00257,-0.00213 0.00405,-1.11e-4 8.598e-4,0.00118 0.00264,0.00214 0.00395,0.00214 0.00131,0 0.003,6.166e-4 0.00376,0.00137 0.00186,0.00187 0.00403,3.04e-4 0.00413,-0.00298 8.34e-5,-0.0026 1.245e-4,-0.00261 0.00114,-2.351e-4 5.819e-4,0.00135 0.0011,0.00174 0.00114,8.475e-4 6.14e-5,-0.00115 0.00133,-0.00142 0.0044,-9.304e-4 0.00371,5.902e-4 0.00431,3.452e-4 0.00431,-0.00177 0,-0.00136 8.227e-4,-0.00245 0.00185,-0.00245 0.00102,0 0.00185,-4.693e-4 0.00185,-0.00104 0,-5.736e-4 0.00107,-0.00154 0.00239,-0.00215 0.00231,-0.00107 0.00232,-0.00127 2.657e-4,-0.00566 -0.00117,-0.00248 -0.0046,-0.00644 -0.00762,-0.00877 -0.00302,-0.00233 -0.00631,-0.00541 -0.00731,-0.00684 -0.00111,-0.00159 -0.00314,-0.0026 -0.00527,-0.0026 -0.00416,0 -0.00534,-0.00241 -0.0038,-0.00776 0.00102,-0.00355 0.0016,-0.00394 0.00601,-0.00399 0.00679,-7.71e-5 0.01237,-0.0018 0.010222,-0.00317 -0.0012,-7.594e-4 -8.905e-4,-0.00105 0.00111,-0.00107 0.00165,-1.11e-5 0.00277,7.278e-4 0.00277,0.00183 0,0.00102 5.543e-4,0.00185 0.00123,0.00185 6.777e-4,0 0.00123,-0.00108 0.00123,-0.00239 0,-0.00131 5.543e-4,-0.00273 0.00123,-0.00315 6.764e-4,-4.184e-4 0.00123,-1.368e-4 0.00123,6.259e-4 0,8.593e-4 0.00101,0.00107 0.00265,5.452e-4 0.00146,-4.627e-4 0.00507,-9.847e-4 0.00803,-0.00116 0.00423,-2.507e-4 0.00497,-2.41e-5 0.00348,0.00107 -0.00154,0.00113 -0.00112,0.00138 0.00224,0.00138 0.00346,0 0.00406,-4.026e-4 0.0037,-0.00246 -2.389e-4,-0.00135 -9.65e-5,-0.00175 3.154e-4,-8.719e-4 5.891e-4,0.00125 0.00113,0.00127 0.00255,9.94e-5 0.00142,-0.00118 0.00172,-0.00116 0.00142,1.025e-4 -2.08e-4,8.764e-4 3.154e-4,0.00185 0.00116,0.00216 8.469e-4,3.103e-4 0.00154,-3.58e-5 0.00154,-7.694e-4 0,-7.334e-4 8.304e-4,-0.00133 0.00185,-0.00133 0.00102,0 0.00185,-4.352e-4 0.00185,-9.672e-4 0,-5.32e-4 9.689e-4,-0.00103 0.00215,-0.00111 0.00813,-5.304e-4 0.018774,-0.00419 0.018774,-0.00646 0,-0.00261 0.016959,-0.00352 0.022978,-0.00124 0.00167,6.353e-4 0.00308,5.854e-4 0.00352,-1.245e-4 4.027e-4,-6.513e-4 0.00181,-0.00118 0.00312,-0.00118 0.00131,0 0.00239,-5.54e-4 0.00239,-0.00123 0,-0.00178 0.0046,-0.00152 0.00534,3.077e-4 4.724e-4,0.00116 9.304e-4,0.0011 0.00188,-2.721e-4 6.913e-4,-9.96e-4 0.00164,-0.00143 0.0021,-9.666e-4 4.644e-4,4.644e-4 0.00192,2.657e-4 0.00325,-4.415e-4 0.00184,-9.867e-4 0.00294,-7.974e-4 0.00472,8.13e-4 0.00133,0.0012 0.00339,0.00182 0.00482,0.00144 0.00138,-3.599e-4 0.0025,-1.697e-4 0.0025,4.227e-4 0,5.925e-4 9.222e-4,7.234e-4 0.00205,2.911e-4 0.00138,-5.286e-4 0.00176,-3.142e-4 0.00116,6.542e-4 -5.341e-4,8.644e-4 -1.227e-4,0.00144 0.00103,0.00144 0.00114,0 0.00196,-0.00112 0.00202,-0.00277 8.43e-5,-0.00232 3.933e-4,-0.0021 0.0019,0.00136 0.00157,0.00359 0.00228,0.00406 0.00544,0.0036 0.00253,-3.721e-4 0.00364,-1.73e-5 0.00364,0.00117 0,9.383e-4 5.543e-4,0.00136 0.00123,9.451e-4 6.78e-4,-4.184e-4 0.00124,-3.58e-5 0.00125,8.506e-4 1.35e-5,0.00117 3.45e-4,0.00111 0.00121,-2.351e-4 0.00115,-0.00178 0.00132,-0.00153 0.00168,0.00246 9.13e-5,0.00102 9.165e-4,0.00169 0.00183,0.0015 9.178e-4,-1.93e-4 0.00239,2.456e-4 0.00326,9.747e-4 0.00116,9.642e-4 0.00177,8.921e-4 0.00224,-2.645e-4 4.174e-4,-0.00104 6.723e-4,-8.682e-4 7.356e-4,4.942e-4 1.237e-4,0.00265 0.00473,0.00592 0.00835,0.00592 0.00153,0 0.00554,0.00169 0.00891,0.00377 0.00337,0.00207 0.00725,0.00385 0.00864,0.00396 0.00138,1.043e-4 0.00252,5.359e-4 0.00252,9.592e-4 0,4.233e-4 0.00192,8.419e-4 0.00427,9.302e-4 0.00253,9.52e-5 0.00533,0.00122 0.00687,0.00276 0.00143,0.00143 0.00338,0.00229 0.00435,0.00192 9.639e-4,-3.696e-4 0.00175,-1.46e-4 0.00175,4.969e-4 0,6.429e-4 0.00138,0.00152 0.00307,0.00194 0.00169,4.236e-4 0.00277,0.00126 0.0024,0.00186 -3.691e-4,5.971e-4 1.892e-4,7.557e-4 0.00124,3.524e-4 0.00108,-4.144e-4 0.00191,-8.36e-5 0.00191,7.614e-4 0,8.22e-4 7.621e-4,0.0012 0.00169,8.447e-4 9.316e-4,-3.574e-4 0.00321,1.373e-4 0.00507,0.0011 0.00185,9.62e-4 0.00414,0.00175 0.00508,0.00175 9.38e-4,0 0.00171,7.386e-4 0.00171,0.00164 0,0.00155 0.00137,0.002 0.00646,0.00214 0.00119,3.3e-5 0.00215,5.426e-4 0.00215,0.00113 0,5.894e-4 0.00125,0.00145 0.00277,0.00192 0.00152,4.642e-4 0.00374,0.0017 0.00492,0.00274 0.00119,0.00104 0.00215,0.00154 0.00215,0.00112 0,-4.244e-4 0.00258,5.994e-4 0.00573,0.00228 0.00315,0.00168 0.00784,0.00361 0.010409,0.00431 0.00257,6.928e-4 0.00549,0.00208 0.00649,0.00307 9.974e-4,9.974e-4 0.00318,0.00181 0.00485,0.00181 0.00167,0 0.00334,8.058e-4 0.00372,0.00179 9.689e-4,0.00252 0.010116,0.00696 0.012482,0.00605 0.00108,-4.154e-4 0.00186,-2.718e-4 0.00172,3.191e-4 -5.18e-4,0.00227 0.00174,0.00538 0.0039,0.00538 0.00124,0 0.003,9.696e-4 0.00389,0.00215 0.00192,0.00253 0.011125,0.00769 0.013723,0.00769 0.00187,0 0.00203,0.00196 3.731e-4,0.00462 -5.422e-4,8.678e-4 -3.932e-4,0.00154 3.422e-4,0.00154 7.166e-4,0 0.0013,-5.144e-4 0.0013,-0.00114 0,-0.00228 0.00371,-0.00478 0.00613,-0.00414 0.00137,3.573e-4 0.00248,0.0011 0.00248,0.00165 0,0.00106 0.00489,0.00306 0.00646,0.00265 5.073e-4,-1.341e-4 9.234e-4,6.065e-4 9.234e-4,0.00165 0,0.00149 5.06e-4,0.00162 0.0024,6.075e-4 0.00178,-9.557e-4 0.00265,-8.583e-4 0.00339,3.811e-4 5.436e-4,9.152e-4 0.00376,0.00269 0.00714,0.00395 0.00339,0.00125 0.00643,0.00259 0.00677,0.00296 0.00185,0.00204 0.009,0.0051 0.010528,0.00452 0.00103,-3.966e-4 0.00178,4.1e-5 0.00178,0.00104 0,0.00161 0.0029,0.00321 0.00543,0.003 6.16e-4,-5.26e-5 0.00161,7.849e-4 0.00222,0.00186 6.026e-4,0.00108 0.00204,0.00196 0.00319,0.00196 0.00115,3.7e-6 0.00365,8.178e-4 0.00554,0.00181 0.0019,9.898e-4 0.00439,0.00196 0.00554,0.00215 0.00115,1.906e-4 0.00246,8.614e-4 0.00291,0.00149 4.536e-4,6.294e-4 0.00184,0.00127 0.00308,0.00142 0.00124,1.487e-4 0.0053,0.00148 0.00902,0.00296 0.00372,0.00148 0.0076,0.00278 0.00862,0.00289 0.00102,1.134e-4 0.0024,8.361e-4 0.00308,0.00161 6.78e-4,7.704e-4 0.00428,0.00237 0.008,0.00355 0.00903,0.00287 0.01238,0.00465 0.016694,0.00888 0.00199,0.00195 0.00611,0.00459 0.00916,0.00586 0.00305,0.00127 0.00641,0.00304 0.00748,0.00393 0.00107,8.886e-4 0.00259,0.00162 0.00339,0.00162 7.931e-4,0 0.00144,4.281e-4 0.00144,9.5e-4 0,0.00204 0.019057,0.016764 0.021466,0.016582 0.00179,-1.356e-4 0.00204,1.009e-4 8.602e-4,8.291e-4 -0.00131,8.121e-4 -0.00118,0.00136 6.363e-4,0.00272 0.00126,9.329e-4 0.00367,0.00379 0.00536,0.00634 0.00169,0.00256 0.00425,0.00495 0.00569,0.00533 0.00144,3.731e-4 0.00323,0.00202 0.00397,0.00366 7.475e-4,0.00164 0.00184,0.00298 0.00243,0.00298 0.00147,0 0.00958,0.00784 0.0089,0.00861 -2.966e-4,3.382e-4 0.00192,0.00248 0.00492,0.00475 0.003,0.00228 0.00651,0.00616 0.0078,0.00862 0.00128,0.00246 0.0035,0.0053 0.00492,0.0063 0.00499,0.00351 0.00899,0.00804 0.00846,0.00956 -2.94e-4,8.469e-4 1.86e-5,0.00154 6.95e-4,0.00154 6.762e-4,0 0.00146,-6.868e-4 0.00174,-0.00153 2.805e-4,-8.399e-4 0.00129,9.76e-5 0.00226,0.00208 0.00103,0.00212 0.00461,0.00528 0.00866,0.00764 0.00729,0.00425 0.014628,0.011583 0.014628,0.01462 0,9.918e-4 5.919e-4,0.0018 0.00131,0.0018 0.00186,0 0.00983,0.00866 0.011152,0.012122 6.08e-4,0.00159 0.00212,0.00315 0.00337,0.00348 0.00124,3.248e-4 0.00376,0.00297 0.0056,0.00587 0.00183,0.0029 0.00455,0.00595 0.00603,0.00677 0.00284,0.00157 0.00747,0.00803 0.00883,0.012311 4.429e-4,0.0014 0.00128,0.00254 0.00185,0.00254 0.00176,0 0.014789,0.01245 0.014789,0.01413 0,8.646e-4 8.792e-4,0.0023 0.00195,0.00319 0.00122,0.00101 0.00176,0.00291 0.00144,0.00507 -2.885e-4,0.00196 6.52e-5,0.00345 8.159e-4,0.00345 0.00201,-1.21e-5 0.0093,0.00882 0.010163,0.012319 4.188e-4,0.00169 0.00221,0.00446 0.00399,0.00615 0.00178,0.00169 0.00528,0.00565 0.0078,0.0088 l 0.00457,0.00572 -0.00305,7.666e-4 c -0.00171,4.281e-4 -0.00305,0.00166 -0.00305,0.00279 0,0.00112 3.637e-4,0.00166 8.096e-4,0.00122 4.456e-4,-4.456e-4 0.00163,-1.267e-4 0.00264,7.084e-4 0.00156,0.00129 0.0017,0.00109 9.171e-4,-0.00136 -7.527e-4,-0.00237 -5.14e-4,-0.0028 0.00136,-0.00244 0.00309,5.891e-4 0.00371,0.00554 8.095e-4,0.00638 -0.00182,5.234e-4 -0.00177,6.012e-4 2.819e-4,4.241e-4 0.00218,-1.879e-4 0.00579,0.0019 0.011341,0.00657 8.475e-4,7.115e-4 0.00154,0.00233 0.00154,0.00361 0,0.0016 0.0012,0.00258 0.00387,0.00317 0.00213,4.67e-4 0.00503,0.0022 0.00646,0.00386 0.00222,0.00258 0.00422,0.00354 0.00834,0.00401 0.00116,1.329e-4 0.00661,0.00913 0.00624,0.010285 -1.718e-4,5.261e-4 5.247e-4,0.00128 0.00155,0.00167 0.00102,3.919e-4 0.00186,0.00139 0.00186,0.00222 0,8.279e-4 0.00132,0.00476 0.00294,0.00874 0.00298,0.00733 0.003,0.011074 3.72e-5,0.00994 -0.00103,-3.959e-4 -0.00138,2.6e-5 -9.424e-4,0.00116 9.108e-4,0.00237 0.0025,0.00226 0.00392,-2.738e-4 9.867e-4,-0.00177 0.00143,-0.00152 0.00314,0.00178 0.00109,0.00211 0.00199,0.00473 0.00199,0.00582 0,0.00109 0.00103,0.0043 0.00228,0.00714 0.00126,0.00284 0.00355,0.00849 0.00509,0.012551 0.00154,0.00406 0.00323,0.00849 0.00374,0.00985 5.181e-4,0.00135 0.00154,0.00412 0.00226,0.00616 7.274e-4,0.00203 0.00197,0.00535 0.00278,0.00739 7.969e-4,0.00203 0.00161,0.0045 0.00181,0.00549 1.96e-4,9.867e-4 9.234e-4,0.00293 0.00162,0.00431 6.958e-4,0.00138 0.00232,0.00667 0.00362,0.011748 0.00129,0.00508 0.00305,0.011172 0.00392,0.013542 8.602e-4,0.00237 0.00197,0.00542 0.00246,0.00677 4.912e-4,0.00135 0.00144,0.00385 0.00211,0.00554 8.286e-4,0.00211 7.843e-4,0.00376 -1.409e-4,0.00522 -0.00108,0.0017 -6.213e-4,0.00349 0.00216,0.00862 0.00194,0.00356 0.00485,0.00892 0.00646,0.011915 0.00162,0.00299 0.00317,0.00668 0.00344,0.0082 2.751e-4,0.00152 0.00112,0.00392 0.00188,0.00533 7.59e-4,0.00141 0.00111,0.00257 7.78e-4,0.00257 -3.275e-4,0 -1.4e-5,0.00166 6.957e-4,0.00369 7.083e-4,0.00203 0.00206,0.00369 0.00301,0.00369 9.487e-4,0 0.00173,5.543e-4 0.00173,0.00123 0,6.761e-4 -5.651e-4,0.00123 -0.00125,0.00123 -0.00142,0 -3.114e-4,0.00591 0.00156,0.00829 6.577e-4,8.374e-4 8.791e-4,0.00235 4.898e-4,0.00337 -3.905e-4,0.00102 4.926e-4,0.00518 0.00196,0.00926 0.00223,0.0062 0.00245,0.00821 0.00137,0.012266 -8.348e-4,0.00314 -8.728e-4,0.00527 -9.91e-5,0.00605 7.716e-4,7.729e-4 2.644e-4,0.0025 -0.00144,0.0049 l -0.00264,0.0037 0.00294,0.00433 c 0.00161,0.00238 0.00467,0.00606 0.00679,0.00818 0.00469,0.00469 0.00534,0.00986 0.00292,0.023364 -0.00101,0.00565 -1.704e-4,0.010136 0.00307,0.016392 9.867e-4,0.0019 0.00197,0.00467 0.00218,0.00615 2.094e-4,0.00148 0.00154,0.00709 0.00297,0.012463 0.00264,0.00996 0.00254,0.013508 -4.12e-4,0.014641 -0.0012,4.576e-4 -0.00191,0.00488 -0.00255,0.01581 -4.953e-4,0.00835 -0.00116,0.016282 -0.00149,0.017636 -3.235e-4,0.00135 -4.805e-4,0.00412 -3.49e-4,0.00615 1.317e-4,0.00203 1.477e-4,0.00452 3.72e-5,0.00554 -1.121e-4,0.00102 -2.08e-4,0.00365 -2.12e-4,0.00585 -3.7e-6,0.0022 -5.798e-4,0.004 -0.00128,0.004 -7.4e-4,0 -0.00107,0.00205 -8.033e-4,0.00493 4.214e-4,0.00441 1.853e-4,0.00493 -0.00228,0.00493 -0.00386,0 -0.00902,0.00256 -0.00902,0.00447 0,8.855e-4 -0.00111,0.0022 -0.00246,0.00292 -0.00144,7.716e-4 -0.00246,0.00258 -0.00246,0.00435 0,0.00167 -5.543e-4,0.00304 -0.00123,0.00304 -6.767e-4,0 -0.00123,0.00116 -0.00123,0.00259 0,0.00142 -0.00142,0.00428 -0.00314,0.00633 -0.00173,0.00206 -0.00346,0.00532 -0.00385,0.00726 -3.866e-4,0.00194 -0.00119,0.00352 -0.00178,0.00352 -5.919e-4,0 -0.00108,0.00101 -0.00108,0.00223 0,0.00282 -0.00259,0.00642 -0.00496,0.00688 -0.00488,9.55e-4 -0.00858,0.00233 -0.00858,0.0032 0,5.287e-4 -9.677e-4,8.855e-4 -0.00216,7.906e-4 -0.00154,-1.224e-4 -0.00225,8.791e-4 -0.00251,0.00352 -1.933e-4,0.00203 -4.496e-4,0.00467 -5.717e-4,0.00588 -1.219e-4,0.0012 -8.855e-4,0.00193 -0.0017,0.00162 -8.349e-4,-3.194e-4 -0.00229,0.00142 -0.00333,0.00397 -0.00187,0.0046 -0.0062,0.00922 -0.00745,0.00796 -8.665e-4,-8.665e-4 -0.00343,0.00571 -0.00269,0.0069 3.006e-4,4.871e-4 -0.00166,0.00224 -0.00436,0.0039 -0.00328,0.00202 -0.00472,0.00369 -0.00437,0.00507 3.529e-4,0.00137 -4.375e-4,0.0023 -0.00238,0.00279 -0.00249,6.24e-4 -0.00652,0.00598 -0.00678,0.00899 -4.19e-5,5.154e-4 -5.114e-4,0.00149 -0.00104,0.00217 -5.275e-4,6.767e-4 -8.286e-4,0.00262 -6.641e-4,0.00431 1.61e-4,0.00169 -1.86e-5,0.00361 -3.999e-4,0.00426 -3.812e-4,6.514e-4 -8.665e-4,0.00342 -0.00108,0.00615 -7.147e-4,0.0092 -9.867e-4,0.00989 -0.00438,0.011377 -0.00186,8.159e-4 -0.00338,0.00201 -0.00338,0.00266 0,6.451e-4 -0.00104,9.044e-4 -0.00232,5.677e-4 -0.00128,-3.342e-4 -0.00269,-4.7e-6 -0.00315,7.337e-4 -4.55e-4,7.336e-4 -1.732e-4,0.00134 6.267e-4,0.00134 0.00105,0 0.00101,5.395e-4 -1.597e-4,0.00195 -9.171e-4,0.0011 -0.0028,0.00172 -0.00435,0.00142 -0.00193,-3.691e-4 -0.00319,3.194e-4 -0.00428,0.00234 -8.412e-4,0.00157 -0.00256,0.00319 -0.0038,0.00359 -0.00125,3.959e-4 -0.00226,0.00157 -0.00226,0.00261 0,0.00118 -6.957e-4,0.00162 -0.00185,0.00119 -0.00105,-4.027e-4 -0.00185,-2.8e-5 -0.00185,8.728e-4 0,8.728e-4 -0.00199,0.00253 -0.00443,0.00369 -0.00288,0.00137 -0.00419,0.00272 -0.00376,0.00386 4.456e-4,0.00116 6.66e-5,0.00152 -0.00113,0.00106 -9.866e-4,-3.798e-4 -0.00249,-1.879e-4 -0.00332,4.281e-4 -0.00178,0.00131 -0.017191,6.053e-4 -0.016355,-7.463e-4 3.114e-4,-5.046e-4 -2.16e-4,-9.171e-4 -0.00117,-9.171e-4 -9.55e-4,0 -0.0015,3.785e-4 -0.00122,8.412e-4 7.717e-4,0.00125 -0.00457,0.0038 -0.0074,0.00352 -0.00449,-4.308e-4 -0.00677,1.355e-4 -0.00682,0.0017 -2.79e-5,8.475e-4 -0.00193,0.00274 -0.00424,0.00421 -0.00375,0.00239 -0.00424,0.00245 -0.00473,6.16e-4 -3.825e-4,-0.00144 -5.851e-4,-0.00124 -6.856e-4,6.768e-4 -1.316e-4,0.00252 -0.00446,0.00614 -0.00661,0.00553 -5.073e-4,-1.436e-4 -9.234e-4,3.247e-4 -9.234e-4,0.00104 0,7.146e-4 -5.543e-4,9.613e-4 -0.00123,5.435e-4 -6.761e-4,-4.188e-4 -0.00123,1.355e-4 -0.00123,0.00123 0,0.00109 -5.677e-4,0.00164 -0.00126,0.00121 -6.938e-4,-4.294e-4 -0.00113,-3.234e-4 -9.689e-4,2.349e-4 1.61e-4,5.583e-4 -3.986e-4,0.00226 -0.00124,0.00378 -0.00121,0.00218 -0.00121,0.00277 -1.86e-5,0.00277 0.00281,0 -0.00655,0.00835 -0.010161,0.00907 -0.00311,6.227e-4 -0.00358,0.00127 -0.00358,0.00492 0,0.00405 -0.00156,0.00571 -0.00541,0.00571 -8.336e-4,0 -0.00296,-0.00152 -0.00473,-0.00338 z m 0.068895,-0.044139 c -4.093e-4,-4.093e-4 -0.00147,-4.523e-4 -0.00236,-9.73e-5 -9.803e-4,3.933e-4 -6.894e-4,6.831e-4 7.463e-4,7.464e-4 0.0013,5.35e-5 0.00202,-2.376e-4 0.00161,-6.452e-4 z M 4.5157072,0.71641294 c 0,-2.55e-4 -8.443e-4,-0.00116 -0.00188,-0.00202 -0.00157,-0.0013 -0.00175,-0.00123 -0.0011,4.643e-4 6.616e-4,0.00172 0.00297,0.00293 0.00297,0.00156 z m -0.013126,-0.053483 c -0.00194,-0.00493 -0.00411,-0.00684 -0.0041,-0.0036 6.1e-6,0.00194 0.00486,0.010006 0.00559,0.00928 2.953e-4,-2.953e-4 -3.731e-4,-0.00285 -0.00148,-0.00568 z m -0.00596,-0.018684 c 4.187e-4,-6.78e-4 -4.12e-4,-0.00123 -0.00185,-0.00123 -0.00143,0 -0.00227,5.543e-4 -0.00185,0.00123 4.187e-4,6.761e-4 0.00125,0.00123 0.00185,0.00123 5.972e-4,0 0.00143,-5.543e-4 0.00185,-0.00123 z m -0.008,-0.011622 c 0,-0.00185 -0.00221,-0.00381 -0.00319,-0.00283 -8.589e-4,8.589e-4 8.412e-4,0.00461 0.00209,0.00461 6.053e-4,0 0.0011,-7.988e-4 0.0011,-0.00177 z m -0.00616,-0.011001 c 0,-2.55e-4 -8.304e-4,-0.00115 -0.00185,-0.002 -0.00151,-0.00126 -0.00185,-0.00117 -0.00185,4.644e-4 0,0.0011 8.304e-4,0.002 0.00185,0.002 0.00102,0 0.00185,-2.094e-4 0.00185,-4.644e-4 z m 0.4513495,-0.031328 c -0.00386,-4.469e-4 -0.00511,2.228e-4 -0.00394,0.00212 5.261e-4,8.507e-4 0.00187,7.773e-4 0.00409,-2.255e-4 l 0.00331,-0.00149 z m -0.01063,-0.027841 c 0,-2.979e-4 -5.542e-4,-8.855e-4 -0.00123,-0.0013 -6.767e-4,-4.187e-4 -0.00123,-1.745e-4 -0.00123,5.422e-4 0,7.166e-4 5.543e-4,0.0013 0.00123,0.0013 6.768e-4,0 0.00123,-2.443e-4 0.00123,-5.435e-4 z m -0.017235,-0.011768 c -0.00241,-0.00156 -0.00404,-0.00156 -0.00308,0 4.187e-4,6.78e-4 0.0017,0.00122 0.00284,0.00121 0.0018,-1.63e-5 0.00183,-1.839e-4 2.36e-4,-0.00121 z m -0.00154,-0.013029 c -0.00117,-0.00117 -0.00352,7.273e-4 -0.00265,0.00214 5.194e-4,8.399e-4 0.00121,8.203e-4 0.00209,-6.45e-5 7.248e-4,-7.248e-4 9.759e-4,-0.00166 5.59e-4,-0.00208 z m -0.00338,-0.00246 c 0,-9.42e-5 -0.00135,8.61e-5 -0.00299,3.999e-4 -0.00184,3.517e-4 -0.00275,0.0012 -0.00237,0.0022 4.925e-4,0.00128 0.00112,0.0012 0.00299,-3.999e-4 0.0013,-0.00111 0.00237,-0.0021 0.00237,-0.0022 z m -0.47183,-0.00987 c -4.093e-4,-4.093e-4 -0.00147,-4.523e-4 -0.00236,-9.72e-5 -9.822e-4,3.933e-4 -6.9e-4,6.844e-4 7.438e-4,7.438e-4 0.0013,5.34e-5 0.00202,-2.375e-4 0.00162,-6.466e-4 z m -0.00461,-0.00387 c -9.8e-6,-5.073e-4 -5.556e-4,-0.00175 -0.00121,-0.00277 -9.651e-4,-0.00149 -0.0012,-0.00132 -0.00121,9.234e-4 -9.8e-6,0.00152 5.355e-4,0.00277 0.00121,0.00277 6.78e-4,0 0.00122,-4.16e-4 0.00121,-9.234e-4 z m 0.00346,-0.00663 c -3.878e-4,-0.00246 -5.61e-4,-0.00229 -0.00113,0.00113 -4.053e-4,0.00245 -2.255e-4,0.00359 4.577e-4,0.00291 6.2e-4,-6.201e-4 9.221e-4,-0.00244 6.698e-4,-0.00404 z m -0.00344,-0.0023 c 0,-6.78e-4 -5.865e-4,-0.00123 -0.0013,-0.00123 -7.166e-4,0 -9.607e-4,5.543e-4 -5.435e-4,0.00123 4.187e-4,6.761e-4 0.00101,0.00123 0.0013,0.00123 2.979e-4,0 5.435e-4,-5.543e-4 5.435e-4,-0.00123 z m -0.032008,-0.048012 c 0,-6.761e-4 -5.543e-4,-0.00123 -0.00123,-0.00123 -6.761e-4,0 -0.00123,5.543e-4 -0.00123,0.00123 0,6.78e-4 5.543e-4,0.00123 0.00123,0.00123 6.761e-4,0 0.00123,-5.543e-4 0.00123,-0.00123 z m 0.4388682,-0.00616 c -9.943e-4,-0.00161 -0.0043,-4.84e-5 -0.0043,0.00203 0,0.00138 5.301e-4,0.00147 0.0025,4.214e-4 0.00137,-7.356e-4 0.00219,-0.00184 0.00181,-0.00245 z m -0.018461,-0.00615 c 4.187e-4,-6.761e-4 1.744e-4,-0.00123 -5.436e-4,-0.00123 -7.166e-4,0 -0.0013,5.543e-4 -0.0013,0.00123 0,6.78e-4 2.443e-4,0.00123 5.436e-4,0.00123 2.992e-4,0 8.854e-4,-5.543e-4 0.0013,-0.00123 z m -0.4253315,-0.00246 c 0,-6.761e-4 -5.543e-4,-0.00123 -0.00123,-0.00123 -6.761e-4,0 -0.00123,5.543e-4 -0.00123,0.00123 0,6.78e-4 5.543e-4,0.00123 0.00123,0.00123 6.761e-4,0 0.00123,-5.543e-4 0.00123,-0.00123 z m 0.4136364,-0.00508 c 0,-0.00214 -0.00219,-0.00102 -0.00284,0.00145 -5.436e-4,0.00208 -3.476e-4,0.00227 0.00109,0.00108 9.62e-4,-7.988e-4 0.00175,-0.00194 0.00175,-0.00253 z M 4.6027792,0.31727034 c -4.094e-4,-4.091e-4 -0.00147,-4.529e-4 -0.00236,-9.72e-5 -9.823e-4,3.929e-4 -6.901e-4,6.849e-4 7.437e-4,7.437e-4 0.0013,5.35e-5 0.00203,-2.375e-4 0.00162,-6.465e-4 z m -0.023672,-0.011567 c 4.187e-4,-6.774e-4 -1.356e-4,-0.00123 -0.00123,-0.00123 -0.0011,0 -0.00165,5.54e-4 -0.00123,0.00123 4.187e-4,6.773e-4 9.727e-4,0.00123 0.00123,0.00123 2.59e-4,0 8.121e-4,-5.541e-4 0.00123,-0.00123 z m 0.077557,0.74971586 c 4.187e-4,-6.768e-4 0.00101,-0.00123 0.0013,-0.00123 2.979e-4,0 5.435e-4,5.543e-4 5.435e-4,0.00123 0,6.767e-4 -5.865e-4,0.00123 -0.0013,0.00123 -7.166e-4,0 -9.607e-4,-5.543e-4 -5.422e-4,-0.00123 z M 4.5397132,0.87199134 c -4.187e-4,-6.768e-4 -1.744e-4,-0.00123 5.436e-4,-0.00123 7.166e-4,0 0.0013,5.543e-4 0.0013,0.00123 0,6.767e-4 -2.443e-4,0.00123 -5.436e-4,0.00123 -2.979e-4,0 -8.854e-4,-5.543e-4 -0.0013,-0.00123 z M 4.2965785,0.25781524 c 0,-6.095e-4 -0.0019,-0.00111 -0.00423,-0.00111 -0.0046,0 -0.010352,-0.00315 -0.00819,-0.00448 7.128e-4,-4.405e-4 0.00248,-1.682e-4 0.00392,6.052e-4 0.00145,7.735e-4 0.0045,0.00119 0.0068,9.196e-4 0.00229,-2.676e-4 0.00417,-4.37e-5 0.00417,4.973e-4 0,5.411e-4 -5.366e-4,9.839e-4 -0.00119,9.839e-4 -6.559e-4,0 -8.736e-4,8.31e-4 -4.838e-4,0.00185 3.897e-4,0.00102 3.724e-4,0.00185 -3.87e-5,0.00185 -4.109e-4,0 -7.472e-4,-4.986e-4 -7.471e-4,-0.00111 z"
     id="path_uchiutu"
     inkscape:connector-curvature="0"
     sodipodi:nodetypes="cccsccsscccccscscsccccsccccccccscscsscssssscssssccccscscccccssscccccsccccscsccsccscccssccccsccsccccccccsssccssccsssssccssccscccccscscscccccssccccsssscscsscccssscscccscccccsssssccssccsccssccscccscccccccssccscscscccsccsscsssscscscccscscsscscscccccscccccccccsccccssccccccscccscscccsscccccsscccccsccsccscsccscccccsccscsscsscsssccccccccsscsssccccscccssscscsccccscssssssccsscscccccscssccccccssccssccsscsccccsscccccccscscccsssscccccccsccscccccscscscssscssscscccscssscccccccccscccsccccccccsccccccsscssssssscscccssscssssssccscccccscscssssscsssccscscsscscc" />
</svg>
