<?xml version="1.0" encoding="UTF-8" standalone="no"?>
<svg
   xmlns:dc="http://purl.org/dc/elements/1.1/"
   xmlns:cc="http://creativecommons.org/ns#"
   xmlns:rdf="http://www.w3.org/1999/02/22-rdf-syntax-ns#"
   xmlns:svg="http://www.w3.org/2000/svg"
   xmlns="http://www.w3.org/2000/svg"
   xmlns:sodipodi="http://sodipodi.sourceforge.net/DTD/sodipodi-0.dtd"
   xmlns:inkscape="http://www.inkscape.org/namespaces/inkscape"
   width="20"
   height="20"
   version="1.1"
   viewBox="0 0 5.2917 5.2917"
   id="svg6"
   sodipodi:docname="掛音.svg"
   inkscape:version="0.92.4 (5da689c313, 2019-01-14)">
  <metadata
     id="metadata12">
    <rdf:RDF>
      <cc:Work
         rdf:about="">
        <dc:format>image/svg+xml</dc:format>
        <dc:type
           rdf:resource="http://purl.org/dc/dcmitype/StillImage" />
        <dc:title></dc:title>
      </cc:Work>
    </rdf:RDF>
  </metadata>
  <defs
     id="defs10" />
  <sodipodi:namedview
     pagecolor="#ffffff"
     bordercolor="#666666"
     borderopacity="1"
     objecttolerance="10"
     gridtolerance="10"
     guidetolerance="10"
     inkscape:pageopacity="0"
     inkscape:pageshadow="2"
     inkscape:window-width="1920"
     inkscape:window-height="2035"
     id="namedview8"
     showgrid="false"
     inkscape:zoom="47.2"
     inkscape:cx="6.5724991"
     inkscape:cy="15.304105"
     inkscape:window-x="-13"
     inkscape:window-y="-13"
     inkscape:window-maximized="0"
     inkscape:current-layer="svg6" />
  <path
     style="fill:#000000;stroke-width:0.00132109"
     d="m 4.9049528,1.4569162 c -0.00146,-6.241e-4 -0.00219,-0.00118 -0.00165,-0.00123 5.428e-4,-5.15e-5 -0.00105,-0.00225 -0.00355,-0.00489 -0.00283,-0.00299 -0.00529,-0.00451 -0.00653,-0.00403 -0.00126,4.838e-4 -0.00231,-1.824e-4 -0.00283,-0.00181 -4.505e-4,-0.00141 -0.00196,-0.00257 -0.00338,-0.00257 -0.0014,0 -0.00255,-7.053e-4 -0.00255,-0.00157 0,-0.00273 -0.00587,-0.010346 -0.00751,-0.00973 -9.195e-4,3.45e-4 -0.00174,-8.863e-4 -0.00198,-0.00297 -2.891e-4,-0.0025 -0.00112,-0.0035 -0.00281,-0.00336 -0.00155,1.289e-4 -0.00215,-4.506e-4 -0.0017,-0.00164 9.787e-4,-0.00255 -0.00377,-0.013187 -0.00632,-0.014167 -0.00121,-4.653e-4 -0.00176,-0.00165 -0.00131,-0.00282 4.541e-4,-0.00118 -1.051e-4,-0.00236 -0.00134,-0.00283 -0.00117,-4.469e-4 -0.00212,-0.00221 -0.00212,-0.00391 0,-0.00171 -0.00134,-0.0045 -0.00298,-0.00621 -0.00164,-0.00171 -0.0036,-0.0042 -0.00434,-0.00553 -0.00169,-0.00298 -0.00519,-0.00354 -0.023908,-0.00381 l -0.014713,-2.157e-4 -0.00136,-0.00528 c -0.00391,-0.015234 -0.00741,-0.025691 -0.0082,-0.024422 -5.945e-4,9.601e-4 -0.00142,7.829e-4 -0.00252,-5.429e-4 -0.00123,-0.00148 -0.00246,-0.00166 -0.00491,-7.276e-4 -0.00198,7.497e-4 -0.00298,7.571e-4 -0.00252,2.58e-5 4.137e-4,-6.721e-4 -5.872e-4,-0.00165 -0.00224,-0.00217 -0.00329,-0.00105 -0.00641,-0.00459 -0.00544,-0.00616 5.761e-4,-9.344e-4 -0.00147,-0.00154 -0.00386,-0.00115 -5.649e-4,9.32e-5 -0.00137,-7.275e-4 -0.00179,-0.00182 -4.209e-4,-0.0011 -0.00159,-0.002 -0.0026,-0.002 -0.00229,0 -0.00243,-0.00219 -1.884e-4,-0.00309 9.566e-4,-3.878e-4 6.463e-4,-7.091e-4 -7.386e-4,-7.718e-4 -0.00131,-5.75e-5 -0.00202,-6.98e-4 -0.00157,-0.00143 4.505e-4,-7.276e-4 -4.063e-4,-0.00132 -0.0019,-0.00132 -0.0015,0 -0.00272,-5.798e-4 -0.00272,-0.00129 0,-7.091e-4 -0.00177,-0.00221 -0.00396,-0.00334 -0.00219,-0.00113 -0.00396,-0.00293 -0.00396,-0.004 0,-0.00107 -5.945e-4,-0.00195 -0.00132,-0.00195 -7.276e-4,0 -0.00132,-9.158e-4 -0.00132,-0.00203 0,-0.00112 -0.00208,-0.00512 -0.00462,-0.0089 -0.00255,-0.00378 -0.00462,-0.00757 -0.00462,-0.00842 0,-8.567e-4 -4.579e-4,-0.00176 -0.00102,-0.002 -5.613e-4,-2.421e-4 -0.00245,-0.00505 -0.0042,-0.010678 -0.00174,-0.00563 -0.00364,-0.010237 -0.00417,-0.010237 -5.502e-4,0 -0.00138,-0.00119 -0.00184,-0.00264 -9.123e-4,-0.00288 -0.00462,-0.00367 -0.00465,-9.897e-4 -1.5e-5,0.00113 -4.025e-4,0.00105 -0.00123,-2.67e-4 -6.685e-4,-0.00106 -9.197e-4,-0.00239 -5.615e-4,-0.00297 3.582e-4,-5.798e-4 -4.247e-4,-0.0011 -0.00174,-0.00116 -0.00138,-5.95e-5 -0.00169,-3.841e-4 -7.386e-4,-7.719e-4 0.00219,-8.863e-4 0.00212,-0.00309 -1.051e-4,-0.00309 -9.676e-4,0 -0.00176,-0.00104 -0.00174,-0.00231 3.58e-5,-0.00771 -6.02e-4,-0.00986 -0.0031,-0.010517 -0.00145,-3.803e-4 -0.00264,-0.00151 -0.00264,-0.00252 0,-10e-4 -0.00104,-0.00288 -0.00231,-0.00417 -0.00127,-0.00129 -0.00338,-0.00381 -0.00469,-0.00561 -0.0013,-0.0018 -0.00202,-0.00253 -0.00157,-0.00162 4.395e-4,9.085e-4 1.704e-4,0.00165 -5.983e-4,0.00165 -0.0014,0 -0.00177,-0.00121 -0.00174,-0.00567 10e-6,-0.0013 -2.979e-4,-0.00205 -6.795e-4,-0.00167 -3.803e-4,3.804e-4 -0.00154,-3.386e-4 -0.00257,-0.0016 -0.00103,-0.00126 -0.0015,-0.00155 -0.00105,-6.389e-4 0.00119,0.00234 -5.74e-5,0.00205 -0.00276,-6.61e-4 -0.00243,-0.00243 -0.00844,-0.0033 -0.00844,-0.00123 0,6.648e-4 -0.00119,8.937e-4 -0.00264,5.17e-4 -0.00145,-3.804e-4 -0.00264,-7.92e-5 -0.00264,6.685e-4 0,8.051e-4 -8.087e-4,6.869e-4 -0.00198,-2.857e-4 -0.00149,-0.00123 -0.00243,-0.00127 -0.00379,-1.447e-4 -0.0021,0.00174 -0.0042,-1.408e-4 -0.00501,-0.00448 -2.696e-4,-0.00146 -0.00137,-0.00264 -0.00246,-0.00264 -0.00108,0 -0.00243,-7.423e-4 -0.00302,-0.00165 -5.797e-4,-9.085e-4 -0.00255,-0.00165 -0.00438,-0.00165 -0.00215,0 -0.00298,-5.281e-4 -0.00238,-0.00151 6.462e-4,-0.00105 -1.487e-4,-0.00131 -0.00257,-8.42e-4 -0.00193,3.68e-4 -0.0035,1.764e-4 -0.0035,-4.284e-4 0,-6.02e-4 -8.752e-4,-7.608e-4 -0.00195,-3.489e-4 -0.00107,4.099e-4 -0.00289,-2.023e-4 -0.00405,-0.00136 -0.00116,-0.00116 -0.00296,-0.00211 -0.004,-0.00211 -0.00113,0 -0.0019,-0.00132 -0.0019,-0.0033 0,-0.00182 -5.945e-4,-0.00338 -0.00132,-0.00347 -7.274e-4,-9.11e-5 -0.00207,-2.446e-4 -0.00298,-3.426e-4 -9.934e-4,-1.07e-4 -0.00165,-0.00213 -0.00165,-0.00507 0,-0.00269 -9.898e-4,-0.00606 -0.00221,-0.00747 -0.00121,-0.00142 -0.00193,-0.00285 -0.0016,-0.00318 3.304e-4,-3.306e-4 -1.191e-4,-0.00218 -9.973e-4,-0.00411 -0.00117,-0.00257 -0.0019,-0.00306 -0.00272,-0.00182 -7.238e-4,0.00108 -9.97e-4,2.617e-4 -7.607e-4,-0.00227 2.497e-4,-0.00269 -1.845e-4,-0.00385 -0.00134,-0.00361 -9.417e-4,1.923e-4 -0.00161,-4.025e-4 -0.0015,-0.00132 7.754e-4,-0.0059 -2.082e-4,-0.00894 -0.00289,-0.00894 -0.00219,0 -0.00264,-6.057e-4 -0.00208,-0.00275 5.245e-4,-0.00201 2.099e-4,-0.00255 -0.00117,-0.00202 -0.00125,4.801e-4 -0.0019,-1.784e-4 -0.0019,-0.00195 0,-0.00147 -5.946e-4,-0.00231 -0.00132,-0.00186 -7.498e-4,4.617e-4 -0.00132,-6.462e-4 -0.00132,-0.00256 0,-0.00201 -7.46e-4,-0.00338 -0.00184,-0.00338 -0.00101,0 -0.00222,-0.00154 -0.0027,-0.00342 -5.872e-4,-0.00234 -0.00149,-0.00318 -0.00286,-0.00266 -0.00116,4.431e-4 -0.00165,2.042e-4 -0.00117,-5.725e-4 4.543e-4,-7.349e-4 4.285e-4,-0.00315 -5.74e-5,-0.00536 -6.131e-4,-0.0028 -0.00147,-0.0038 -0.00281,-0.00329 -0.00106,4.062e-4 -0.00157,1.725e-4 -0.00115,-5.207e-4 4.285e-4,-6.906e-4 -4.283e-4,-0.00246 -0.00191,-0.00394 -0.00147,-0.00147 -0.00324,-0.0052 -0.00395,-0.00827 -6.905e-4,-0.00307 -0.00217,-0.00626 -0.00329,-0.00707 -0.00112,-8.199e-4 -0.00179,-0.00174 -0.00149,-0.00203 9.934e-4,-9.935e-4 -0.00222,-0.01363 -0.00426,-0.016743 -0.0011,-0.00168 -0.00279,-0.00276 -0.00374,-0.00239 -0.00128,4.912e-4 -0.00155,-3.065e-4 -10e-4,-0.00302 4.579e-4,-0.0023 2.98e-5,-0.0044 -0.00114,-0.00557 -0.00104,-0.00103 -0.0019,-0.00277 -0.00191,-0.00385 -1.5e-5,-0.00108 -0.0011,-0.00434 -0.00239,-0.00725 -0.00131,-0.00291 -0.00229,-0.00573 -0.00217,-0.00627 1.13e-4,-5.465e-4 -2.71e-4,-9.897e-4 -8.53e-4,-9.897e-4 -9.639e-4,0 -0.00432,-0.0078 -0.00441,-0.010212 -4.97e-5,-0.00146 -0.00687,-0.014081 -0.00811,-0.014996 -5.687e-4,-4.21e-4 -6.685e-4,-0.00172 -2.197e-4,-0.00289 4.506e-4,-0.00117 1.627e-4,-0.0032 -6.352e-4,-0.00452 -0.00119,-0.00196 -0.0013,-0.00167 -6.02e-4,0.00157 5.91e-4,0.00276 4.247e-4,0.00356 -5.465e-4,0.00264 -7.682e-4,-7.276e-4 -0.00176,-0.00378 -0.00219,-0.00679 -9.418e-4,-0.00645 -0.00768,-0.020951 -0.010475,-0.022508 -0.00107,-5.983e-4 -0.0019,-0.00138 -0.00183,-0.00175 6.74e-5,-3.634e-4 -9.269e-4,-0.00382 -0.00221,-0.00768 -0.00128,-0.00386 -0.002,-0.00735 -0.0016,-0.007753 4.027e-4,-4.0253e-4 -1.822e-4,-0.001647 -0.0013,-0.002765 -0.00131,-0.001307 -0.00176,-0.003258 -0.00125,-0.005456 0.00176,-0.007725 0.00177,-0.0121446 1.5e-5,-0.013895 -0.00154,-0.00154 -0.00141,-0.002326 8.235e-4,-0.005174 0.00637,-0.008111 0.00887,-0.0210326 0.00653,-0.0339309 -0.0013,-0.007188 -0.00121,-0.008463 8.013e-4,-0.0106819 0.0015,-0.001651 0.00221,-0.004421 0.00207,-0.008037 -1.547e-4,-0.003957 5.503e-4,-0.006332 0.0025,-0.008402 0.00149,-0.001588 0.00269,-0.004004 0.00267,-0.00537 -3.571e-4,-0.0181163 2.388e-4,-0.0233866 0.00331,-0.0293105 0.00124,-0.00239 0.00157,-0.005718 0.00103,-0.0103028 -4.875e-4,-0.004145 -1.328e-4,-0.008763 9.121e-4,-0.0119034 9.381e-4,-0.002822 0.00158,-0.007446 0.00142,-0.0102753 -2.272e-4,-0.004019 4.838e-4,-0.005953 0.00326,-0.008842 0.0025,-0.00261 0.00331,-0.004555 0.00277,-0.006628 -4.211e-4,-0.001614 -1.389e-4,-0.004104 6.278e-4,-0.005537 0.00151,-0.002822 0.00215,-0.007691 0.00322,-0.0240502 5.022e-4,-0.00772 0.00128,-0.011023 0.00289,-0.0122514 0.00214,-0.001629 0.00245,-0.004493 0.00191,-0.0174721 -1.943e-4,-0.004685 3.915e-4,-0.0154146 9.748e-4,-0.0178347 1.746e-4,-7.2754e-4 2.131e-4,-0.003239 8.53e-5,-0.005582 -1.268e-4,-0.002345 2.486e-4,-0.005019 8.347e-4,-0.005944 5.872e-4,-9.2696e-4 0.00113,-0.006268 0.00121,-0.0118689 8.13e-5,-0.005773 8.31e-4,-0.0110126 0.00172,-0.0120963 0.00102,-0.001222 0.00148,-0.005884 0.00129,-0.0129354 -3.246e-4,-0.0120412 0.00117,-0.0260031 0.00305,-0.0283836 6.5e-4,-8.3093e-4 9.011e-4,-0.004621 5.577e-4,-0.008427 -4.505e-4,-0.004946 -8.53e-5,-0.007462 0.00128,-0.008825 0.00224,-0.002241 0.00252,-0.0100048 4.801e-4,-0.0138037 -0.00113,-0.002112 -9.527e-4,-0.00301 8.604e-4,-0.004336 0.00188,-0.001366 0.0021,-0.002729 0.00128,-0.007488 -0.00202,-0.0116501 -0.00212,-0.0311865 -1.685e-4,-0.0328038 0.00143,-0.001182 0.00164,-0.004414 0.00102,-0.0150029 -7.386e-4,-0.0125253 -7.977e-4,-0.0268432 -1.506e-4,-0.0379345 5.834e-4,-0.0100306 -0.00567,-0.0233604 -0.00868,-0.0184922 -4.543e-4,7.312e-4 -0.00331,0.001233 -0.00636,0.001112 -0.00305,-1.2095e-4 -0.0088,4.2469e-4 -0.012801,0.001215 -0.012405,0.002448 -0.026464,0.004135 -0.042274,0.005074 -0.00872,5.1704e-4 -0.016316,0.001632 -0.017834,0.002622 -0.00288,0.001873 -0.013697,0.00249 -0.019486,0.001104 -0.00269,-6.4258e-4 -0.00364,-3.73e-4 -0.00364,0.001053 0,0.001499 -0.00222,0.001961 -0.010062,0.002098 -0.00553,9.712e-5 -0.010733,7.0536e-4 -0.01156,0.001355 -0.00123,9.6388e-4 -0.019494,0.003055 -0.027265,0.00312 -0.022454,1.8635e-4 -0.050377,-7.9769e-4 -0.050994,-0.001795 -4.359e-4,-7.0905e-4 -0.00177,-8.5677e-4 -0.00298,-3.3365e-4 -0.00281,0.00123 -0.01082,0.001735 -0.035205,0.002209 -0.010906,2.1254e-4 -0.020411,7.6077e-4 -0.021136,0.001215 -7.276e-4,4.5794e-4 -0.00817,0.001182 -0.016522,0.001614 -0.015161,7.8293e-4 -0.025897,0.001857 -0.048041,0.004807 -0.01156,0.00154 -0.030538,0.001101 -0.046416,-0.001075 -0.01144,-0.00157 -0.01442,-0.003327 -0.032366,-0.0191927 -0.00255,-0.002248 -0.00477,-0.003992 -0.00493,-0.003876 -0.00158,0.001067 -0.012594,-0.004995 -0.022084,-0.0121515 -0.00641,-0.004836 -0.013214,-0.009572 -0.01511,-0.0105216 -0.00443,-0.002219 -0.017434,-0.004552 -0.025907,-0.004647 -0.00364,-3.962e-5 -0.00868,-6.7583e-4 -0.011216,-0.001411 -0.00253,-7.3491e-4 -0.00887,-0.001337 -0.014059,-0.001337 -0.0052,0 -0.015299,-5.5394e-4 -0.022466,-0.00123 -0.00717,-6.7582e-4 -0.021047,-0.00195 -0.030855,-0.002829 -0.0098,-8.7895e-4 -0.02001,-0.00236 -0.02267,-0.003294 -0.00265,-9.3065e-4 -0.0051,-0.001422 -0.00544,-0.001089 -3.322e-4,3.3206e-4 -0.00677,-8.1248e-4 -0.014317,-0.002545 -0.00755,-0.001731 -0.018771,-0.004181 -0.024946,-0.005446 -0.01225,-0.002503 -0.031555,-0.007594 -0.037321,-0.009834 -0.002,-7.7554e-4 -0.00364,-0.002415 -0.00364,-0.003646 0,-0.00123 -3.911e-4,-0.001843 -8.694e-4,-0.001366 -0.00148,0.001481 -0.00431,-0.001825 -0.00345,-0.004045 5.347e-4,-0.001394 2.861e-4,-0.00178 -7.39e-4,-0.001147 -9.276e-4,5.7353e-4 -0.00155,1.3086e-4 -0.00155,-0.001104 0,-0.00246 -0.00215,-0.002745 -0.00308,-4.0808e-4 -3.675e-4,9.1034e-4 -7.131e-4,5.1482e-4 -7.708e-4,-8.8078e-4 -5.75e-5,-0.001393 -4.912e-4,-0.002145 -9.646e-4,-0.001672 -0.00119,0.001187 -0.00432,-0.003192 -0.00438,-0.006104 -6.05e-5,-0.003418 -0.00687,-0.0114882 -0.0097,-0.0114882 -0.00131,-5e-8 -0.00208,-5.0742e-4 -0.00169,-0.001128 8.077e-4,-0.001307 -0.00486,-0.004156 -0.00827,-0.004156 -0.00127,0 -0.00295,-6.2485e-4 -0.0037,-0.001389 -7.641e-4,-7.6482e-4 -0.00431,-0.002202 -0.00786,-0.003193 -0.00922,-0.002569 -0.014989,-0.004686 -0.020673,-0.007589 -0.00372,-0.0019 -0.00498,-0.002098 -0.00505,-7.9585e-4 -5.08e-5,9.5501e-4 -6.037e-4,5.4693e-4 -0.00123,-9.0626e-4 -6.246e-4,-0.001453 -0.00118,-0.001899 -0.00123,-9.9085e-4 -5.1e-5,9.0811e-4 -6.688e-4,0.001651 -0.00137,0.001651 -7.038e-4,0 -0.001,-7.4305e-4 -6.588e-4,-0.001651 4.048e-4,-0.001077 -0.00455,-0.00372 -0.014248,-0.007596 -0.00817,-0.00327 -0.015644,-0.00654 -0.016591,-0.007265 -0.0062,-0.004757 -0.00951,-0.008868 -0.00951,-0.0118448 0,-0.002095 -7.415e-4,-0.003348 -0.00198,-0.003348 -0.00109,0 -0.00198,-8.2798e-4 -0.00198,-0.00184 0,-0.002393 -0.00291,-0.00346 -0.00681,-0.002498 -0.0017,4.2101e-4 -0.00269,3.079e-4 -0.00217,-2.5119e-4 8.678e-4,-9.469e-4 -0.00575,-0.008621 -0.00744,-0.008621 -0.00155,0 -0.00668,-0.005982 -0.00636,-0.007412 1.871e-4,-8.1543e-4 -5.239e-4,-0.0022 -0.00158,-0.003077 -0.00106,-8.7672e-4 -0.00156,-0.002591 -0.00113,-0.003809 4.359e-4,-0.001219 3.065e-4,-0.001775 -2.87e-4,-0.001236 -0.00148,0.001341 -0.00463,-0.001474 -0.0046,-0.004114 2e-5,-0.00188 1.948e-4,-0.0019 0.00141,-1.6851e-4 0.00108,0.001537 0.00119,0.001293 5.205e-4,-0.001088 -5.753e-4,-0.002038 -1.777e-4,-0.003592 0.00118,-0.004624 0.00308,-0.002341 0.00339,-0.0205714 3.773e-4,-0.0222598 -0.00258,-0.001445 -0.00288,-0.004511 -5.353e-4,-0.005613 9.083e-4,-4.2837e-4 -7.58e-5,-4.4316e-4 -0.00219,-3.37e-5 -0.00436,8.4608e-4 -0.00601,-8.5677e-4 -0.00605,-0.006202 -2.4e-5,-0.003982 0.00231,-0.005422 0.00951,-0.005872 0.0027,-1.6851e-4 0.00672,-0.001207 0.00892,-0.002307 0.00221,-0.001099 0.00401,-0.001429 0.00401,-7.3269e-4 0,7.8808e-4 9.321e-4,7.6741e-4 0.00246,-5.552e-5 0.00136,-7.2678e-4 0.00274,-0.001044 0.00308,-7.0611e-4 0.00109,0.001092 0.00722,-0.006723 0.00815,-0.0103769 4.888e-4,-0.001949 0.00147,-0.003542 0.00217,-0.003542 0.00196,0 0.0066,-0.004347 0.0066,-0.006192 0,-0.002171 -0.00493,-0.00475 -0.00684,-0.003573 -8.535e-4,5.2737e-4 -0.00114,3.4058e-4 -6.573e-4,-4.3467e-4 4.868e-4,-7.8661e-4 -0.00168,-0.002064 -0.00513,-0.003032 -0.00329,-9.2029e-4 -0.00675,-0.002774 -0.00768,-0.004119 -9.424e-4,-0.001345 -0.00196,-0.002212 -0.00226,-0.001928 -2.982e-4,2.856e-4 -0.00131,-3.1306e-4 -0.00224,-0.001329 -9.836e-4,-0.001067 -0.00112,-0.001849 -3.301e-4,-0.001849 7.551e-4,0 0.00137,-8.6861e-4 0.00137,-0.00193 0,-0.001061 0.0013,-0.003143 0.00289,-0.004624 0.00243,-0.002259 0.00465,-0.002693 0.013766,-0.002693 0.00746,0 0.011078,-5.1812e-4 0.011543,-0.001652 5.329e-4,-0.001321 6.872e-4,-0.001321 7.706e-4,0 5.76e-5,9.0811e-4 0.00103,0.001652 0.00217,0.001652 0.00113,0 0.00169,-5.9458e-4 0.00124,-0.001321 -4.488e-4,-7.2642e-4 -1.868e-4,-0.001321 5.823e-4,-0.001321 7.696e-4,0 0.0014,6.2413e-4 0.0014,0.001387 0,9.0627e-4 7.625e-4,9.5982e-4 0.00221,1.5523e-4 0.00121,-6.7729e-4 0.00374,-8.0101e-4 0.00562,-2.7411e-4 0.00636,0.001783 0.020256,0.001653 0.021453,-2.0023e-4 8.997e-4,-0.001393 0.00137,-0.001344 0.00243,2.5364e-4 9.785e-4,0.001467 0.00159,0.001575 0.00234,4.1325e-4 5.596e-4,-8.6269e-4 0.00264,-0.00139 0.00462,-0.001173 0.00198,2.1771e-4 0.0036,-1.5187e-4 0.0036,-8.2133e-4 0,-6.6954e-4 6.013e-4,-8.4607e-4 0.00134,-3.9183e-4 7.345e-4,4.5387e-4 0.00632,9.3507e-4 0.012422,0.001069 0.0061,1.3383e-4 0.01082,6.8912e-4 0.010475,0.001234 -3.367e-4,5.4508e-4 1.48e-5,9.9083e-4 7.868e-4,9.9083e-4 7.696e-4,0 0.0014,-5.4731e-4 0.0014,-0.001216 0,-6.688e-4 0.00179,-0.001609 0.00398,-0.00209 0.00219,-4.8046e-4 0.00367,-0.001375 0.00329,-0.00199 -3.798e-4,-6.1377e-4 0.00274,-0.001506 0.00693,-0.001983 0.00419,-4.7641e-4 0.00874,-0.001178 0.010096,-0.00156 0.00158,-4.439e-4 0.00215,-1.7168e-4 0.00158,7.5376e-4 -10e-4,0.001626 0.00279,5.798e-4 0.0055,-0.001517 8.988e-4,-6.9502e-4 0.00253,-9.1881e-4 0.00364,-4.967e-4 0.00236,9.0516e-4 0.0062,-3.2506e-4 0.00536,-0.001711 -7.404e-4,-0.001198 -6.808e-4,-0.001204 0.017804,-0.001742 0.00837,-2.4367e-4 0.015988,-9.2105e-4 0.016936,-0.001505 9.453e-4,-5.8425e-4 0.00205,-7.2642e-4 0.00246,-3.1604e-4 4.104e-4,4.1028e-4 0.002,5.432e-5 0.00355,-7.9143e-4 0.00154,-8.4571e-4 0.00417,-0.001373 0.00584,-0.001171 0.00167,2.0172e-4 0.00389,-3.4702e-4 0.00494,-0.001219 0.00134,-0.001115 0.00191,-0.001148 0.00191,-1.0946e-4 0,0.001029 0.00331,0.001254 0.010906,7.4194e-4 0.010372,-7.0021e-4 0.020223,-0.001469 0.022537,-0.001761 5.88e-4,-7.395e-5 7.014e-4,-7.29e-4 2.524e-4,-0.001456 -0.00116,-0.001883 0.00508,-0.001647 0.00699,2.6412e-4 9.591e-4,9.5909e-4 0.00159,0.001043 0.00159,2.1318e-4 0,-7.5558e-4 0.00283,-0.001373 0.00627,-0.001376 0.00727,-3.94e-6 0.018914,-0.001392 0.019892,-0.002371 3.692e-4,-3.6897e-4 0.00147,-9.98e-6 0.00245,8.003e-4 0.00132,0.001097 0.00177,0.001053 0.00177,-1.7329e-4 0,-0.001246 5.422e-4,-0.001205 0.00224,1.6832e-4 0.00152,0.001232 0.00191,0.001284 0.00124,1.6178e-4 -0.00102,-0.001705 -2.973e-4,-0.001847 0.012439,-0.002417 0.00331,-1.483e-4 0.00865,-0.001167 0.011888,-0.002262 0.00324,-0.001096 0.0078,-0.001828 0.010165,-0.001626 0.00236,2.0222e-4 0.00429,-4.99e-6 0.00431,-4.6088e-4 2.7e-6,-4.5572e-4 0.00429,-0.001002 0.00953,-0.001213 0.00524,-2.1121e-4 0.00984,-8.4497e-4 0.010234,-0.001408 3.882e-4,-5.6318e-4 0.00636,-0.001064 0.013249,-0.001112 0.00691,-4.996e-5 0.014937,-4.8084e-4 0.017835,-9.6057e-4 0.00544,-8.985e-4 0.012715,-0.00174 0.016919,-0.001957 0.00131,-6.801e-5 0.00207,-6.5368e-4 0.00166,-0.001301 -4.247e-4,-6.8469e-4 0.0015,-6.7694e-4 0.0046,2.002e-5 0.00298,6.6992e-4 0.00632,7.0019e-4 0.00758,6.839e-5 0.00124,-6.2042e-4 0.00548,-9.0184e-4 0.00941,-6.2485e-4 0.00488,3.4301e-4 0.00749,-3.985e-5 0.00824,-0.001202 8.79e-4,-0.001387 0.00109,-0.001382 0.0011,2.498e-5 1.05e-5,9.5097e-4 6.685e-4,0.001328 0.00146,8.3869e-4 7.941e-4,-4.897e-4 0.00625,-0.001105 0.012129,-0.001367 0.00587,-2.6212e-4 0.011026,-9.3656e-4 0.01144,-0.001499 0.00116,-0.001565 0.00407,-0.001847 0.00407,-3.9478e-4 0,7.5558e-4 0.00123,8.6933e-4 0.00298,2.7461e-4 0.00164,-5.5765e-4 0.00491,-8.9151e-4 0.00727,-7.4267e-4 0.00236,1.4929e-4 0.00405,-1.5089e-4 0.00372,-6.6624e-4 -3.186e-4,-5.1553e-4 0.00161,-9.864e-4 0.00429,-0.001047 0.00267,-5.987e-5 0.00903,-4.3984e-4 0.01411,-8.4387e-4 0.011164,-8.8632e-4 0.012095,-9.3838e-4 0.014197,-7.8882e-4 9.084e-4,6.443e-5 0.00374,-1.7369e-4 0.00627,-5.2922e-4 0.00255,-3.555e-4 0.0052,-2.876e-4 0.00593,1.5087e-4 0.00334,0.002057 0.011388,0.002176 0.012611,1.8678e-4 6.833e-4,-0.001108 0.00119,-0.001125 0.00184,-6.285e-5 6.575e-4,0.001063 0.0017,0.00103 0.00381,-1.2134e-4 0.00159,-8.7266e-4 0.00527,-0.00179 0.00818,-0.002038 0.013749,-0.001174 0.052517,-0.003396 0.056505,-0.003239 0.00136,5.334e-5 0.00196,-5.0853e-4 0.00146,-0.001341 -5.835e-4,-9.4615e-4 3.025e-4,-0.001205 0.00262,-7.6372e-4 0.00239,4.5831e-4 0.0035,1.0331e-4 0.0035,-0.00113 0,-9.89e-4 5.946e-4,-0.001799 0.00132,-0.001799 7.276e-4,0 0.00132,5.8757e-4 0.00132,0.001305 0,0.001649 0.00562,0.001125 0.00691,-6.448e-4 6.352e-4,-8.6603e-4 9.788e-4,-8.4387e-4 9.898e-4,6.483e-5 10e-6,8.0396e-4 0.00196,0.00116 0.00465,8.4643e-4 0.00255,-2.9708e-4 0.00462,-0.001069 0.00462,-0.001717 0,-6.4701e-4 6.278e-4,-0.001177 0.0014,-0.001177 7.681e-4,0 10e-4,6.4e-4 5.207e-4,0.001423 -5.687e-4,9.2067e-4 4.505e-4,0.00127 0.00289,9.9084e-4 0.00229,-2.6113e-4 0.00364,-0.001123 0.00341,-0.002181 -1.996e-4,-9.6241e-4 2.562e-4,-0.001367 0.00101,-8.9962e-4 7.572e-4,4.6717e-4 0.00104,0.001397 6.242e-4,0.002064 -4.137e-4,6.6806e-4 2.58e-5,9.4799e-4 9.676e-4,6.2227e-4 0.00346,-0.001192 0.043346,-0.003589 0.055546,-0.003337 0.00272,5.591e-5 0.00734,-5.403e-4 0.010251,-0.001325 0.00503,-0.001357 0.021359,-0.002936 0.032037,-0.003098 0.00272,-3.985e-5 0.00494,-4.0179e-4 0.00494,-8.0064e-4 -1.4e-6,-3.9848e-4 0.00357,-5.2367e-4 0.00793,-2.7712e-4 0.00596,3.3653e-4 0.00794,9.99e-6 0.00794,-0.001321 1.5e-5,-0.001389 2.772e-4,-0.001363 0.00122,1.2391e-4 0.00103,0.001631 0.00195,0.001599 0.0066,-2.3017e-4 0.00298,-0.001167 0.00505,-0.001549 0.00462,-8.4868e-4 -0.00125,0.002026 0.00627,-1.1538e-4 0.010286,-0.002927 0.00196,-0.00138 0.00444,-0.00251 0.00551,-0.00251 0.0026,0 0.00612,-0.003646 0.00544,-0.005653 -8.68e-4,-0.002572 0.00369,-0.0106491 0.00689,-0.0122497 0.00161,-8.0398e-4 0.00472,-0.003709 0.00691,-0.006456 0.00393,-0.004936 0.00395,-0.005017 0.00134,-0.007162 -0.0026,-0.00215 -0.0026,-0.002202 7.606e-4,-0.006132 0.00246,-0.002879 0.003,-0.00316 0.00196,-0.00102 -0.00118,0.00244 -0.00108,0.00281 5.91e-4,0.002171 0.00111,-4.2507e-4 0.00202,-0.001237 0.00202,-0.001806 0,-5.6798e-4 0.001,-9.5022e-4 0.00222,-8.4939e-4 0.00133,1.1043e-4 0.00258,-0.001136 0.00312,-0.003118 7.718e-4,-0.002834 0.00104,-0.002975 0.00188,-9.9084e-4 0.0012,0.00282 0.00448,0.003032 0.0055,3.5451e-4 4.986e-4,-0.001301 0.00148,-0.001605 0.00293,-9.0737e-4 0.00239,0.001153 0.00589,0.001068 0.01125,-2.7413e-4 0.00191,-4.812e-4 0.00348,-3.2155e-4 0.00348,3.5502e-4 0,6.7656e-4 0.00155,0.00106 0.00345,8.5088e-4 0.00419,-4.5942e-4 0.00927,-0.006438 0.010372,-0.0122014 4.431e-4,-0.002324 0.00265,-0.005891 0.00493,-0.007927 0.0091,-0.008175 0.012887,-0.0128423 0.011251,-0.0138761 -0.00124,-7.8823e-4 -0.00124,-0.001018 1.49e-5,-0.001033 9.382e-4,-10e-6 0.00127,-9.1244e-4 7.903e-4,-0.002155 -6.905e-4,-0.001802 -3.914e-4,-0.001906 0.00193,-6.6053e-4 0.00339,0.001821 0.00822,0.001926 0.00822,1.8076e-4 0,-7.1187e-4 0.00253,-0.002581 0.00562,-0.004152 0.00308,-0.001572 0.00665,-0.00404 0.00791,-0.0054844 0.00195,-0.0022308 0.00241,-0.0023212 0.00307,-6.0103e-4 5.651e-4,0.0014721 0.00229,0.0019138 0.00631,0.0016175 0.00303,-2.2418e-4 0.00553,-5.0833e-4 0.00553,-6.3166e-4 0,-1.2332e-4 0.001,-4.1841e-4 0.00224,-6.5524e-4 0.00123,-2.3716e-4 0.00438,-0.001137 0.00699,-0.0019999 0.00369,-0.0012198 0.00519,-0.0012125 0.00668,3.494e-5 0.00106,8.8123e-4 0.00193,0.00114 0.00193,5.7515e-4 0,-5.649e-4 0.00119,4.994e-5 0.00264,0.001364 0.00188,0.0017008 0.00264,0.0018842 0.00264,6.3502e-4 0,-0.0011392 0.00107,-7.4706e-4 0.00307,0.0011163 0.00168,0.00158 0.00436,0.002872 0.00594,0.002872 0.00159,0 0.00289,5.9446e-4 0.00289,0.001321 0,0.001314 0.00729,0.008869 0.013335,0.0138261 0.00174,0.001429 0.00451,0.002426 0.00615,0.002217 0.00164,-2.0921e-4 0.00298,2.0122e-4 0.00298,9.1166e-4 0,7.106e-4 0.0012,9.7872e-4 0.00265,5.9586e-4 0.00214,-5.5687e-4 0.00248,-2.2468e-4 0.00176,0.001662 -6.24e-4,0.001625 -4.209e-4,0.002059 6.537e-4,0.001395 8.568e-4,-5.2942e-4 0.00283,-5.6193e-4 0.00436,-7.236e-5 0.00221,6.9975e-4 0.00241,0.001138 9.787e-4,0.002047 -0.00135,8.5492e-4 -0.0014,0.001205 -1.745e-4,0.001342 0.0036,4.0395e-4 0.0041,5.4798e-4 0.00498,0.001415 4.948e-4,4.948e-4 0.00174,5.7989e-4 0.00276,1.8874e-4 0.00102,-3.9094e-4 0.00186,-2.002e-5 0.00186,8.2954e-4 0,8.4722e-4 -5.945e-4,0.001173 -0.00132,7.2395e-4 -7.276e-4,-4.4886e-4 -0.00129,-3.3555e-4 -0.00126,2.5214e-4 3.56e-5,5.8783e-4 0.00622,0.00568 0.013731,0.0113176 0.00896,0.006719 0.014403,0.009969 0.015782,0.009436 0.00153,-5.8609e-4 0.00212,-3.987e-5 0.00212,0.001971 0,0.001942 8.346e-4,0.002784 0.00276,0.002784 0.00364,0 0.028894,0.0175499 0.030822,0.0214199 0.00183,0.003685 0.00699,0.004671 0.029172,0.005575 0.00872,3.5601e-4 0.019717,9.6019e-4 0.024439,0.001343 0.00472,3.826e-4 0.01542,0.001255 0.023779,0.001938 0.00836,6.8285e-4 0.017663,0.001008 0.020685,7.2274e-4 0.00351,-3.3154e-4 0.00601,1.1341e-4 0.00694,0.001232 8.2e-4,9.879e-4 0.00303,0.001504 0.00508,0.001185 0.002,-3.1158e-4 0.00481,-4.2693e-4 0.00627,-2.5715e-4 0.00145,1.703e-4 0.00575,3.5849e-4 0.00958,4.1879e-4 0.00381,5.987e-5 0.00694,5.5543e-4 0.00694,0.0011 -1e-7,5.451e-4 0.00139,9.9084e-4 0.00308,9.9084e-4 0.0017,0 0.00346,3.8703e-4 0.00395,8.6048e-4 4.728e-4,4.7345e-4 0.00606,9.9898e-4 0.012439,0.001168 0.00637,1.6931e-4 0.013197,9.4838e-4 0.015161,0.001732 0.00226,8.9851e-4 0.00388,9.5464e-4 0.00438,1.5287e-4 0.002,-0.00323 0.014524,7.6444e-4 0.016161,0.00515 4.431e-4,0.001192 0.0026,0.004319 0.00479,0.00695 0.00264,0.003175 0.00477,0.008061 0.00634,0.0145325 0.00298,0.0122549 0.00302,0.0165448 1.705e-4,0.0181349 -0.002,0.001123 -0.00205,0.001811 -4.505e-4,0.006671 9.822e-4,0.002981 0.00229,0.005418 0.00289,0.005418 6.093e-4,0 0.00111,0.002 0.00111,0.004443 0,0.003039 0.0011,0.005544 0.00348,0.007927 0.00331,0.003306 0.00463,0.003653 0.015678,0.004106 0.00221,9.04e-5 0.00712,0.002341 0.011078,0.005074 0.00391,0.002701 0.00867,0.005236 0.010561,0.005632 0.0019,3.9664e-4 0.0045,0.00128 0.00575,0.001962 0.00126,6.8284e-4 0.00317,0.001241 0.00424,0.001241 0.00107,0 0.00398,0.001783 0.00646,0.003963 0.00248,0.002179 0.00513,0.003963 0.00588,0.003963 7.534e-4,0 0.00161,7.4044e-4 0.00191,0.001646 3.015e-4,9.0516e-4 0.00139,0.001706 0.00243,0.00178 0.00601,4.3208e-4 0.00658,6.389e-4 0.00572,0.002042 -6.611e-4,0.001072 3.952e-4,0.001255 0.00369,6.3741e-4 0.0057,-0.001071 0.011199,0.001464 0.010544,0.004859 -2.555e-4,0.001306 3.268e-4,0.003353 0.0013,0.004547 0.00126,0.001556 0.00129,0.00189 1.091e-4,0.00118 -0.00255,-0.001533 -0.00203,0.003522 6.608e-4,0.006511 0.00127,0.001409 0.00234,0.003155 0.00238,0.003882 3.98e-5,7.2678e-4 8.348e-4,0.003105 0.00176,0.005284 0.00143,0.003356 0.00224,0.006873 0.0027,0.0115192 1.528e-4,0.001584 0.013542,0.009657 0.020287,0.0122273 0.00501,0.001912 0.00625,0.002972 0.00594,0.005119 -2.954e-4,0.002105 6.465e-4,0.002981 0.00424,0.00394 0.00255,6.7841e-4 0.00686,0.001274 0.00958,0.001324 0.00272,4.957e-5 0.00496,6.0086e-4 0.00496,0.001224 0,6.2337e-4 5.393e-4,7.9989e-4 0.0012,3.9293e-4 6.574e-4,-4.0734e-4 9.233e-4,3.1305e-4 5.873e-4,0.0016 -3.365e-4,0.001287 -6.94e-5,0.00475 5.908e-4,0.007696 0.00135,0.005992 -7.016e-4,0.0192087 -0.00339,0.0219025 -8.9e-4,8.9077e-4 -0.00162,0.002362 -0.00162,0.00327 0,9.0775e-4 -0.00186,0.003387 -0.00413,0.005508 -0.00326,0.003043 -0.00415,0.00501 -0.00427,0.009314 -7.92e-5,0.003001 -5.723e-4,0.005456 -0.00109,0.005456 -5.244e-4,0 -0.0021,0.002579 -0.00348,0.005734 -0.00159,0.003592 -0.00432,0.00684 -0.00732,0.008695 -0.00331,0.00205 -0.00479,0.00392 -0.00479,0.006078 0,0.001714 -6.352e-4,0.00351 -0.00141,0.003988 -7.755e-4,4.7974e-4 -0.0011,0.001696 -7.092e-4,0.002703 3.953e-4,0.001027 -0.00143,0.003899 -0.00415,0.006542 -0.00527,0.005124 -0.00879,0.0103959 -0.014645,0.0219855 -0.00305,0.00603 -0.00382,0.009391 -0.00396,0.0170824 -9.72e-5,0.005267 -7.532e-4,0.0114003 -0.00146,0.0136297 -7.053e-4,0.002231 -0.00116,0.00735 -0.00102,0.0113762 1.983e-4,0.005382 -4.135e-4,0.008356 -0.00231,0.0112297 -0.00283,0.004271 -0.00283,0.008835 0,0.017041 0.00136,0.003951 0.00146,0.006728 4.321e-4,0.0115157 -7.46e-4,0.003472 -0.00156,0.0112349 -0.00181,0.0172528 -2.51e-4,0.006018 -5.058e-4,0.0115381 -5.649e-4,0.0122635 -2.502e-4,0.003043 9.491e-4,0.0187263 0.00164,0.0214676 4.137e-4,0.001636 3.131e-4,0.002974 -2.217e-4,0.002974 -5.355e-4,0 -0.0011,0.005406 -0.00125,0.0120136 -3.021e-4,0.013149 -0.00117,0.0197773 -0.00279,0.0214144 -5.797e-4,5.8349e-4 -5.022e-4,0.004109 1.766e-4,0.007832 6.757e-4,0.003723 8.604e-4,0.00874 4.099e-4,0.011147 -4.506e-4,0.002409 -8.236e-4,0.004529 -8.274e-4,0.004717 0,1.8835e-4 -5.833e-4,0.002719 -0.00129,0.005625 -7.054e-4,0.002907 -0.00153,0.0107232 -0.00184,0.0173713 -3.031e-4,0.006649 -0.00122,0.0157902 -0.00203,0.0203157 -8.198e-4,0.004526 -0.00137,0.0103821 -0.00123,0.0130129 2.636e-4,0.004757 -3.489e-4,0.007358 -0.00307,0.0130422 -0.00147,0.003077 -0.00362,0.004018 -0.00362,0.001588 0,-0.001603 -0.010113,-0.006469 -0.013542,-0.006512 -0.00157,-1.983e-5 -0.00231,9.9343e-4 -0.00231,0.003143 0,0.002231 -0.00138,0.003988 -0.00465,0.005918 -0.00534,0.003155 -0.00687,0.005992 -0.00467,0.008657 0.00107,0.001289 0.00114,0.002603 2.262e-4,0.004276 -0.00177,0.003239 -0.0057,0.0206137 -0.00519,0.0228883 2.265e-4,9.9343e-4 -0.00127,0.002645 -0.00331,0.003668 -0.00276,0.00137 -0.00346,0.002434 -0.00274,0.00405 5.465e-4,0.001208 9.343e-4,0.003978 8.642e-4,0.006158 -7.34e-5,0.002179 0.00106,0.00741 0.00252,0.0116243 0.00205,0.005922 0.00229,0.00808 0.0011,0.009514 -8.458e-4,0.001019 -0.00116,0.003043 -7.018e-4,0.004492 5.467e-4,0.001717 -6.92e-5,0.003546 -0.00176,0.005239 -0.00222,0.002219 -0.00258,0.004349 -0.0025,0.0144774 7.74e-5,0.009846 -3.876e-4,0.0126907 -0.0027,0.0166361 -0.00245,0.004149 -0.00264,0.005615 -0.00154,0.011433 0.00144,0.007591 8.051e-4,0.0151545 -0.0015,0.0179371 -8.642e-4,0.001041 -0.00181,0.005582 -0.00212,0.0100944 -2.991e-4,0.004512 -7.496e-4,0.0111763 -9.97e-4,0.0148082 -2.497e-4,0.003634 -8.79e-4,0.008284 -0.0014,0.0103356 -5.208e-4,0.002054 -3.73e-4,0.005024 3.291e-4,0.006606 0.00143,0.003213 -2.293e-4,0.0114623 -0.00229,0.0114623 -7.053e-4,0 -0.00129,0.002119 -0.00129,0.00471 0,0.004636 -0.00191,0.009743 -0.0042,0.0112504 -6.462e-4,4.247e-4 -0.0013,0.00562 -0.00145,0.0115502 -1.547e-4,0.00593 -7.903e-4,0.0107852 -0.00141,0.0107904 -6.24e-4,5.03e-6 -7.681e-4,9.5281e-4 -3.265e-4,0.002109 4.467e-4,0.001163 -3.63e-4,0.003585 -0.00181,0.005425 -0.00198,0.002522 -0.00229,0.003923 -0.00129,0.005799 7.274e-4,0.001359 9.269e-4,0.004119 4.431e-4,0.006133 -4.838e-4,0.002012 -9.676e-4,0.00604 -0.00108,0.008945 -1.09e-4,0.002907 -5.687e-4,0.006177 -0.00102,0.007265 -8.494e-4,0.00204 -0.00274,0.021917 -0.00293,0.030715 -6.34e-5,0.00303 -7.46e-4,0.00496 -0.00176,0.00496 -9.085e-4,0 -0.00165,8.9e-4 -0.00165,0.00198 0,0.00109 -7.422e-4,0.00199 -0.00165,0.002 -0.0011,1.49e-5 -9.898e-4,4.468e-4 3.301e-4,0.0013 0.00147,9.491e-4 0.00153,0.00129 2.307e-4,0.0013 -0.00123,1.49e-5 -0.00165,0.0017 -0.0014,0.00569 1.923e-4,0.00312 -9.11e-5,0.00638 -6.278e-4,0.00725 -5.393e-4,8.716e-4 2.186e-4,0.00429 0.00168,0.00759 0.00195,0.00442 0.00234,0.00685 0.00145,0.00918 -9.564e-4,0.00251 -7.386e-4,0.00329 0.00104,0.00377 0.00184,4.986e-4 0.00172,7.756e-4 -7.238e-4,0.00156 -0.00307,9.86e-4 -0.00412,0.00329 -0.00149,0.00329 0.00103,0 9.75e-4,6.13e-4 -1.606e-4,0.00198 -0.00126,0.00152 -0.00129,0.00283 -1.447e-4,0.00561 8.235e-4,0.002 0.00141,0.00512 0.0013,0.00694 -1.091e-4,0.00182 4.764e-4,0.00497 0.0013,0.00701 8.235e-4,0.00204 9.86e-4,0.00339 3.591e-4,0.003 -6.279e-4,-3.877e-4 -0.00101,0.00166 -8.458e-4,0.00455 2.102e-4,0.00372 -2.331e-4,0.00525 -0.00153,0.00525 -0.0013,0 -0.0016,0.00105 -0.00103,0.00363 9.121e-4,0.00422 9.121e-4,0.00413 -2.108e-4,0.013211 -4.726e-4,0.00381 -0.00135,0.00694 -0.00195,0.00694 -5.982e-4,0 -2.242e-4,0.00206 8.273e-4,0.00458 0.00105,0.00252 0.00191,0.00656 0.00191,0.00898 0,0.00242 7.128e-4,0.00512 0.00158,0.00599 0.00123,0.00123 0.00122,0.00158 -8.93e-5,0.00158 -0.00111,0 -0.00137,9.528e-4 -7.83e-4,0.00281 0.00143,0.00452 0.00152,0.010313 1.607e-4,0.010766 -6.907e-4,2.302e-4 5.503e-4,0.00425 0.00276,0.00894 0.00627,0.013308 0.00737,0.016202 0.00767,0.019878 1.447e-4,0.00188 0.0013,0.00501 0.00257,0.00694 0.00126,0.00193 0.00193,0.00351 0.00146,0.00351 -4.617e-4,0 3.613e-4,0.00235 0.00183,0.00523 0.00262,0.00515 0.00372,0.014071 0.00157,0.012737 -6.056e-4,-3.767e-4 -6.721e-4,0.00212 -1.426e-4,0.00554 6.278e-4,0.00406 4.395e-4,0.00687 -5.503e-4,0.00808 -0.00114,0.00141 -0.00111,0.002 1.426e-4,0.00242 0.0025,8.384e-4 0.00198,0.0027 -9.896e-4,0.00364 -0.00186,5.909e-4 -0.00264,0.002 -0.00264,0.00479 0,0.00254 5.207e-4,0.00363 0.00145,0.00305 0.00106,-6.536e-4 0.00106,-1.566e-4 0,0.00182 -0.0019,0.00355 -0.00184,0.00626 1.983e-4,0.00841 0.00217,0.0023 0.00279,0.00723 0.00105,0.00831 -7.609e-4,4.69e-4 -0.00139,0.00234 -0.00139,0.00417 0,0.00283 -4.357e-4,0.00318 -0.00298,0.0024 -0.00164,-5.023e-4 -0.00255,-4.727e-4 -0.00205,6.94e-5 0.00155,0.00165 -0.00253,0.00469 -0.00501,0.00374 -0.00177,-6.832e-4 -0.00212,-3.767e-4 -0.00146,0.00133 0.00102,0.00267 1.5e-5,0.00273 -0.00436,2.292e-4 -0.00426,-0.00243 -0.00529,-0.00243 -0.00529,0 0,0.00109 -5.945e-4,0.00198 -0.00132,0.00198 -7.274e-4,0 -0.00132,-6.278e-4 -0.00132,-0.0014 0,-7.682e-4 -6.204e-4,-0.00102 -0.00138,-5.466e-4 -7.57e-4,4.69e-4 -0.0021,2.926e-4 -0.00298,-3.915e-4 -0.00224,-0.00175 -0.0077,-0.00295 -0.00681,-0.0015 4.062e-4,6.573e-4 1.109e-4,0.0012 -6.573e-4,0.0012 -7.682e-4,0 -0.0014,-5.946e-4 -0.0014,-0.00132 0,-0.00167 -0.00488,-0.00174 -0.00589,-8.33e-5 -4.211e-4,6.795e-4 4.357e-4,0.0044 0.0019,0.00826 0.00314,0.00826 0.00336,0.012089 8.198e-4,0.014625 -0.00121,0.00121 -0.00183,0.00476 -0.00181,0.010234 3.96e-5,0.00768 7.534e-4,0.00975 0.00846,0.02463 0.00463,0.00893 0.00841,0.017451 0.00841,0.018924 0,0.00147 4.469e-4,0.00268 9.897e-4,0.00268 0.00114,0 0.00137,0.00183 0.00208,0.017174 7.276e-4,0.015365 -8.13e-5,0.020735 -0.00326,0.021564 -0.0014,3.663e-4 -0.00238,0.00146 -0.00219,0.00243 2.173e-4,0.00104 -5.799e-4,0.00161 -0.00195,0.00138 -0.00127,-2.137e-4 -0.00231,2.677e-4 -0.00231,0.00107 0,8.014e-4 -6.057e-4,0.00108 -0.00134,6.278e-4 -7.386e-4,-4.579e-4 -0.001,-0.00138 -5.834e-4,-0.00206 4.173e-4,-6.759e-4 -6.132e-4,-0.00122 -0.00229,-0.00121 -0.00245,1.49e-5 -0.00265,2.706e-4 -0.00107,0.0013 0.00161,0.00104 0.00143,0.00129 -9.417e-4,0.0013 -0.00355,2.58e-5 -0.013593,0.010081 -0.013593,0.013607 0,0.00139 -7.202e-4,0.00224 -0.00164,0.00194 -0.00203,-6.758e-4 -0.00496,0.00211 -0.00496,0.00472 0,0.00107 -0.00148,0.00334 -0.00327,0.00505 -0.00181,0.00171 -0.00329,0.00385 -0.00331,0.00476 -1.5e-5,9.085e-4 -6.168e-4,0.00165 -0.00134,0.00165 -7.274e-4,0 -0.00132,8.9e-4 -0.00132,0.00198 0,0.00167 -0.0031,0.00266 -0.00681,0.00218 -4.689e-4,-6.14e-5 -5.723e-4,9.75e-4 -2.241e-4,0.00231 3.804e-4,0.00145 -2.298e-4,0.00274 -0.00153,0.00324 -0.00143,5.503e-4 -0.00184,3.136e-4 -0.00121,-7.017e-4 6.315e-4,-0.00102 2.157e-4,-0.00125 -0.00125,-6.869e-4 -0.00121,4.653e-4 -0.00219,3.091e-4 -0.00219,-3.439e-4 0,-6.537e-4 -0.00134,-0.00138 -0.00298,-0.00161 -0.00164,-2.322e-4 -0.00298,-0.00106 -0.00298,-0.00184 0,-7.793e-4 -9.86e-4,-0.0024 -0.00219,-0.0036 -0.0012,-0.0012 -0.00298,-0.00398 -0.00396,-0.00618 -9.712e-4,-0.0022 -0.00267,-0.00408 -0.00376,-0.00419 -0.006,-6.056e-4 -0.011905,-0.00258 -0.011905,-0.00399 0,-6.943e-4 -0.0015,-0.00108 -0.00334,-8.494e-4 -0.00184,2.296e-4 -0.00329,9.824e-4 -0.00322,0.00167 6.54e-5,6.906e-4 -0.0026,0.00205 -0.00591,0.00301 -0.00362,0.00106 -0.00603,0.00253 -0.00603,0.0037 0,0.00107 -6.278e-4,0.00194 -0.0014,0.00194 -7.68e-4,0 -0.00103,5.982e-4 -5.761e-4,0.00133 4.543e-4,7.312e-4 -4.431e-4,0.00311 -0.00198,0.00528 -0.00154,0.00217 -0.00245,0.00454 -0.00198,0.00528 4.543e-4,7.312e-4 1.566e-4,0.00133 -6.537e-4,0.00133 -8.125e-4,0 -0.00111,5.945e-4 -6.61e-4,0.00132 9.381e-4,0.00152 8.938e-4,0.00152 -0.00264,0 z M 4.7272677,1.2528875 c 0,-3.206e-4 -5.945e-4,-9.491e-4 -0.00132,-0.0014 -7.276e-4,-4.505e-4 -0.00132,-1.863e-4 -0.00132,5.835e-4 0,7.682e-4 5.946e-4,0.0014 0.00132,0.0014 7.274e-4,0 0.00132,-2.621e-4 0.00132,-5.835e-4 z M 3.8201646,0.28710118 c -4.183e-4,-0.00109 -9.941e-4,-0.001981 -0.00128,-0.001981 -2.857e-4,0 -5.193e-4,8.9187e-4 -5.193e-4,0.001981 0,0.00109 5.758e-4,0.001981 0.00128,0.001981 7.038e-4,0 9.372e-4,-8.9188e-4 5.193e-4,-0.001981 z m 1.056385,1.14727872 c 0,-7.682e-4 5.946e-4,-0.00103 0.00132,-5.835e-4 7.275e-4,4.505e-4 0.00132,0.00108 0.00132,0.0014 0,3.206e-4 -5.946e-4,5.835e-4 -0.00132,5.835e-4 -7.276e-4,0 -0.00132,-6.278e-4 -0.00132,-0.0014 z M 5.0020528,1.3202625 c 0,-0.00113 5.946e-4,-0.00206 0.00132,-0.00206 7.275e-4,0 0.00132,5.614e-4 0.00132,0.00124 0,6.832e-4 -5.946e-4,0.00161 -0.00132,0.00206 -7.276e-4,4.505e-4 -0.00132,-1.111e-4 -0.00132,-0.00124 z M 4.6995251,1.2336539 c 0,-7.276e-4 5.945e-4,-0.00132 0.00132,-0.00132 7.276e-4,0 0.00132,5.945e-4 0.00132,0.00132 0,7.275e-4 -5.945e-4,0.00132 -0.00132,0.00132 -7.276e-4,0 -0.00132,-5.946e-4 -0.00132,-0.00132 z M 3.8025128,0.38684261 c 0,-7.268e-4 5.946e-4,-0.001321 0.00132,-0.001321 7.267e-4,0 0.00132,5.942e-4 0.00132,0.001321 0,7.2678e-4 -5.944e-4,0.001321 -0.00132,0.001321 -7.265e-4,0 -0.00132,-5.9422e-4 -0.00132,-0.001321 z M 4.1169295,0.22691419 c 0,-7.6965e-4 5.942e-4,-0.001031 0.00132,-5.824e-4 7.267e-4,4.487e-4 0.00132,0.001079 0.00132,0.001399 0,3.2054e-4 -5.942e-4,5.8239e-4 -0.00132,5.8239e-4 -7.269e-4,0 -0.00132,-6.2966e-4 -0.00132,-0.001399 z m 0.030385,-0.001087 c 0,-7.2642e-4 5.946e-4,-0.001688 0.00132,-0.002138 7.276e-4,-4.487e-4 0.00132,-2.222e-4 0.00132,5.0448e-4 0,7.2642e-4 -5.946e-4,0.001688 -0.00132,0.002138 -7.275e-4,4.4871e-4 -0.00132,2.2169e-4 -0.00132,-5.0448e-4 z M 4.9108976,0.1846396 c 0,-7.6963e-4 5.946e-4,-0.001031 0.00132,-5.824e-4 7.276e-4,4.487e-4 0.00132,0.001079 0.00132,0.001399 0,3.2055e-4 -5.945e-4,5.8238e-4 -0.00132,5.8238e-4 -7.276e-4,0 -0.00132,-6.2966e-4 -0.00132,-0.001399 z"
     id="path_kachiutu"
     inkscape:connector-curvature="0"
     sodipodi:nodetypes="cccccsscccccccscccccccccccccscccsssssscscsscccccssccssscsccsccssscccscscssccssccscccscccsccscsscccccccscccccccscscccccccsccsscccsccsccscssccscscscccscccccccsccccscssccscscccscssccscscccscscscccsccccccsccccccscccsssccsscccccccccccccscccssccccccsscsccscssccccccscscssccscccccccccccsccccscccsccccccccccccccccccccscccccccccccccccssscccsscccccccccsccccccscccccccsccccccsccccccssccccscccscscssccsccccccccsccccsscccccccccsscccccccccsscccccscscccscccccccccccsccccsccsccscccccccccccccsccccccccccscscccccccccccccccccccssccccccccccsscccccccccsccccccsccscscssccccscccccsscsccscccccssscccsscccccssccccscccccscsccsscccccscscccscccsscccscccscssscssscscsssssscsssssssssssscsssscscsscsss" />
</svg>
